{"glyphs":{"0":{"ha":872,"x_min":0,"x_max":0,"o":"m 86 513 b 436 1019 86 800 158 1019 b 785 513 713 1019 785 800 b 436 0 785 221 713 0 b 86 513 158 0 86 221 m 660 513 b 436 904 660 721 633 904 b 211 513 238 904 211 721 b 436 115 211 296 238 115 b 660 513 633 115 660 296 "},"1":{"ha":444,"x_min":0,"x_max":0,"o":"m 186 889 l 53 889 l 53 1004 l 314 1004 l 314 0 l 186 0 "},"2":{"ha":799,"x_min":0,"x_max":0,"o":"m 71 101 b 585 719 335 314 585 514 b 400 914 585 831 536 914 b 197 697 269 914 203 824 l 75 697 b 399 1022 83 911 218 1022 b 710 725 588 1022 710 911 b 261 117 710 475 440 263 l 739 117 l 739 11 l 71 11 "},"3":{"ha":818,"x_min":0,"x_max":0,"o":"m 83 751 b 413 1024 96 924 226 1024 b 715 765 608 1024 715 910 b 538 536 715 650 643 560 l 538 529 b 733 271 654 501 733 415 b 415 -7 733 115 625 -7 b 68 289 225 -7 83 94 l 190 289 b 414 100 203 182 281 100 b 613 282 549 100 613 179 b 333 478 613 424 514 478 l 301 478 l 301 583 l 335 583 b 593 753 503 585 593 636 b 408 915 593 849 529 915 b 207 751 290 915 219 849 l 83 751 "},"4":{"ha":874,"x_min":0,"x_max":0,"o":"m 569 224 l 56 224 l 56 319 l 543 994 l 694 994 l 694 333 l 833 333 l 833 224 l 694 224 l 694 0 l 569 0 m 575 333 l 575 863 l 201 333 "},"5":{"ha":872,"x_min":0,"x_max":0,"o":"m 726 1006 l 726 894 l 239 894 l 239 578 b 468 679 281 635 369 679 b 790 347 713 679 790 503 b 447 -3 790 153 682 -3 b 101 272 247 -3 126 110 l 225 272 b 449 104 249 167 331 104 b 669 344 601 104 669 207 b 450 571 669 488 596 571 b 242 439 349 571 275 518 l 122 439 l 122 1006 "},"6":{"ha":882,"x_min":0,"x_max":0,"o":"m 646 765 b 456 919 626 863 569 919 b 211 511 296 919 210 810 b 483 665 254 610 364 665 b 797 331 671 665 797 542 b 469 -3 797 147 689 -3 b 101 515 172 -3 101 211 b 457 1025 101 831 203 1025 b 763 765 649 1025 746 906 m 457 558 b 226 340 342 558 226 490 b 463 103 226 207 304 103 b 675 326 593 103 675 190 b 457 558 675 468 601 558 "},"7":{"ha":758,"x_min":0,"x_max":0,"o":"m 704 1001 l 704 906 l 318 0 l 190 0 l 582 893 l 46 893 l 46 1001 "},"8":{"ha":876,"x_min":0,"x_max":0,"o":"m 269 522 b 108 753 167 563 108 640 b 438 1019 108 900 219 1019 b 768 753 656 1019 768 899 b 607 522 768 644 706 561 b 794 271 721 488 794 396 b 438 -28 794 89 650 -28 b 83 271 226 -28 83 89 b 269 522 83 397 157 489 m 438 564 b 646 738 561 564 646 633 b 438 914 646 853 564 914 b 231 736 314 914 231 854 b 438 564 231 632 315 564 m 438 467 b 204 275 308 467 204 408 b 438 78 204 157 294 78 b 669 275 581 78 669 158 b 438 467 669 404 569 467 "},"9":{"ha":875,"x_min":0,"x_max":0,"o":"m 249 269 b 450 104 267 165 333 104 b 672 499 597 104 676 204 b 424 365 632 414 532 365 b 101 693 239 365 101 481 b 432 1024 101 885 215 1024 b 783 521 704 1024 783 832 b 443 -1 783 186 707 -1 b 132 269 243 -1 146 122 m 444 472 b 657 686 565 472 657 551 b 435 918 657 822 579 918 b 222 696 304 918 222 829 b 444 472 222 567 294 472 "},"\u0000":{"ha":0,"x_min":0,"x_max":0,"o":""},"\r":{"ha":371,"x_min":0,"x_max":0,"o":""}," ":{"ha":371,"x_min":0,"x_max":0,"o":""},"अ":{"ha":1150,"x_min":0,"x_max":0,"o":"m 392 622 b 571 778 513 622 571 701 b 400 942 571 881 494 942 b 221 782 300 942 221 881 l 113 782 b 400 1040 113 942 233 1040 b 675 793 561 1040 675 944 b 506 579 675 689 618 607 l 506 576 b 581 550 533 572 558 563 l 888 550 l 888 1028 l 1186 1028 l 1186 931 l 1003 931 l 1003 0 l 888 0 l 888 454 l 668 456 b 693 342 685 421 693 381 b 411 74 693 179 581 74 b 103 356 231 74 103 188 l 211 356 b 403 174 211 250 290 174 b 586 351 515 174 586 246 b 554 456 586 388 576 425 l 550 456 l 549 464 b 392 528 518 501 468 528 l 338 528 l 338 622 l 392 622 "},"आ":{"ha":1547,"x_min":0,"x_max":0,"o":"m 392 622 b 571 778 513 622 571 701 b 400 942 571 881 494 942 b 221 782 300 942 221 881 l 113 782 b 400 1040 113 942 233 1040 b 675 793 561 1040 675 944 b 506 579 675 689 618 607 l 506 576 b 581 550 533 572 558 563 l 888 550 l 888 1028 l 1594 1028 l 1594 931 l 1413 931 l 1413 0 l 1296 0 l 1296 931 l 1003 931 l 1003 0 l 888 0 l 888 454 l 668 456 b 693 342 685 421 693 381 b 411 74 693 179 581 74 b 103 356 231 74 103 188 l 211 356 b 403 174 211 250 290 174 b 586 351 515 174 586 246 b 554 456 586 388 576 425 l 550 456 l 549 464 b 392 528 518 501 468 528 l 338 528 l 338 622 l 392 622 "},"इ":{"ha":806,"x_min":0,"x_max":0,"o":"m -50 1028 l 857 1028 l 857 931 l 646 931 l 646 679 l 400 679 b 231 563 322 679 231 658 b 382 449 231 479 300 449 l 443 449 b 729 211 585 449 729 393 b 479 -19 729 83 643 -19 b 242 110 329 -19 261 68 l 242 -107 l 132 -107 l 132 249 l 236 249 b 449 69 246 146 319 69 b 618 214 563 69 618 136 b 422 365 618 332 521 365 l 349 365 b 114 564 228 368 114 425 b 368 764 114 714 242 764 l 533 764 l 533 931 l -50 931 "},"ई":{"ha":806,"x_min":0,"x_max":0,"o":"m 242 -107 l 132 -107 l 132 249 l 236 249 b 449 69 246 146 319 69 b 618 214 563 69 618 136 b 422 365 618 332 521 365 l 349 365 b 114 564 228 368 114 425 b 368 764 114 714 242 764 l 533 764 l 533 931 l -50 931 l -50 1028 l 535 1028 l 535 1131 b 765 1399 535 1283 601 1399 b 989 1164 911 1399 993 1303 l 886 1164 b 768 1300 889 1246 843 1300 b 643 1131 683 1300 643 1243 l 643 1028 l 857 1028 l 857 931 l 646 931 l 646 679 l 400 679 b 231 563 322 679 231 658 b 382 449 231 479 300 449 l 443 449 b 729 211 585 449 729 393 b 479 -19 729 83 643 -19 b 242 110 329 -19 261 68 "},"उ":{"ha":799,"x_min":0,"x_max":0,"o":"m -37 1028 l 836 1028 l 836 931 l 667 931 l 667 786 b 513 575 667 671 601 590 l 513 572 b 708 303 633 546 708 435 b 404 4 708 129 596 4 b 71 315 210 4 71 132 l 182 315 b 399 108 182 197 275 108 b 599 311 521 108 599 193 b 389 518 599 408 540 518 l 325 518 l 325 621 l 375 621 b 554 793 494 621 554 694 l 554 931 l -37 931 "},"ऊ":{"ha":1201,"x_min":0,"x_max":0,"o":"m -37 1028 l 1238 1028 l 1238 931 l 667 931 l 667 786 b 513 575 667 671 601 590 l 513 572 l 801 572 b 1122 299 979 572 1122 494 b 853 38 1122 121 1006 38 b 788 43 832 38 810 40 l 788 132 b 835 131 804 131 819 131 b 1011 303 931 131 1011 176 b 801 479 1011 432 914 479 l 650 479 b 708 297 688 431 708 367 b 404 4 708 129 594 4 b 71 315 210 4 71 132 l 182 315 b 399 108 182 197 275 108 b 599 311 521 108 599 193 b 389 518 599 408 540 518 l 325 518 l 325 621 l 375 621 b 554 793 494 621 554 694 l 554 931 l -37 931 "},"ऋ":{"ha":1418,"x_min":0,"x_max":0,"o":"m 692 383 l 313 0 l 168 0 l 168 8 l 692 503 l 692 503 b 467 688 672 608 589 688 b 215 426 318 688 215 586 l 100 426 b 435 786 100 643 235 786 b 692 650 557 786 642 733 l 692 931 l -37 931 l -37 1028 l 1456 1028 l 1456 931 l 800 931 l 800 608 l 1049 608 b 1165 713 1132 608 1165 650 l 1165 794 l 1267 794 l 1267 303 l 1240 303 b 1078 156 1133 303 1078 238 b 1242 13 1078 51 1153 13 b 1321 25 1269 13 1301 19 l 1321 -69 b 1226 -81 1299 -75 1260 -81 b 967 147 1083 -81 967 -7 b 1165 371 967 265 1043 350 l 1165 547 b 1032 515 1129 526 1083 515 l 800 515 l 800 0 l 692 0 "},"ॠ":{"ha":1361,"x_min":0,"x_max":0,"o":"m 692 383 l 313 0 l 168 0 l 168 8 l 692 503 l 692 503 b 467 688 672 608 589 688 b 215 426 318 688 215 586 l 100 426 b 435 786 100 643 235 786 b 692 650 557 786 642 733 l 692 931 l -37 931 l -37 1028 l 1457 1028 l 1457 931 l 800 931 l 800 608 l 1049 608 b 1165 713 1132 608 1165 650 l 1165 794 l 1267 794 l 1267 300 l 1210 300 b 1081 197 1143 300 1081 276 b 1217 96 1081 124 1143 96 l 1282 96 l 1282 8 l 1217 8 b 1079 -97 1147 8 1079 -15 b 1224 -200 1079 -174 1147 -200 b 1358 -178 1278 -200 1333 -186 l 1358 -265 b 1207 -292 1324 -281 1264 -292 b 968 -108 1085 -292 968 -239 b 1094 49 968 -22 1025 33 l 1094 51 b 968 203 1022 68 968 115 b 1165 368 968 325 1075 368 l 1165 547 b 1032 515 1129 526 1083 515 l 800 515 l 800 0 l 692 0 "},"ऌ":{"ha":1250,"x_min":0,"x_max":0,"o":"m -37 1028 l 1286 1028 l 1286 931 l 938 931 l 938 753 b 1153 439 1068 726 1153 610 b 1131 300 1153 389 1146 342 l 1121 300 b 947 153 1001 300 947 235 b 1111 11 947 50 1021 11 b 1192 22 1140 11 1171 15 l 1192 -71 b 1099 -83 1165 -78 1131 -83 b 835 147 951 -83 835 -8 b 1031 365 835 261 914 350 b 1039 440 1036 389 1039 414 b 861 654 1039 560 979 654 b 676 401 736 654 676 551 l 676 376 l 578 376 l 578 401 b 401 654 578 547 521 654 b 214 438 278 654 214 563 b 435 200 214 294 292 200 b 475 203 446 200 461 201 l 475 101 b 428 100 457 100 442 100 b 97 439 210 100 97 242 b 386 758 97 639 217 758 b 625 556 532 758 600 653 l 629 556 b 824 753 651 642 707 732 l 824 931 l -37 931 "},"ॡ":{"ha":1263,"x_min":0,"x_max":0,"o":"m -37 1028 l 1293 1028 l 1293 931 l 938 931 l 938 753 b 1153 439 1068 726 1153 610 b 1131 300 1153 389 1146 342 l 1079 300 b 950 197 1013 300 950 276 b 1086 96 950 124 1013 96 l 1151 96 l 1151 8 l 1086 8 b 949 -97 1017 8 949 -15 b 1092 -200 949 -174 1017 -200 b 1228 -178 1146 -200 1204 -186 l 1228 -265 b 1076 -292 1193 -281 1132 -292 b 838 -107 954 -292 838 -239 b 963 49 838 -22 894 33 l 963 51 b 838 203 892 68 838 115 b 1031 368 838 322 939 365 b 1039 440 1036 390 1039 415 b 861 654 1039 560 979 654 b 676 401 736 654 676 551 l 676 376 l 578 376 l 578 401 b 401 654 578 547 521 654 b 214 438 278 654 214 563 b 435 200 214 294 292 200 b 475 203 446 200 461 201 l 475 101 b 428 100 457 100 442 100 b 97 439 210 100 97 242 b 386 758 97 639 217 758 b 625 556 532 758 600 653 l 629 556 b 824 753 651 642 707 732 l 824 931 l -37 931 "},"ए":{"ha":906,"x_min":0,"x_max":0,"o":"m -37 1028 l 942 1028 l 942 931 l 786 931 l 786 769 b 500 490 786 564 710 468 l 500 593 b 674 772 624 582 674 638 l 674 931 l 257 931 l 257 376 b 475 126 257 221 332 126 b 683 344 607 126 683 207 l 797 344 b 478 26 797 144 675 26 b 143 379 249 26 143 169 l 142 931 l -37 931 "},"ऐ":{"ha":906,"x_min":0,"x_max":0,"o":"m 478 26 b 143 379 249 26 143 169 l 142 931 l -37 931 l -37 1028 l 668 1028 b 346 1268 528 1249 481 1268 l 288 1268 l 288 1363 l 344 1363 b 779 1028 528 1363 599 1338 l 942 1028 l 942 931 l 786 931 l 786 769 b 500 490 786 564 710 468 l 500 593 b 674 772 624 582 674 638 l 674 931 l 257 931 l 257 376 b 475 126 257 221 332 126 b 683 344 607 126 683 207 l 797 344 b 478 26 797 144 675 26 "},"ओ":{"ha":1557,"x_min":0,"x_max":0,"o":"m 888 0 l 888 454 l 668 456 b 693 342 685 421 693 381 b 411 74 693 179 581 74 b 103 356 231 74 103 188 l 211 356 b 403 174 211 250 290 174 b 586 351 515 174 586 246 b 554 456 586 388 576 425 l 550 456 l 549 464 b 392 528 518 501 468 528 l 338 528 l 338 622 l 392 622 b 571 778 513 622 571 701 b 400 942 571 881 494 942 b 221 782 300 942 221 881 l 113 782 b 400 1040 113 942 233 1040 b 675 793 561 1040 675 944 b 506 579 675 689 618 607 l 506 576 b 581 550 533 572 558 563 l 888 550 l 888 1028 l 1293 1028 b 971 1268 1153 1249 1106 1268 l 913 1268 l 913 1363 l 969 1363 b 1404 1028 1153 1363 1224 1338 l 1594 1028 l 1594 931 l 1413 931 l 1413 0 l 1296 0 l 1296 931 l 1003 931 l 1003 0 "},"औ":{"ha":1557,"x_min":0,"x_max":0,"o":"m 888 0 l 888 454 l 668 456 b 693 342 685 421 693 381 b 411 74 693 179 581 74 b 103 356 231 74 103 188 l 211 356 b 403 174 211 250 290 174 b 586 351 515 174 586 246 b 554 456 586 388 576 425 l 550 456 l 549 464 b 392 528 518 501 468 528 l 338 528 l 338 622 l 392 622 b 571 778 513 622 571 701 b 400 942 571 881 494 942 b 221 782 300 942 221 881 l 113 782 b 400 1040 113 942 233 1040 b 675 793 561 1040 675 944 b 506 579 675 689 618 607 l 506 576 b 581 550 533 572 558 563 l 888 550 l 888 1028 l 1300 1028 b 963 1160 1142 1153 1110 1160 l 903 1160 l 903 1235 l 960 1235 b 1278 1121 1099 1235 1144 1232 b 964 1369 1147 1361 1085 1369 l 903 1369 l 903 1446 l 963 1446 b 1403 1028 1144 1446 1199 1429 l 1594 1028 l 1594 931 l 1413 931 l 1413 0 l 1296 0 l 1296 931 l 1003 931 l 1003 0 "},"ऍ":{"ha":906,"x_min":0,"x_max":0,"o":"m -37 1028 l 942 1028 l 942 931 l 786 931 l 786 769 b 500 490 786 564 710 468 l 500 593 b 674 772 624 582 674 638 l 674 931 l 257 931 l 257 376 b 475 126 257 221 332 126 b 683 344 607 126 683 207 l 797 344 b 478 26 797 144 675 26 b 143 379 249 26 143 169 l 142 931 l -37 931 m 457 1163 b 174 1407 260 1163 174 1281 l 275 1407 b 457 1251 275 1331 329 1251 b 639 1407 585 1251 639 1331 l 739 1407 b 457 1163 739 1281 653 1163 "},"ॲ":{"ha":1151,"x_min":0,"x_max":0,"o":"m 392 622 b 571 778 513 622 571 701 b 400 942 571 881 494 942 b 221 782 300 942 221 881 l 113 782 b 400 1040 113 942 233 1040 b 675 793 561 1040 675 944 b 506 579 675 689 618 607 l 506 576 b 581 550 533 572 558 563 l 888 550 l 888 1028 l 1186 1028 l 1186 931 l 1003 931 l 1003 0 l 888 0 l 888 454 l 668 456 b 693 342 685 421 693 381 b 411 74 693 179 581 74 b 103 356 231 74 103 188 l 211 356 b 403 174 211 250 290 174 b 586 351 515 174 586 246 b 554 456 586 388 576 425 l 550 456 l 549 464 b 392 528 518 501 468 528 l 338 528 l 338 622 l 392 622 m 957 1167 b 674 1411 760 1167 674 1285 l 775 1411 b 957 1256 775 1335 829 1256 b 1139 1411 1085 1256 1139 1335 l 1239 1411 b 957 1167 1239 1285 1153 1167 "},"ऑ":{"ha":1557,"x_min":0,"x_max":0,"o":"m 392 622 b 571 778 513 622 571 701 b 400 942 571 881 494 942 b 221 782 300 942 221 881 l 113 782 b 400 1040 113 942 233 1040 b 675 793 561 1040 675 944 b 506 579 675 689 618 607 l 506 576 b 581 550 533 572 558 563 l 888 550 l 888 1028 l 1594 1028 l 1594 931 l 1413 931 l 1413 0 l 1296 0 l 1296 931 l 1003 931 l 1003 0 l 888 0 l 888 454 l 668 456 b 693 342 685 421 693 381 b 411 74 693 179 581 74 b 103 356 231 74 103 188 l 211 356 b 403 174 211 250 290 174 b 586 351 515 174 586 246 b 554 456 586 388 576 425 l 550 456 l 549 464 b 392 528 518 501 468 528 l 338 528 l 338 622 l 392 622 m 1151 1163 b 868 1407 954 1163 868 1281 l 969 1407 b 1151 1251 969 1331 1024 1251 b 1333 1407 1279 1251 1333 1331 l 1433 1407 b 1151 1163 1433 1281 1347 1163 "},"ा":{"ha":408,"x_min":0,"x_max":0,"o":"m 146 931 l -37 931 l -37 1028 l 444 1028 l 444 931 l 263 931 l 263 0 l 146 0 "},"ि":{"ha":408,"x_min":0,"x_max":0,"o":"m 263 0 l 146 0 l 146 931 l -37 931 l -37 1028 l 146 1028 b 681 1383 151 1285 403 1383 b 1214 1024 958 1383 1214 1269 l 1214 1000 l 1097 1000 l 1097 1022 b 681 1288 1097 1224 868 1288 b 261 1028 490 1288 261 1239 l 444 1028 l 444 931 l 263 931 "},"ी":{"ha":408,"x_min":0,"x_max":0,"o":"m -262 1081 b 1 1383 -262 1250 -192 1383 b 263 1081 199 1383 263 1250 l 263 1028 l 444 1028 l 444 931 l 263 931 l 263 0 l 146 0 l 146 931 l -37 931 l -37 1028 l 149 1028 l 149 1086 b 1 1286 149 1183 119 1286 b -149 1086 -118 1286 -149 1183 l -149 1000 l -262 1000 "},"ु":{"ha":0,"x_min":0,"x_max":0,"o":"m -274 -417 b -593 -125 -446 -417 -599 -332 l -489 -125 b -276 -325 -496 -264 -399 -325 b -99 -179 -168 -325 -99 -272 b -229 -51 -99 -112 -144 -51 l -262 -51 l -262 40 l -229 40 b 1 -181 -78 40 1 -56 b -274 -417 1 -328 -104 -417 "},"ू":{"ha":0,"x_min":0,"x_max":0,"o":"m -244 -404 b -474 -190 -372 -404 -474 -329 b -208 38 -474 -50 -365 38 b 131 -350 18 38 131 -126 b 129 -396 131 -365 131 -381 l 33 -396 l 33 -339 b -207 -51 33 -156 -62 -51 b -379 -192 -310 -51 -379 -106 b -237 -319 -379 -271 -317 -319 b -192 -317 -224 -319 -208 -318 l -192 -403 b -244 -404 -210 -404 -226 -404 "},"ृ":{"ha":0,"x_min":0,"x_max":0,"o":"m -190 -431 b -456 -197 -324 -431 -456 -365 b -193 38 -456 -62 -361 38 l -146 38 l -146 -44 l -185 -44 b -343 -193 -287 -44 -343 -110 b -174 -336 -343 -297 -264 -336 b -72 -322 -133 -336 -94 -329 l -72 -412 b -190 -431 -104 -424 -150 -431 "},"ॄ":{"ha":0,"x_min":0,"x_max":0,"o":"m -196 -621 b -435 -439 -318 -621 -435 -569 b -308 -282 -435 -351 -378 -297 l -308 -278 b -433 -128 -381 -261 -433 -215 b -232 38 -433 -4 -326 38 l -146 38 l -146 -29 l -192 -29 b -322 -132 -258 -29 -322 -54 b -186 -235 -322 -206 -260 -235 l -121 -235 l -121 -321 l -185 -321 b -322 -426 -254 -321 -322 -346 b -179 -529 -322 -503 -254 -529 b -43 -508 -124 -529 -68 -517 l -43 -596 b -196 -621 -78 -610 -139 -621 "},"ॢ":{"ha":0,"x_min":0,"x_max":0,"o":"m 143 -643 b -54 -474 33 -643 -54 -587 b 89 -311 -54 -389 3 -324 b 92 -264 92 -296 92 -279 b -32 -111 92 -176 53 -111 b -161 -290 -121 -111 -161 -186 l -161 -308 l -239 -308 l -239 -290 b -365 -111 -239 -185 -279 -111 b -497 -265 -451 -111 -497 -175 b -342 -431 -497 -364 -440 -431 b -312 -428 -333 -431 -319 -431 l -312 -508 b -346 -510 -324 -510 -337 -510 b -589 -264 -506 -510 -589 -407 b -378 -29 -589 -115 -500 -29 b -203 -175 -271 -29 -221 -104 l -200 -175 b -17 -29 -182 -104 -129 -29 b 186 -264 101 -29 186 -118 b 171 -364 186 -299 181 -332 l 163 -364 b 33 -468 75 -364 33 -410 b 153 -569 33 -539 92 -569 b 213 -560 175 -569 197 -565 l 213 -636 b 143 -643 193 -640 168 -643 "},"ॣ":{"ha":0,"x_min":0,"x_max":0,"o":"m 238 -779 b 128 -794 214 -787 169 -794 b -47 -661 36 -794 -47 -758 b 43 -547 -47 -597 -7 -557 l 43 -544 b -47 -432 -10 -532 -47 -494 b 89 -308 -47 -346 22 -311 b 92 -264 92 -294 92 -279 b -32 -111 92 -176 53 -111 b -161 -290 -121 -111 -161 -186 l -161 -308 l -239 -308 l -239 -290 b -365 -111 -239 -185 -279 -111 b -497 -265 -451 -111 -497 -175 b -342 -431 -497 -364 -440 -431 b -312 -428 -333 -431 -319 -431 l -312 -508 b -346 -510 -324 -510 -337 -510 b -589 -264 -506 -510 -589 -407 b -378 -29 -589 -115 -500 -29 b -203 -175 -271 -29 -221 -104 l -200 -175 b -17 -29 -182 -104 -129 -29 b 186 -264 101 -29 186 -118 b 171 -364 186 -299 181 -332 l 131 -364 b 39 -436 83 -364 39 -382 b 136 -508 39 -489 82 -508 l 182 -508 l 182 -579 l 138 -579 b 38 -653 88 -579 38 -593 b 140 -724 38 -706 86 -724 b 238 -708 181 -724 221 -715 l 238 -779 "},"े":{"ha":0,"x_min":0,"x_max":0,"o":"m -257 1022 b -583 1268 -400 1249 -447 1268 l -642 1268 l -642 1363 l -585 1363 b -147 1022 -401 1363 -331 1338 l -257 1022 "},"ै":{"ha":0,"x_min":0,"x_max":0,"o":"m -247 1024 b -590 1160 -411 1153 -442 1160 l -650 1160 l -650 1235 l -593 1235 b -275 1121 -454 1235 -408 1232 b -589 1369 -406 1361 -468 1369 l -650 1369 l -650 1446 l -590 1446 b -147 1024 -408 1446 -354 1429 l -247 1024 "},"ो":{"ha":408,"x_min":0,"x_max":0,"o":"m 146 0 l 146 931 l -37 931 l -37 1028 l 147 1028 b -175 1268 7 1249 -40 1268 l -233 1268 l -233 1363 l -176 1363 b 258 1028 7 1363 78 1338 l 444 1028 l 444 931 l 263 931 l 263 0 "},"ौ":{"ha":408,"x_min":0,"x_max":0,"o":"m 146 0 l 146 931 l -37 931 l -37 1028 l 151 1028 b -186 1160 -7 1153 -39 1160 l -246 1160 l -246 1235 l -189 1235 b 129 1121 -50 1235 -4 1232 b -185 1369 -1 1361 -64 1369 l -246 1369 l -246 1446 l -186 1446 b 254 1028 -4 1446 50 1429 l 444 1028 l 444 931 l 263 931 l 263 0 "},"ॅ":{"ha":0,"x_min":0,"x_max":0,"o":"m -210 1136 b -493 1381 -407 1136 -493 1254 l -392 1381 b -210 1225 -392 1304 -337 1225 b -28 1381 -82 1225 -28 1304 l 72 1381 b -210 1136 72 1254 -14 1136 "},"ॉ":{"ha":408,"x_min":0,"x_max":0,"o":"m 146 931 l -37 931 l -37 1028 l 444 1028 l 444 931 l 263 931 l 263 0 l 146 0 m 204 1136 b -79 1381 7 1136 -79 1254 l 22 1381 b 204 1225 22 1304 76 1225 b 386 1381 332 1225 386 1304 l 486 1381 b 204 1136 486 1254 400 1136 "},"क":{"ha":1382,"x_min":0,"x_max":0,"o":"m 643 281 b 393 136 603 199 521 136 b 97 458 219 136 97 261 b 397 776 97 653 222 776 b 643 635 522 776 603 715 l 643 931 l -37 931 l -37 1028 l 1418 1028 l 1418 931 l 754 931 l 754 629 b 994 776 793 713 871 776 b 1285 461 1164 776 1285 647 b 994 142 1285 258 1160 142 b 908 151 963 142 933 144 l 908 243 b 967 238 925 239 947 238 b 1167 458 1079 238 1167 318 b 963 676 1167 592 1076 676 b 754 447 814 676 754 557 l 754 0 l 643 0 m 429 233 b 643 456 578 233 643 354 b 429 676 643 561 579 676 b 214 458 310 676 214 593 b 429 233 214 317 306 233 "},"ख":{"ha":1296,"x_min":0,"x_max":0,"o":"m 849 279 b 1035 474 979 279 1035 383 b 849 667 1035 564 981 667 b 657 476 744 667 657 597 b 849 279 657 350 742 279 m 826 189 b 774 193 808 189 790 190 b 463 -4 721 85 618 -4 b 115 338 253 -4 115 122 l 115 554 l 165 554 b 363 763 275 554 363 597 l 363 931 l -37 931 l -37 1028 l 1333 1028 l 1333 931 l 1150 931 l 1150 0 l 1035 0 l 1035 303 b 826 189 999 238 931 189 m 465 97 b 679 228 576 97 644 158 b 551 476 600 275 551 363 b 826 757 551 646 671 757 b 1035 644 931 757 999 708 l 1035 931 l 479 931 l 479 749 b 231 468 479 538 364 468 l 231 325 b 465 97 231 189 318 97 "},"ग":{"ha":1036,"x_min":0,"x_max":0,"o":"m 774 931 l 526 931 l 526 556 b 299 311 526 422 461 311 b 67 549 143 311 67 410 l 67 590 l 181 590 l 181 547 b 294 411 181 481 208 411 b 410 551 388 411 410 483 l 410 931 l -37 931 l -37 1028 l 1072 1028 l 1072 931 l 889 931 l 889 0 l 774 0 "},"घ":{"ha":986,"x_min":0,"x_max":0,"o":"m 450 242 b 725 500 603 242 725 347 l 725 931 l 254 931 l 254 829 b 443 663 254 722 307 663 l 508 663 l 508 568 l 435 568 b 232 411 292 568 232 499 b 450 242 232 297 326 242 m -37 1028 l 1024 1028 l 1024 931 l 842 931 l 842 0 l 725 0 l 725 307 b 425 146 668 207 560 146 b 115 400 247 146 115 232 b 299 613 115 522 203 596 l 299 615 b 138 824 211 631 138 689 l 138 931 l -37 931 "},"ङ":{"ha":917,"x_min":0,"x_max":0,"o":"m 817 475 b 744 546 776 475 744 507 b 817 618 744 586 776 618 b 889 546 857 618 889 586 b 817 475 889 507 857 475 m -37 1028 l 953 1028 l 953 931 l 649 931 l 649 679 l 403 679 b 236 564 326 679 236 658 b 383 449 236 478 306 449 l 446 449 b 731 214 586 449 731 392 b 438 -19 731 78 631 -19 b 99 249 229 -19 101 88 l 213 249 b 435 69 214 146 290 69 b 621 215 560 69 621 132 b 426 365 621 331 525 365 l 369 365 b 119 567 253 365 119 410 b 371 763 119 713 244 763 l 536 763 l 536 931 l -37 931 "},"च":{"ha":1021,"x_min":0,"x_max":0,"o":"m -37 1028 l 1057 1028 l 1057 931 l 875 931 l 875 0 l 758 0 l 758 283 b 492 139 707 196 610 139 b 197 417 329 139 197 240 b 322 640 197 515 243 596 l 69 640 l 69 732 l 574 732 l 574 640 l 525 640 b 307 435 392 640 307 551 b 522 236 307 306 406 236 b 758 486 663 236 758 347 l 758 931 l -37 931 "},"छ":{"ha":1135,"x_min":0,"x_max":0,"o":"m -37 1028 l 1172 1028 l 1172 931 l 868 931 l 868 758 b 1071 475 983 738 1071 643 b 553 38 1071 203 863 38 b 101 342 286 38 101 142 b 294 571 101 475 188 551 l 294 575 b 135 785 207 589 135 650 l 135 931 l -37 931 m 554 138 b 967 478 797 138 967 264 b 814 678 967 611 890 678 b 667 517 746 678 667 633 b 690 388 667 478 676 433 l 594 388 b 569 528 578 433 569 481 b 761 760 569 675 658 743 l 761 931 l 249 931 l 249 789 b 432 622 249 682 301 622 l 463 622 l 463 526 l 435 526 b 219 353 282 526 219 447 b 554 138 219 211 347 138 "},"ज":{"ha":1167,"x_min":0,"x_max":0,"o":"m -37 1028 l 1204 1028 l 1204 931 l 1021 931 l 1021 0 l 906 0 l 906 593 l 642 593 l 642 461 b 371 182 642 297 539 182 b 104 461 200 182 104 297 l 104 693 l 221 693 l 221 464 b 372 283 221 357 278 283 b 529 464 469 283 529 357 l 529 693 l 906 693 l 906 931 l -37 931 "},"झ":{"ha":1179,"x_min":0,"x_max":0,"o":"m 919 449 l 919 931 l 646 931 l 646 679 l 400 679 b 231 563 322 679 231 658 b 382 449 231 479 300 449 m 919 360 l 657 361 b 725 200 697 326 725 275 b 486 -10 725 83 647 -10 b 250 107 335 -10 269 75 l 250 -107 l 140 -107 l 140 238 l 244 238 b 454 78 256 151 324 78 b 618 214 568 78 618 142 b 422 365 618 307 551 365 l 349 365 b 114 564 228 368 114 425 b 368 764 114 714 242 764 l 533 764 l 533 931 l -37 931 l -37 1028 l 1217 1028 l 1217 931 l 1033 931 l 1033 0 l 919 0 "},"ञ":{"ha":1125,"x_min":0,"x_max":0,"o":"m -37 1028 l 1161 1028 l 1161 931 l 979 931 l 979 0 l 863 0 l 863 407 l 717 407 b 403 124 700 247 592 124 b 97 365 219 124 115 238 l 207 365 b 404 224 226 293 289 224 b 614 451 543 224 614 329 b 404 678 614 571 543 678 b 207 536 286 678 224 604 l 97 536 b 403 778 114 665 217 778 b 715 507 586 778 694 660 l 863 507 l 863 931 l -37 931 "},"ट":{"ha":903,"x_min":0,"x_max":0,"o":"m -37 1028 l 940 1028 l 940 931 l 644 931 l 644 671 l 504 671 b 213 410 342 671 213 586 b 469 160 213 264 319 160 b 729 421 625 160 729 268 l 840 421 b 472 60 840 206 693 60 b 97 408 254 60 97 201 b 499 769 97 643 263 769 l 531 769 l 531 931 l -37 931 "},"ठ":{"ha":938,"x_min":0,"x_max":0,"o":"m 469 164 b 728 415 621 164 728 268 b 469 665 728 563 621 665 b 213 415 319 665 213 563 b 469 164 213 268 319 164 m 469 65 b 97 415 258 65 97 204 b 411 760 97 611 235 738 l 411 931 l -37 931 l -37 1028 l 975 1028 l 975 931 l 525 931 l 525 761 b 842 415 703 739 842 613 b 469 65 842 204 682 65 "},"ड":{"ha":797,"x_min":0,"x_max":0,"o":"m -37 1028 l 833 1028 l 833 931 l 640 931 l 640 679 l 403 679 b 236 564 326 679 236 658 b 383 449 236 478 306 449 l 446 449 b 731 214 586 449 731 392 b 438 -19 731 78 631 -19 b 99 249 229 -19 101 88 l 213 249 b 435 69 214 146 290 69 b 621 215 560 69 621 132 b 426 365 621 331 525 365 l 369 365 b 119 567 253 365 119 410 b 371 763 119 713 244 763 l 529 763 l 529 931 l -37 931 "},"ढ":{"ha":890,"x_min":0,"x_max":0,"o":"m -37 1028 l 928 1028 l 928 931 l 671 931 l 671 692 l 539 692 b 208 390 351 692 208 594 b 517 97 208 219 329 97 b 750 282 650 97 750 171 b 611 425 750 365 692 425 b 485 303 543 425 485 378 b 489 276 485 294 486 283 l 401 276 b 399 318 400 289 399 306 b 615 510 399 440 493 510 b 850 282 758 510 850 415 b 515 11 850 119 722 11 b 97 393 278 11 97 158 b 506 775 97 649 275 775 l 561 775 l 561 931 l -37 931 "},"ण":{"ha":1189,"x_min":0,"x_max":0,"o":"m 392 353 b 542 521 486 353 542 422 l 542 931 l 240 931 l 240 521 b 392 353 240 422 299 353 m -37 1028 l 1225 1028 l 1225 931 l 1042 931 l 1042 0 l 926 0 l 926 931 l 656 931 l 656 532 b 390 254 656 371 564 254 b 126 532 218 254 126 375 l 126 931 l -37 931 "},"त":{"ha":964,"x_min":0,"x_max":0,"o":"m -37 1028 l 1001 1028 l 1001 931 l 818 931 l 818 0 l 701 0 l 701 592 l 499 592 b 214 344 326 592 214 511 b 474 96 214 188 304 96 l 504 96 l 504 3 l 458 3 b 97 346 244 3 97 117 b 493 692 97 586 264 692 l 701 692 l 701 931 l -37 931 "},"थ":{"ha":1064,"x_min":0,"x_max":0,"o":"m 801 318 b 486 138 765 229 660 138 b 110 515 253 138 110 283 b 114 589 110 540 111 564 l 251 589 b 538 786 392 589 538 625 b 388 940 538 872 482 940 b 232 779 290 940 232 876 b 238 719 232 760 235 739 l 132 719 b 126 783 129 739 126 764 b 389 1040 126 944 236 1040 b 646 783 544 1040 646 933 b 292 504 646 590 497 504 b 221 504 264 504 240 504 b 503 235 222 346 314 235 b 801 526 665 235 801 343 l 801 1028 l 1101 1028 l 1101 931 l 918 931 l 918 0 l 801 0 "},"द":{"ha":846,"x_min":0,"x_max":0,"o":"m -37 1028 l 883 1028 l 882 931 l 682 931 l 682 678 l 476 678 b 215 449 332 678 215 601 b 433 231 215 317 300 231 b 631 419 525 231 631 288 l 738 419 l 738 -22 l 624 -22 l 624 244 b 403 138 585 179 501 138 b 97 453 225 138 97 253 b 467 778 97 671 263 778 l 567 778 l 567 931 l -37 931 "},"ध":{"ha":989,"x_min":0,"x_max":0,"o":"m 424 136 b 122 378 256 136 122 218 b 292 579 122 500 210 567 l 292 583 b 113 811 201 604 113 676 b 350 1040 113 946 210 1040 b 581 819 496 1040 581 947 b 579 774 581 808 581 789 l 490 774 b 492 807 492 792 492 800 b 354 943 492 882 443 943 b 214 800 265 943 214 879 b 425 631 214 693 299 631 l 504 631 l 504 536 l 429 536 b 240 389 303 536 240 475 b 450 233 240 282 332 233 b 733 517 613 233 733 347 l 733 1028 l 1031 1028 l 1031 931 l 850 931 l 850 0 l 733 0 l 733 306 b 424 136 678 200 568 136 "},"न":{"ha":1096,"x_min":0,"x_max":0,"o":"m 371 261 b 546 432 472 261 546 332 b 371 603 546 531 472 603 b 193 431 267 603 193 532 b 371 261 193 331 265 261 m -37 1028 l 1133 1028 l 1133 931 l 950 931 l 950 0 l 835 0 l 835 603 l 564 603 b 639 418 607 561 639 499 b 369 163 639 258 522 163 b 88 431 210 163 88 267 b 379 700 88 601 214 700 l 835 700 l 835 931 l -37 931 "},"प":{"ha":910,"x_min":0,"x_max":0,"o":"m 443 372 b 649 588 575 372 649 471 l 649 931 l 233 931 l 233 618 b 443 372 233 468 299 372 m -37 1028 l 946 1028 l 946 931 l 764 931 l 764 0 l 649 0 l 649 393 b 415 274 604 319 525 274 b 118 618 217 274 118 413 l 118 931 l -37 931 "},"फ":{"ha":1368,"x_min":0,"x_max":0,"o":"m 429 372 b 622 582 554 372 622 469 l 622 931 l 233 931 l 233 613 b 429 372 233 465 294 372 m -37 1028 l 1406 1028 l 1406 931 l 738 931 l 738 631 b 983 776 776 714 857 776 b 1272 464 1151 776 1272 649 b 982 142 1272 260 1149 142 b 893 153 951 142 917 146 l 893 243 b 956 236 911 239 935 236 b 1156 458 1069 236 1156 319 b 950 676 1156 592 1065 676 b 738 435 799 676 738 553 l 738 0 l 622 0 l 622 390 b 403 274 579 318 506 274 b 118 613 214 274 118 408 l 118 931 l -37 931 "},"ब":{"ha":957,"x_min":0,"x_max":0,"o":"m 700 272 b 435 126 657 190 567 126 b 97 458 247 126 97 256 b 431 790 97 660 243 790 b 700 643 564 790 654 724 l 700 931 l -37 931 l -37 1028 l 993 1028 l 993 931 l 811 931 l 811 0 l 700 0 m 453 711 b 282 650 388 711 326 689 l 661 317 b 704 461 690 360 704 413 b 453 711 704 582 622 711 m 456 213 b 626 275 529 213 586 238 l 244 608 b 200 458 217 568 200 517 b 456 213 200 303 317 213 "},"भ":{"ha":1104,"x_min":0,"x_max":0,"o":"m 361 239 b 506 422 453 239 506 307 l 506 535 l 378 535 b 214 386 281 535 214 479 b 361 239 214 296 276 239 m 363 140 b 106 386 208 140 106 239 b 375 631 106 544 222 631 l 506 631 l 506 761 b 378 940 506 869 467 940 b 250 794 303 940 250 886 b 256 742 250 779 251 761 l 140 742 b 135 799 138 760 135 781 b 374 1040 135 943 222 1040 b 614 743 547 1040 614 918 l 614 631 l 842 631 l 842 1028 l 1142 1028 l 1142 931 l 957 931 l 957 0 l 842 0 l 842 535 l 614 535 l 614 428 b 363 140 614 243 524 140 "},"म":{"ha":1092,"x_min":0,"x_max":0,"o":"m 322 239 b 467 422 413 239 467 307 l 467 535 l 338 535 b 175 386 243 535 175 479 b 322 239 175 296 238 239 m 829 931 l 575 931 l 575 631 l 829 631 m -37 1028 l 1128 1028 l 1128 931 l 946 931 l 946 0 l 829 0 l 829 535 l 575 535 l 575 428 b 322 140 575 243 485 140 b 67 386 168 140 67 239 b 335 631 67 544 182 631 l 467 631 l 467 931 l -37 931 "},"य":{"ha":1024,"x_min":0,"x_max":0,"o":"m 486 253 b 763 514 642 253 763 358 l 763 931 l 483 931 l 483 815 b 210 546 483 636 385 553 b 210 536 210 543 210 539 b 486 253 210 363 311 253 m -37 1028 l 1061 1028 l 1061 931 l 878 931 l 878 0 l 763 0 l 763 304 b 463 156 713 221 613 156 b 96 547 226 156 96 310 b 100 613 96 567 97 590 l 119 613 b 368 835 276 613 368 668 l 368 931 l -37 931 "},"र":{"ha":743,"x_min":0,"x_max":0,"o":"m -37 1028 l 781 1028 l 781 931 l 614 931 l 614 797 b 300 471 614 592 515 471 l 229 471 l 229 281 b 388 88 229 168 279 88 b 546 267 486 88 546 160 l 546 293 l 657 293 l 657 269 b 390 -12 657 99 557 -12 b 115 288 206 -12 115 114 l 115 565 l 261 565 b 499 797 419 565 499 643 l 499 931 l -37 931 "},"ल":{"ha":1256,"x_min":0,"x_max":0,"o":"m 828 96 b 781 99 814 96 799 97 l 781 200 b 821 197 796 199 810 197 b 1042 433 964 197 1042 296 b 861 651 1042 556 982 651 b 676 397 736 651 676 547 l 676 376 l 578 376 l 578 397 b 401 651 578 544 521 651 b 214 433 278 651 214 558 b 435 197 214 296 292 197 b 475 200 446 197 461 199 l 475 99 b 428 96 457 97 442 96 b 97 436 210 96 97 242 b 386 754 97 635 217 754 b 626 553 533 754 601 650 l 631 553 b 836 751 653 642 711 735 l 836 931 l -37 931 l -37 1028 l 1292 1028 l 1292 931 l 950 931 l 950 746 b 1158 436 1076 715 1158 603 b 828 96 1158 242 1046 96 "},"व":{"ha":936,"x_min":0,"x_max":0,"o":"m 443 226 b 678 456 606 226 678 351 l 678 457 b 443 688 678 567 606 688 b 211 458 314 688 211 600 b 443 226 211 314 310 226 m 790 931 l 790 0 l 678 0 l 678 279 b 414 133 632 194 543 133 b 97 463 226 133 97 263 b 414 782 97 653 229 782 b 678 636 544 782 633 721 l 678 931 l -37 931 l -37 1028 l 974 1028 l 974 931 "},"श":{"ha":1131,"x_min":0,"x_max":0,"o":"m 421 -11 b 125 300 228 -11 125 113 l 125 543 l 328 543 b 594 754 475 543 594 608 b 424 939 594 868 529 939 b 251 756 318 939 251 868 b 256 694 251 735 253 715 l 140 694 b 135 758 138 717 135 736 b 424 1040 135 926 247 1040 b 713 747 594 1040 713 935 b 367 444 713 544 563 444 l 242 444 l 242 292 b 418 89 242 176 293 89 b 583 275 522 89 583 164 l 583 293 l 696 293 l 696 274 b 421 -11 696 97 590 -11 m 868 1028 l 1168 1028 l 1168 931 l 985 931 l 985 0 l 868 0 "},"ष":{"ha":918,"x_min":0,"x_max":0,"o":"m 658 931 l 229 931 l 658 585 l 658 585 m 444 365 b 644 501 550 365 618 422 l 229 838 l 229 615 b 444 365 229 463 297 365 m -37 1028 l 956 1028 l 956 931 l 772 931 l 772 0 l 658 0 l 658 386 b 422 267 614 313 536 267 b 118 618 219 267 118 407 l 118 931 l -37 931 "},"स":{"ha":1138,"x_min":0,"x_max":0,"o":"m 596 804 b 511 581 596 706 564 629 l 876 581 l 876 931 l 596 931 l 596 804 m -37 1028 l 1175 1028 l 1175 931 l 990 931 l 990 0 l 876 0 l 876 485 l 229 485 l 229 282 b 390 88 229 169 279 88 b 550 267 490 88 550 160 l 550 283 l 661 283 b 663 261 663 274 663 265 b 392 -12 663 94 560 -12 b 115 288 207 -12 115 115 l 115 571 l 243 571 b 482 804 403 571 482 663 l 482 931 l -37 931 "},"ह":{"ha":814,"x_min":0,"x_max":0,"o":"m 733 86 b 425 -144 714 -36 607 -144 b 104 163 218 -144 104 -10 b 254 424 104 279 160 374 b 138 592 189 451 138 507 b 363 768 138 710 232 768 l 544 768 l 544 931 l -37 931 l -37 1028 l 850 1028 l 850 931 l 654 931 l 654 683 l 400 683 b 251 571 322 683 251 654 b 350 457 251 513 293 474 b 428 464 374 461 400 464 b 733 235 621 464 714 351 l 622 235 b 425 371 607 297 544 371 b 218 161 292 371 218 276 b 425 -47 218 43 292 -47 b 622 86 540 -47 604 22 l 733 86 "},"ळ":{"ha":1386,"x_min":0,"x_max":0,"o":"m 424 232 b 635 444 550 232 635 319 b 424 663 635 572 551 663 b 210 443 300 663 210 576 b 424 232 210 317 301 232 m 961 232 b 1175 443 1085 232 1175 317 b 963 663 1175 576 1086 663 b 750 444 835 663 750 572 b 961 232 750 319 835 232 m 976 132 b 694 326 833 132 729 217 l 690 326 b 408 132 656 217 553 132 b 97 444 232 132 97 258 b 407 763 97 638 233 763 b 690 571 554 763 647 679 l 694 571 b 936 760 733 669 814 746 l 936 931 l -37 931 l -37 1028 l 1421 1028 l 1421 931 l 1050 931 l 1050 754 b 1289 444 1189 725 1289 610 b 976 132 1289 258 1153 132 "},"क़":{"ha":1382,"x_min":0,"x_max":0,"o":"m 643 281 b 393 136 603 199 521 136 b 97 458 219 136 97 261 b 397 776 97 653 222 776 b 643 635 522 776 603 715 l 643 931 l -37 931 l -37 1028 l 1418 1028 l 1418 931 l 754 931 l 754 629 b 994 776 793 713 871 776 b 1285 461 1164 776 1285 647 b 994 142 1285 258 1160 142 b 908 151 963 142 933 144 l 908 243 b 967 238 925 239 947 238 b 1167 458 1079 238 1167 318 b 963 676 1167 592 1076 676 b 754 447 814 676 754 557 l 754 0 l 643 0 m 374 -132 b 296 -56 329 -132 296 -99 b 374 24 296 -11 329 24 b 451 -56 418 24 451 -11 b 374 -132 451 -99 418 -132 m 429 233 b 643 456 578 233 643 354 b 429 676 643 561 579 676 b 214 458 310 676 214 593 b 429 233 214 317 306 233 "},"ख़":{"ha":1296,"x_min":0,"x_max":0,"o":"m 826 189 b 774 193 808 189 790 190 b 463 -4 721 85 618 -4 b 115 338 253 -4 115 122 l 115 554 l 165 554 b 363 763 275 554 363 597 l 363 931 l -37 931 l -37 1028 l 1333 1028 l 1333 931 l 1150 931 l 1150 0 l 1035 0 l 1035 303 b 826 189 999 238 931 189 m 439 -268 b 361 -192 394 -268 361 -235 b 439 -112 361 -147 394 -112 b 517 -192 483 -112 517 -147 b 439 -268 517 -235 483 -268 m 849 279 b 1035 474 979 279 1035 383 b 849 667 1035 564 981 667 b 657 476 744 667 657 597 b 849 279 657 350 742 279 m 465 97 b 679 228 576 97 644 158 b 551 476 600 275 551 363 b 826 757 551 646 671 757 b 1035 644 931 757 999 708 l 1035 931 l 479 931 l 479 749 b 231 468 479 538 364 468 l 231 325 b 465 97 231 189 318 97 "},"ग़":{"ha":1035,"x_min":0,"x_max":0,"o":"m 774 931 l 526 931 l 526 556 b 299 311 526 422 461 311 b 67 549 143 311 67 410 l 67 590 l 181 590 l 181 547 b 294 411 181 481 208 411 b 410 551 388 411 410 483 l 410 931 l -37 931 l -37 1028 l 1072 1028 l 1072 931 l 889 931 l 889 0 l 774 0 m 304 39 b 226 115 260 39 226 72 b 304 194 226 160 260 194 b 382 115 349 194 382 160 b 304 39 382 72 349 39 "},"ज़":{"ha":1167,"x_min":0,"x_max":0,"o":"m -37 1028 l 1204 1028 l 1204 931 l 1021 931 l 1021 0 l 906 0 l 906 593 l 642 593 l 642 461 b 371 182 642 297 539 182 b 104 461 200 182 104 297 l 104 693 l 221 693 l 221 464 b 372 283 221 357 278 283 b 529 464 469 283 529 357 l 529 693 l 906 693 l 906 931 l -37 931 m 376 -83 b 299 -7 332 -83 299 -50 b 376 72 299 38 332 72 b 454 -7 421 72 454 38 b 376 -83 454 -50 421 -83 "},"ड़":{"ha":797,"x_min":0,"x_max":0,"o":"m -37 1028 l 833 1028 l 833 931 l 640 931 l 640 679 l 403 679 b 236 564 326 679 236 658 b 383 449 236 478 306 449 l 446 449 b 731 214 586 449 731 392 b 438 -19 731 78 631 -19 b 99 249 229 -19 101 88 l 213 249 b 435 69 214 146 290 69 b 621 215 560 69 621 132 b 426 365 621 331 525 365 l 369 365 b 119 567 253 365 119 410 b 371 763 119 713 244 763 l 529 763 l 529 931 l -37 931 m 431 -286 b 353 -210 386 -286 353 -253 b 431 -131 353 -165 386 -131 b 508 -210 475 -131 508 -165 b 431 -286 508 -253 475 -286 "},"ढ़":{"ha":890,"x_min":0,"x_max":0,"o":"m -37 1028 l 928 1028 l 928 931 l 671 931 l 671 692 l 539 692 b 208 390 351 692 208 594 b 517 97 208 219 329 97 b 750 282 650 97 750 171 b 611 425 750 365 692 425 b 485 303 543 425 485 378 b 489 276 485 294 486 283 l 401 276 b 399 318 400 289 399 306 b 615 510 399 440 493 510 b 850 282 758 510 850 415 b 515 11 850 119 722 11 b 97 393 278 11 97 158 b 506 775 97 649 275 775 l 561 775 l 561 931 l -37 931 m 482 -254 b 404 -178 438 -254 404 -221 b 482 -99 404 -133 438 -99 b 560 -178 526 -99 560 -133 b 482 -254 560 -221 526 -254 "},"फ़":{"ha":1368,"x_min":0,"x_max":0,"o":"m 429 372 b 622 582 554 372 622 469 l 622 931 l 233 931 l 233 613 b 429 372 233 465 294 372 m -37 1028 l 1406 1028 l 1406 931 l 738 931 l 738 631 b 983 776 776 714 857 776 b 1272 464 1151 776 1272 649 b 982 142 1272 260 1149 142 b 893 153 951 142 917 146 l 893 243 b 956 236 911 239 935 236 b 1156 458 1069 236 1156 319 b 950 676 1156 592 1065 676 b 738 435 799 676 738 553 l 738 0 l 622 0 l 622 390 b 403 274 579 318 506 274 b 118 613 214 274 118 408 l 118 931 l -37 931 m 361 13 b 283 89 317 13 283 46 b 361 168 283 133 317 168 b 439 89 406 168 439 133 b 361 13 439 46 406 13 "},"ऱ":{"ha":743,"x_min":0,"x_max":0,"o":"m -37 1028 l 781 1028 l 781 931 l 614 931 l 614 797 b 300 471 614 592 515 471 l 229 471 l 229 281 b 388 88 229 168 279 88 b 546 267 486 88 546 160 l 546 293 l 657 293 l 657 269 b 390 -12 657 99 557 -12 b 115 288 206 -12 115 114 l 115 565 l 261 565 b 499 797 419 565 499 643 l 499 931 l -37 931 m 160 -222 b 82 -146 115 -222 82 -189 b 160 -67 82 -101 115 -67 b 238 -146 204 -67 238 -101 b 160 -222 238 -189 204 -222 "},"ं":{"ha":0,"x_min":0,"x_max":0,"o":"m -204 1160 b -283 1238 -249 1160 -283 1194 b -204 1315 -283 1281 -249 1315 b -126 1238 -161 1315 -126 1281 b -204 1160 -126 1194 -161 1160 "},"ँ":{"ha":0,"x_min":0,"x_max":0,"o":"m -210 1136 b -493 1381 -400 1136 -493 1249 l -397 1381 b -210 1221 -397 1303 -337 1221 b -22 1381 -82 1221 -22 1303 l 72 1381 b -210 1136 72 1249 -21 1136 m -210 1364 b -267 1421 -242 1364 -267 1389 b -210 1479 -267 1453 -242 1479 b -151 1421 -176 1479 -151 1453 b -210 1364 -151 1389 -176 1364 "},"ः":{"ha":322,"x_min":0,"x_max":0,"o":"m 161 606 b 82 683 118 606 82 639 b 161 761 82 726 118 761 b 240 683 206 761 240 726 b 161 606 240 639 206 606 m 161 183 b 82 261 118 183 82 218 b 161 339 82 304 118 339 b 240 261 206 339 240 304 b 161 183 240 218 206 183 "},"ऽ":{"ha":800,"x_min":0,"x_max":0,"o":"m 106 185 l 429 185 b 544 272 507 185 544 222 b 186 765 544 424 186 538 b 396 933 186 888 281 933 l 678 933 l 678 835 l 422 835 b 304 750 360 835 304 819 b 663 257 304 594 663 481 b 457 85 663 161 593 85 l 106 85 "},"्":{"ha":0,"x_min":0,"x_max":0,"o":"m -258 -85 l -142 -85 l 31 -361 l -89 -361 "},"़":{"ha":0,"x_min":0,"x_max":0,"o":"m -499 -206 b -576 -129 -543 -206 -576 -172 b -499 -50 -576 -85 -543 -50 b -421 -129 -454 -50 -421 -85 b -499 -206 -421 -172 -454 -206 "},"०":{"ha":872,"x_min":0,"x_max":0,"o":"m 86 513 b 436 1019 86 800 158 1019 b 785 513 713 1019 785 800 b 436 0 785 221 713 0 b 86 513 158 0 86 221 m 660 513 b 436 904 660 721 633 904 b 211 513 238 904 211 721 b 436 115 211 296 238 115 b 660 513 633 115 660 296 "},"१":{"ha":444,"x_min":0,"x_max":0,"o":"m 186 889 l 53 889 l 53 1004 l 314 1004 l 314 0 l 186 0 "},"२":{"ha":799,"x_min":0,"x_max":0,"o":"m 71 101 b 585 719 335 314 585 514 b 400 914 585 831 536 914 b 197 697 269 914 203 824 l 75 697 b 399 1022 83 911 218 1022 b 710 725 588 1022 710 911 b 261 117 710 475 440 263 l 739 117 l 739 11 l 71 11 "},"३":{"ha":818,"x_min":0,"x_max":0,"o":"m 83 751 b 413 1024 96 924 226 1024 b 715 765 608 1024 715 910 b 538 536 715 650 643 560 l 538 529 b 733 271 654 501 733 415 b 415 -7 733 115 625 -7 b 68 289 225 -7 83 94 l 190 289 b 414 100 203 182 281 100 b 613 282 549 100 613 179 b 333 478 613 424 514 478 l 301 478 l 301 583 l 335 583 b 593 753 503 585 593 636 b 408 915 593 849 529 915 b 207 751 290 915 219 849 l 83 751 "},"४":{"ha":874,"x_min":0,"x_max":0,"o":"m 569 224 l 56 224 l 56 319 l 543 994 l 694 994 l 694 333 l 833 333 l 833 224 l 694 224 l 694 0 l 569 0 m 575 333 l 575 863 l 201 333 "},"५":{"ha":872,"x_min":0,"x_max":0,"o":"m 726 1006 l 726 894 l 239 894 l 239 578 b 468 679 281 635 369 679 b 790 347 713 679 790 503 b 447 -3 790 153 682 -3 b 101 272 247 -3 126 110 l 225 272 b 449 104 249 167 331 104 b 669 344 601 104 669 207 b 450 571 669 488 596 571 b 242 439 349 571 275 518 l 122 439 l 122 1006 "},"६":{"ha":882,"x_min":0,"x_max":0,"o":"m 646 765 b 456 919 626 863 569 919 b 211 511 296 919 210 810 b 483 665 254 610 364 665 b 797 331 671 665 797 542 b 469 -3 797 147 689 -3 b 101 515 172 -3 101 211 b 457 1025 101 831 203 1025 b 763 765 649 1025 746 906 m 457 558 b 226 340 342 558 226 490 b 463 103 226 207 304 103 b 675 326 593 103 675 190 b 457 558 675 468 601 558 "},"७":{"ha":758,"x_min":0,"x_max":0,"o":"m 704 1001 l 704 906 l 318 0 l 190 0 l 582 893 l 46 893 l 46 1001 "},"८":{"ha":876,"x_min":0,"x_max":0,"o":"m 269 522 b 108 753 167 563 108 640 b 438 1019 108 900 219 1019 b 768 753 656 1019 768 899 b 607 522 768 644 706 561 b 794 271 721 488 794 396 b 438 -28 794 89 650 -28 b 83 271 226 -28 83 89 b 269 522 83 397 157 489 m 438 564 b 646 738 561 564 646 633 b 438 914 646 853 564 914 b 231 736 314 914 231 854 b 438 564 231 632 315 564 m 438 467 b 204 275 308 467 204 408 b 438 78 204 157 294 78 b 669 275 581 78 669 158 b 438 467 669 404 569 467 "},"९":{"ha":875,"x_min":0,"x_max":0,"o":"m 249 269 b 450 104 267 165 333 104 b 672 499 597 104 676 204 b 424 365 632 414 532 365 b 101 693 239 365 101 481 b 432 1024 101 885 215 1024 b 783 521 704 1024 783 832 b 443 -1 783 186 707 -1 b 132 269 243 -1 146 122 m 444 472 b 657 686 565 472 657 551 b 435 918 657 822 579 918 b 222 696 304 918 222 829 b 444 472 222 567 294 472 "},"ॐ":{"ha":1467,"x_min":0,"x_max":0,"o":"m 418 17 b 110 299 236 17 110 131 l 219 299 b 411 117 219 193 299 117 b 594 304 525 117 594 193 b 399 485 594 389 542 485 l 344 485 l 344 583 l 399 583 b 579 747 521 583 579 665 b 406 919 579 856 501 919 b 229 761 307 919 229 860 l 121 761 b 407 1018 121 919 240 1018 b 686 763 571 1018 686 918 b 515 539 686 653 629 565 l 515 535 b 572 517 536 531 556 525 l 656 517 b 815 679 756 517 815 553 b 1076 953 815 842 882 953 b 1347 610 1275 953 1347 828 l 1347 421 b 994 35 1347 169 1243 35 b 858 49 951 35 907 40 l 858 146 b 975 135 901 139 942 135 b 1235 424 1176 135 1235 240 l 1235 624 b 1076 854 1235 765 1196 854 b 924 678 961 854 924 775 b 672 425 924 493 844 425 l 669 425 b 703 293 692 386 703 340 b 418 17 703 125 588 17 m 800 1033 b 517 1278 610 1033 517 1146 l 611 1278 b 800 1119 611 1201 672 1119 b 988 1278 926 1119 988 1201 l 1082 1278 b 800 1033 1082 1146 989 1033 m 800 1261 b 743 1319 767 1261 743 1286 b 800 1378 743 1351 767 1378 b 858 1319 833 1378 858 1351 b 800 1261 858 1286 833 1261 "},"॰":{"ha":685,"x_min":0,"x_max":0,"o":"m 346 708 b 574 482 479 708 574 615 b 346 260 574 353 479 260 b 113 485 210 260 113 354 b 346 708 113 615 210 708 m 346 636 b 186 485 253 636 186 574 b 346 333 186 396 253 333 b 497 482 435 333 497 394 b 346 636 497 572 435 636 "},"।":{"ha":392,"x_min":0,"x_max":0,"o":"m 332 0 l 218 0 l 218 1029 l 332 1029 "},"॥":{"ha":685,"x_min":0,"x_max":0,"o":"m 332 0 l 218 0 l 218 1029 l 332 1029 m 625 0 l 510 0 l 510 1029 l 625 1029 "},"₨":{"ha":1540,"x_min":0,"x_max":0,"o":"m 625 683 b 419 868 625 796 564 868 l 233 868 l 233 500 l 419 500 b 625 683 564 500 625 575 m 419 968 b 754 683 647 968 754 842 b 503 406 754 554 682 435 l 768 0 l 614 0 l 358 400 l 233 400 l 233 0 l 107 0 l 107 968 m 850 550 b 1133 774 850 674 956 774 b 1417 532 1299 774 1407 682 l 1288 532 b 1125 672 1281 614 1228 672 b 974 554 1028 672 974 622 b 1426 206 974 358 1426 496 b 1147 -12 1426 78 1310 -12 b 846 231 976 -12 858 75 l 976 231 b 1147 89 983 147 1044 89 b 1301 208 1247 89 1301 139 b 850 550 1301 406 850 274 "},"₹":{"ha":882,"x_min":0,"x_max":0,"o":"m 71 969 l 826 969 l 826 876 l 647 876 l 647 750 b 647 726 647 742 647 733 l 826 726 l 826 635 l 640 635 b 251 383 615 446 511 383 l 251 274 b 415 86 251 164 294 86 b 576 267 531 86 576 156 l 693 267 b 414 -14 692 79 590 -14 b 133 276 228 -14 133 96 l 133 472 b 522 635 425 472 504 489 l 71 635 l 71 726 l 528 726 b 528 751 528 735 528 743 l 528 876 l 71 876 "},"‌":{"ha":0,"x_min":0,"x_max":0,"o":"m -32 -319 l -32 1126 l 33 1126 l 33 -319 "},"‍":{"ha":0,"x_min":0,"x_max":0,"o":"m 132 778 l 32 882 l 32 -319 l -33 -319 l -33 882 l -129 781 l -175 826 l -46 956 l -178 1088 l -132 1133 l 0 1001 l 133 1133 l 178 1089 l 44 956 l 178 824 "},"◌":{"ha":904,"x_min":0,"x_max":0,"o":"m 774 568 b 714 510 774 533 749 510 b 654 568 679 510 654 533 b 714 626 654 603 679 626 b 774 568 749 626 774 603 m 251 171 b 192 113 251 136 226 113 b 132 171 157 113 132 136 b 192 229 132 206 157 229 b 251 171 226 229 251 206 m 388 65 b 328 7 388 31 363 7 b 268 65 293 7 268 31 b 328 124 268 100 293 124 b 388 65 363 124 388 100 m 189 328 b 129 269 189 293 164 269 b 69 328 94 269 69 293 b 129 386 69 363 94 386 b 189 328 164 386 189 363 m 560 46 b 500 -12 560 11 535 -12 b 440 46 465 -12 440 11 b 500 104 440 81 465 104 b 560 46 535 104 560 81 m 210 496 b 150 438 210 461 185 438 b 90 496 115 438 90 461 b 150 554 90 531 115 554 b 210 496 185 554 210 531 m 719 110 b 660 51 719 75 694 51 b 600 110 625 51 600 75 b 660 168 600 144 625 168 b 719 110 694 168 719 144 m 315 633 b 256 575 315 599 290 575 b 196 633 221 575 196 599 b 256 692 196 668 221 692 b 315 633 290 692 315 668 m 821 243 b 761 185 821 208 796 185 b 701 243 726 185 701 208 b 761 301 701 278 726 301 b 821 243 796 301 821 278 m 478 692 b 418 633 478 657 453 633 b 358 692 383 633 358 657 b 418 750 358 726 383 750 b 478 692 453 750 478 726 m 835 410 b 775 351 835 375 810 351 b 715 410 740 351 715 375 b 775 468 715 444 740 468 b 835 410 810 468 835 444 m 646 671 b 586 613 646 636 621 613 b 526 671 551 613 526 636 b 586 729 526 706 551 729 b 646 671 621 729 646 706 "},"!":{"ha":414,"x_min":0,"x_max":0,"o":"m 135 968 l 271 968 l 256 274 l 150 274 m 292 78 b 208 -8 292 29 254 -8 b 122 78 160 -8 122 29 b 208 164 122 126 160 164 b 292 78 254 164 292 126 "},"\"":{"ha":406,"x_min":0,"x_max":0,"o":"m 49 1106 l 168 1106 l 153 829 l 65 829 m 236 1106 l 356 1106 l 340 829 l 253 829 "},"#":{"ha":1167,"x_min":0,"x_max":0,"o":"m 753 639 l 461 639 l 408 389 l 700 389 m 676 278 l 385 278 l 325 0 l 204 0 l 264 278 l 46 278 l 46 389 l 288 389 l 340 639 l 125 639 l 125 750 l 364 750 l 424 1028 l 544 1028 l 485 750 l 776 750 l 836 1028 l 957 1028 l 897 750 l 1090 750 l 1090 639 l 874 639 l 821 389 l 1013 389 l 1013 278 l 797 278 l 738 0 l 617 0 "},"$":{"ha":864,"x_min":0,"x_max":0,"o":"m 371 -8 b 85 251 204 7 88 104 l 219 251 b 371 96 226 179 272 111 l 371 443 b 83 711 232 479 83 519 b 371 979 83 861 197 968 l 371 1094 l 446 1094 l 446 979 b 719 732 604 965 706 872 l 585 732 b 446 872 576 792 531 854 l 446 533 b 732 265 583 499 732 458 b 446 -8 732 136 635 4 l 446 -121 l 371 -121 m 606 258 b 446 422 606 357 535 396 l 446 94 b 606 258 549 106 606 175 m 213 718 b 371 554 213 619 282 582 l 371 875 b 213 718 278 867 213 817 "},"%":{"ha":1054,"x_min":0,"x_max":0,"o":"m 58 778 b 261 985 58 907 146 985 b 464 778 378 985 464 907 b 261 569 464 647 378 569 b 58 778 146 569 58 647 m 261 907 b 160 778 200 907 160 865 b 261 647 160 692 200 647 b 364 778 322 647 364 692 b 261 907 364 865 322 907 m 744 969 l 869 969 l 307 0 l 182 0 m 590 192 b 793 400 590 322 676 400 b 994 192 908 400 994 322 b 793 -17 994 63 908 -17 b 590 192 676 -17 590 63 m 792 321 b 689 192 731 321 689 279 b 792 64 689 106 731 64 b 894 192 853 64 894 106 b 792 321 894 279 853 321 "},"&":{"ha":1026,"x_min":0,"x_max":0,"o":"m 564 761 b 446 883 567 840 514 883 b 322 772 371 883 322 836 b 422 596 322 715 354 668 l 711 306 b 736 344 719 318 728 331 l 831 503 l 967 503 l 853 306 b 797 218 835 274 817 246 l 1015 0 l 850 0 l 724 128 b 390 -17 631 31 526 -17 b 51 278 189 -17 51 99 b 279 578 51 411 128 518 b 196 772 219 647 196 701 b 451 988 196 896 294 988 b 690 761 604 988 697 890 m 390 92 b 640 211 490 92 568 131 l 356 497 b 178 282 235 451 178 379 b 390 92 178 174 264 92 "},"'":{"ha":221,"x_min":0,"x_max":0,"o":"m 49 1106 l 171 1106 l 154 829 l 67 829 "},"(":{"ha":631,"x_min":0,"x_max":0,"o":"m 432 -258 b 150 508 256 -85 150 196 b 453 1297 150 822 256 1115 l 585 1297 l 585 1285 b 272 508 371 1083 272 792 b 564 -246 272 226 371 -47 l 564 -258 "},")":{"ha":631,"x_min":0,"x_max":0,"o":"m 199 -258 b 481 508 375 -85 481 196 b 178 1297 481 822 375 1115 l 46 1297 l 46 1285 b 358 508 260 1083 358 792 b 67 -246 358 226 260 -47 l 67 -258 "},"*":{"ha":675,"x_min":0,"x_max":0,"o":"m 368 808 l 538 931 l 588 840 l 394 760 l 589 681 l 536 588 l 368 710 l 390 500 l 286 500 l 307 710 l 139 586 l 85 681 l 278 761 l 85 839 l 136 932 l 308 808 l 286 1019 l 392 1019 "},"+":{"ha":949,"x_min":0,"x_max":0,"o":"m 533 863 l 533 561 l 829 561 l 829 454 l 533 454 l 533 154 l 415 154 l 415 454 l 121 454 l 121 561 l 415 561 l 415 863 "},",":{"ha":275,"x_min":0,"x_max":0,"o":"m 99 175 l 238 175 l 82 -199 l -3 -199 "},"-":{"ha":765,"x_min":0,"x_max":0,"o":"m 81 563 l 635 563 l 635 456 l 81 456 "},".":{"ha":292,"x_min":0,"x_max":0,"o":"m 231 78 b 147 -8 231 29 193 -8 b 61 78 99 -8 61 29 b 147 164 61 126 99 164 b 231 78 193 164 231 126 "},"/":{"ha":661,"x_min":0,"x_max":0,"o":"m 453 1308 l 579 1308 l 199 -236 l 74 -236 "},":":{"ha":296,"x_min":0,"x_max":0,"o":"m 231 78 b 147 -8 231 29 193 -8 b 61 78 99 -8 61 29 b 147 164 61 126 99 164 b 231 78 193 164 231 126 m 231 672 b 147 586 231 624 193 586 b 61 672 99 586 61 624 b 147 758 61 721 99 758 b 231 672 193 758 231 721 "},";":{"ha":367,"x_min":0,"x_max":0,"o":"m 264 674 b 181 588 264 625 226 588 b 94 674 132 588 94 625 b 181 760 94 722 132 760 b 264 674 226 760 264 722 m 133 175 l 272 175 l 117 -199 l 32 -199 "},"<":{"ha":771,"x_min":0,"x_max":0,"o":"m 611 189 l 451 189 l 117 508 l 451 826 l 611 826 l 275 508 "},"=":{"ha":1004,"x_min":0,"x_max":0,"o":"m 140 413 l 863 413 l 863 306 l 140 306 m 140 711 l 863 711 l 863 604 l 140 604 "},">":{"ha":749,"x_min":0,"x_max":0,"o":"m 467 508 l 131 826 l 290 826 l 626 508 l 290 189 l 131 189 "},"?":{"ha":728,"x_min":0,"x_max":0,"o":"m 51 701 b 354 981 50 869 172 981 b 661 694 536 981 661 871 b 326 408 661 492 521 408 l 322 276 l 213 276 l 207 496 l 247 496 b 540 694 406 496 540 526 b 356 875 540 806 468 875 b 171 701 242 875 171 810 l 51 701 m 350 78 b 267 -8 350 29 313 -8 b 181 78 218 -8 181 29 b 267 164 181 126 218 164 b 350 78 313 164 350 126 "},"@":{"ha":1407,"x_min":0,"x_max":0,"o":"m 1004 -10 b 854 119 910 -10 861 42 b 606 -10 797 39 703 -10 b 379 229 463 -10 379 85 b 721 624 379 436 518 624 b 899 524 808 624 868 590 l 914 610 l 1024 610 l 954 208 b 1024 76 942 129 953 76 b 1203 419 1143 76 1203 274 b 786 801 1203 661 1051 801 b 206 196 450 801 206 536 b 624 -186 204 -51 363 -186 b 854 -139 700 -186 783 -172 l 871 -225 b 599 -276 788 -260 694 -276 b 100 185 299 -276 100 -97 b 801 890 100 581 393 890 b 1306 426 1115 890 1306 701 b 1004 -10 1306 213 1197 -10 m 871 343 b 721 526 879 444 829 526 b 497 249 582 526 497 386 b 643 89 497 154 546 89 b 871 343 765 89 863 200 "},"A":{"ha":936,"x_min":0,"x_max":0,"o":"m 679 215 l 257 215 l 179 0 l 46 0 l 396 963 l 542 963 l 890 0 l 757 0 m 468 807 l 293 318 l 643 318 "},"B":{"ha":851,"x_min":0,"x_max":0,"o":"m 657 272 b 453 446 657 379 576 446 l 233 446 l 233 104 l 457 104 b 657 272 582 104 657 167 m 632 707 b 443 864 632 803 567 864 l 233 864 l 233 550 l 446 550 b 632 707 564 550 632 608 m 783 260 b 468 0 783 114 668 0 l 107 0 l 107 968 l 454 968 b 761 722 658 968 761 857 b 592 499 761 600 685 529 b 783 260 697 481 783 379 "},"C":{"ha":1072,"x_min":0,"x_max":0,"o":"m 60 485 b 543 981 60 775 272 981 b 992 688 753 981 919 875 l 840 688 b 543 869 788 804 685 869 b 189 485 340 869 189 722 b 543 101 189 249 340 101 b 840 282 685 101 788 167 l 992 282 b 543 -8 919 96 753 -8 b 60 485 272 -8 60 194 "},"D":{"ha":982,"x_min":0,"x_max":0,"o":"m 408 968 b 922 482 726 968 922 782 b 408 0 922 182 726 0 l 107 0 l 107 968 l 408 968 m 408 104 b 793 482 661 104 793 246 b 408 865 793 718 661 865 l 233 865 l 233 104 "},"E":{"ha":713,"x_min":0,"x_max":0,"o":"m 628 865 l 233 865 l 233 542 l 586 542 l 586 438 l 233 438 l 233 104 l 628 104 l 628 0 l 107 0 l 107 969 l 628 969 "},"F":{"ha":700,"x_min":0,"x_max":0,"o":"m 107 968 l 654 968 l 654 865 l 233 865 l 233 539 l 575 539 l 575 436 l 233 436 l 233 0 l 107 0 "},"G":{"ha":1081,"x_min":0,"x_max":0,"o":"m 546 979 b 992 688 750 979 919 874 l 840 688 b 546 865 788 800 682 865 b 189 485 342 865 189 718 b 546 106 189 253 342 106 b 886 419 736 106 867 228 l 500 419 l 500 522 l 1021 522 l 1021 425 b 546 -8 999 185 808 -8 b 60 485 274 -8 60 194 b 546 979 60 775 274 979 "},"H":{"ha":960,"x_min":0,"x_max":0,"o":"m 726 439 l 233 439 l 233 0 l 107 0 l 107 968 l 233 968 l 233 543 l 726 543 l 726 968 l 853 968 l 853 0 l 726 0 "},"I":{"ha":342,"x_min":0,"x_max":0,"o":"m 107 968 l 233 968 l 233 0 l 107 0 "},"J":{"ha":736,"x_min":0,"x_max":0,"o":"m 467 968 l 594 968 l 594 253 b 326 -10 594 92 486 -10 b 57 263 165 -10 57 93 l 183 263 b 326 103 185 174 226 103 b 467 253 426 103 467 172 "},"K":{"ha":832,"x_min":0,"x_max":0,"o":"m 233 442 l 233 0 l 107 0 l 107 968 l 233 968 l 233 519 l 633 968 l 793 968 l 354 483 l 797 0 l 632 0 "},"L":{"ha":600,"x_min":0,"x_max":0,"o":"m 233 968 l 233 103 l 572 103 l 572 0 l 107 0 l 107 968 "},"M":{"ha":1196,"x_min":0,"x_max":0,"o":"m 107 961 l 243 961 l 599 167 l 954 961 l 1089 961 l 1089 0 l 963 0 l 963 717 l 643 0 l 554 0 l 233 718 l 233 0 l 107 0 "},"N":{"ha":976,"x_min":0,"x_max":0,"o":"m 868 969 l 868 0 l 742 0 l 233 771 l 233 0 l 107 0 l 107 969 l 233 969 l 742 200 l 742 969 "},"O":{"ha":1092,"x_min":0,"x_max":0,"o":"m 1032 485 b 546 -10 1032 194 819 -10 b 60 485 274 -10 60 194 b 546 979 60 775 274 979 b 1032 485 819 979 1032 775 m 189 485 b 546 100 189 249 342 100 b 903 485 750 100 903 249 b 546 869 903 722 750 869 b 189 485 342 869 189 722 "},"P":{"ha":804,"x_min":0,"x_max":0,"o":"m 419 508 b 625 685 564 508 625 576 b 419 864 625 797 564 864 l 233 864 l 233 508 m 754 685 b 419 404 754 538 660 404 l 233 404 l 233 0 l 107 0 l 107 968 l 419 968 b 754 685 647 968 754 843 "},"Q":{"ha":1094,"x_min":0,"x_max":0,"o":"m 189 485 b 546 100 189 249 342 100 b 903 485 750 100 903 249 b 546 869 903 722 750 869 b 189 485 342 869 189 722 m 1032 485 b 803 60 1032 296 942 143 l 1047 -183 l 883 -183 l 690 10 b 546 -10 644 -3 596 -10 b 60 485 274 -10 60 194 b 546 979 60 775 274 979 b 1032 485 819 979 1032 775 "},"R":{"ha":844,"x_min":0,"x_max":0,"o":"m 625 683 b 419 864 625 793 564 864 l 233 864 l 233 497 l 419 497 b 625 683 563 497 625 575 m 419 968 b 756 683 647 968 756 842 b 525 406 756 560 688 442 l 768 0 l 617 0 l 386 396 l 233 396 l 233 0 l 107 0 l 107 968 "},"S":{"ha":815,"x_min":0,"x_max":0,"o":"m 736 264 b 414 -10 736 126 624 -10 b 79 258 219 -10 82 99 l 214 258 b 414 97 222 178 279 97 b 608 258 536 97 608 167 b 85 713 608 519 85 353 b 406 981 85 872 214 981 b 726 732 590 981 711 879 l 588 732 b 400 872 579 797 518 871 b 214 717 296 875 214 821 b 736 264 214 467 736 622 "},"T":{"ha":751,"x_min":0,"x_max":0,"o":"m 47 968 l 703 968 l 703 865 l 439 865 l 439 0 l 313 0 l 313 865 l 47 865 "},"U":{"ha":938,"x_min":0,"x_max":0,"o":"m 104 968 l 231 968 l 231 356 b 469 101 231 178 326 101 b 707 356 613 101 707 178 l 707 968 l 833 968 l 833 357 b 468 -10 833 106 668 -10 b 104 357 268 -10 104 106 "},"V":{"ha":939,"x_min":0,"x_max":0,"o":"m 774 968 l 907 968 l 542 0 l 396 0 l 31 968 l 165 968 l 469 133 "},"W":{"ha":1356,"x_min":0,"x_max":0,"o":"m 32 968 l 167 968 l 378 147 l 611 968 l 753 968 l 975 150 l 1188 968 l 1324 968 l 1043 0 l 901 0 l 676 779 l 443 0 l 303 -1 "},"X":{"ha":863,"x_min":0,"x_max":0,"o":"m 425 378 l 204 0 l 64 0 l 360 483 l 63 968 l 204 968 l 438 589 l 660 968 l 801 968 l 503 483 l 800 0 l 657 0 "},"Y":{"ha":811,"x_min":0,"x_max":0,"o":"m 26 968 l 167 968 l 406 478 l 644 968 l 785 968 l 469 365 l 469 0 l 343 0 l 343 365 "},"Z":{"ha":751,"x_min":0,"x_max":0,"o":"m 683 868 l 214 110 l 686 110 l 686 0 l 64 0 l 64 100 l 533 858 l 69 858 l 69 968 l 683 968 "},"[":{"ha":588,"x_min":0,"x_max":0,"o":"m 185 1297 l 435 1297 l 435 1193 l 303 1193 l 303 -153 l 435 -153 l 435 -258 l 185 -258 "},"\\":{"ha":914,"x_min":0,"x_max":0,"o":"m 742 -236 l 617 -236 l 182 1308 l 307 1308 "},"]":{"ha":588,"x_min":0,"x_max":0,"o":"m 403 1297 l 153 1297 l 153 1193 l 285 1193 l 285 -153 l 153 -153 l 153 -258 l 403 -258 "},"^":{"ha":874,"x_min":0,"x_max":0,"o":"m 439 807 l 182 235 l 51 235 l 378 963 l 496 963 l 824 235 l 692 235 "},"_":{"ha":1018,"x_min":0,"x_max":0,"o":"m 146 -53 l 885 -53 l 885 -169 l 146 -169 "},"`":{"ha":357,"x_min":0,"x_max":0,"o":"m 24 1086 l 319 913 l 319 818 l 24 976 "},"a":{"ha":939,"x_min":0,"x_max":0,"o":"m 60 383 b 421 774 60 621 217 774 b 704 622 563 774 660 701 l 704 761 l 832 761 l 832 0 l 704 0 l 704 142 b 419 -12 658 60 560 -12 b 60 383 217 -12 60 147 m 704 382 b 446 664 704 558 585 664 b 189 383 307 664 189 563 b 446 99 189 204 307 99 b 704 382 585 99 704 203 "},"b":{"ha":939,"x_min":0,"x_max":0,"o":"m 233 619 b 518 774 282 704 383 774 b 879 383 724 774 879 621 b 518 -12 879 147 722 -12 b 233 140 379 -12 281 57 l 233 0 l 107 0 l 107 1028 l 233 1028 l 233 619 m 750 383 b 492 664 750 563 632 664 b 233 382 354 664 233 558 b 492 99 233 203 354 99 b 750 383 632 99 750 204 "},"c":{"ha":843,"x_min":0,"x_max":0,"o":"m 60 382 b 431 774 60 621 214 774 b 782 517 619 774 743 676 l 646 517 b 431 667 619 608 543 667 b 189 382 292 667 189 568 b 431 94 189 193 292 94 b 646 244 543 94 618 149 l 782 244 b 431 -12 743 93 619 -12 b 60 382 214 -12 60 140 "},"d":{"ha":939,"x_min":0,"x_max":0,"o":"m 60 383 b 422 774 60 621 217 774 b 704 625 542 774 651 713 l 704 1028 l 832 1028 l 832 0 l 704 0 l 704 143 b 421 -12 658 58 560 -12 b 60 383 217 -12 60 147 m 704 382 b 446 664 704 558 585 664 b 189 383 307 664 189 563 b 446 99 189 204 307 99 b 704 382 585 99 704 203 "},"e":{"ha":861,"x_min":0,"x_max":0,"o":"m 431 667 b 190 436 307 667 204 585 l 671 436 b 431 667 672 585 561 667 m 786 235 b 436 -12 747 96 625 -12 b 60 382 219 -12 60 140 b 436 774 60 622 214 774 b 801 410 657 774 801 618 b 797 333 801 382 800 360 l 189 333 b 436 94 199 179 307 94 b 650 235 550 94 622 153 l 786 235 "},"f":{"ha":457,"x_min":0,"x_max":0,"o":"m 131 657 l 32 657 l 32 761 l 131 761 l 131 815 b 408 1061 131 985 214 1061 l 408 956 b 257 815 294 956 257 914 l 257 761 l 417 761 l 417 657 l 257 657 l 257 0 l 131 0 "},"g":{"ha":939,"x_min":0,"x_max":0,"o":"m 60 383 b 421 774 60 621 217 774 b 704 622 560 774 660 704 l 704 761 l 832 761 l 832 -17 b 468 -375 832 -226 692 -375 b 100 -111 268 -375 125 -274 l 225 -111 b 468 -265 253 -203 343 -265 b 704 -17 603 -265 704 -179 l 704 143 b 421 -12 658 61 560 -12 b 60 383 217 -12 60 147 m 704 382 b 446 664 704 558 585 664 b 189 383 307 664 189 563 b 446 99 189 204 307 99 b 704 382 585 99 704 203 "},"h":{"ha":889,"x_min":0,"x_max":0,"o":"m 107 1028 l 233 1028 l 233 651 b 485 775 283 732 378 775 b 789 449 654 775 789 667 l 789 0 l 664 0 l 664 431 b 451 665 664 586 579 665 b 233 421 322 665 233 585 l 233 0 l 107 0 "},"i":{"ha":342,"x_min":0,"x_max":0,"o":"m 107 761 l 233 761 l 233 0 l 107 0 m 172 885 b 86 971 124 885 86 922 b 172 1057 86 1019 124 1057 b 256 971 218 1057 256 1019 b 172 885 256 922 218 885 "},"j":{"ha":344,"x_min":0,"x_max":0,"o":"m 175 885 b 90 971 128 885 90 922 b 175 1057 90 1019 128 1057 b 260 971 222 1057 260 1019 b 175 885 260 922 222 885 m 238 761 l 238 -165 b 36 -361 238 -303 165 -361 l -37 -361 l -37 -254 l 15 -254 b 111 -162 85 -254 111 -229 l 111 761 "},"k":{"ha":715,"x_min":0,"x_max":0,"o":"m 107 1028 l 233 1028 l 233 424 l 526 761 l 703 761 l 344 382 l 704 0 l 532 0 l 233 336 l 233 0 l 107 0 "},"l":{"ha":342,"x_min":0,"x_max":0,"o":"m 107 1028 l 233 1028 l 233 0 l 107 0 "},"m":{"ha":1431,"x_min":0,"x_max":0,"o":"m 1206 431 b 997 665 1206 586 1122 665 b 782 419 869 665 782 583 l 782 0 l 657 0 l 657 431 b 449 665 657 586 574 665 b 233 419 321 665 233 583 l 233 0 l 107 0 l 107 761 l 233 761 l 233 651 b 474 775 283 732 374 775 b 753 606 599 775 703 719 b 1022 775 797 715 906 775 b 1331 449 1196 775 1331 667 l 1331 0 l 1206 0 "},"n":{"ha":889,"x_min":0,"x_max":0,"o":"m 664 431 b 451 665 664 586 579 665 b 233 421 322 665 233 585 l 233 0 l 107 0 l 107 761 l 233 761 l 233 653 b 478 775 283 732 375 775 b 789 449 654 775 789 667 l 789 0 l 664 0 "},"o":{"ha":889,"x_min":0,"x_max":0,"o":"m 829 382 b 439 -12 829 140 656 -12 b 60 382 224 -12 60 140 b 444 774 60 622 229 774 b 829 382 661 774 829 622 m 189 382 b 439 99 189 189 307 99 b 700 382 571 99 700 189 b 443 664 700 574 574 664 b 189 382 310 664 189 574 "},"p":{"ha":939,"x_min":0,"x_max":0,"o":"m 233 621 b 518 774 279 701 379 774 b 879 383 722 774 879 621 b 518 -12 879 147 722 -12 b 233 140 379 -12 281 63 l 233 -361 l 107 -361 l 107 761 l 233 761 l 233 621 m 750 383 b 492 664 750 563 632 664 b 233 382 354 664 233 558 b 492 99 233 203 354 99 b 750 383 632 99 750 204 "},"q":{"ha":939,"x_min":0,"x_max":0,"o":"m 60 383 b 422 774 60 621 217 774 b 704 622 561 774 661 701 l 704 761 l 832 761 l 832 -361 l 704 -361 l 704 140 b 418 -12 661 63 560 -12 b 60 383 217 -12 60 147 m 704 382 b 446 664 704 558 585 664 b 189 383 307 664 189 563 b 446 99 189 204 307 99 b 704 382 585 99 704 203 "},"r":{"ha":518,"x_min":0,"x_max":0,"o":"m 233 0 l 107 0 l 107 761 l 233 761 l 233 638 b 479 775 276 722 358 775 l 479 644 l 446 644 b 233 414 325 644 233 590 "},"s":{"ha":725,"x_min":0,"x_max":0,"o":"m 654 207 b 376 -12 654 82 544 -12 b 65 224 199 -12 74 85 l 196 224 b 375 94 203 150 268 94 b 531 207 475 94 531 144 b 81 561 531 376 81 278 b 360 774 81 678 190 774 b 647 535 528 774 639 683 l 521 535 b 356 667 515 611 457 667 b 207 561 263 667 207 622 b 654 207 207 381 649 479 "},"t":{"ha":506,"x_min":0,"x_max":0,"o":"m 135 657 l 36 657 l 36 761 l 135 761 l 135 953 l 261 953 l 261 761 l 460 761 l 460 657 l 261 657 l 261 208 b 367 107 261 133 289 107 l 460 107 l 460 0 l 346 0 b 135 208 211 0 135 56 "},"u":{"ha":889,"x_min":0,"x_max":0,"o":"m 782 0 l 656 0 l 656 113 b 413 -11 607 33 514 -11 b 100 315 238 -11 100 97 l 100 761 l 225 761 l 225 332 b 438 99 225 178 310 99 b 656 343 568 99 656 179 l 656 761 l 782 761 "},"v":{"ha":779,"x_min":0,"x_max":0,"o":"m 153 761 l 390 117 l 626 761 l 761 761 l 463 0 l 315 0 l 17 761 "},"w":{"ha":1139,"x_min":0,"x_max":0,"o":"m 17 761 l 146 761 l 321 122 l 510 761 l 639 761 l 824 121 l 996 761 l 1121 761 l 883 0 l 753 0 l 569 604 l 386 0 l 256 0 "},"x":{"ha":665,"x_min":0,"x_max":0,"o":"m 324 283 l 150 0 l 18 0 l 264 378 l 18 761 l 161 761 l 342 479 l 514 761 l 646 761 l 401 385 l 647 0 l 504 0 "},"y":{"ha":782,"x_min":0,"x_max":0,"o":"m 632 761 l 763 761 l 304 -358 l 174 -358 l 324 8 l 17 761 l 157 761 l 396 144 "},"z":{"ha":632,"x_min":0,"x_max":0,"o":"m 572 658 l 201 104 l 575 104 l 575 0 l 57 0 l 57 104 l 426 658 l 60 658 l 60 761 l 572 761 "},"{":{"ha":642,"x_min":0,"x_max":0,"o":"m 288 324 b 146 469 288 393 250 450 l 146 568 b 288 714 250 588 288 644 b 260 1092 288 822 260 974 b 467 1297 260 1228 344 1297 l 547 1297 l 547 1188 l 490 1188 b 383 1083 421 1188 383 1158 b 410 710 383 978 410 825 b 260 521 410 615 365 543 l 260 518 b 410 328 365 494 410 422 b 383 -46 410 213 383 60 b 490 -150 383 -121 421 -150 l 547 -150 l 547 -260 l 467 -260 b 260 -54 344 -260 260 -190 b 288 324 260 64 288 215 "},"|":{"ha":404,"x_min":0,"x_max":0,"o":"m 265 1104 l 265 -147 l 139 -147 l 139 1104 "},"}":{"ha":642,"x_min":0,"x_max":0,"o":"m 354 324 b 496 469 354 393 392 450 l 496 568 b 354 714 392 588 354 644 b 382 1092 354 822 382 974 b 175 1297 382 1228 297 1297 l 94 1297 l 94 1188 l 151 1188 b 258 1083 221 1188 258 1158 b 232 710 258 978 232 825 b 382 521 232 615 276 543 l 382 518 b 232 328 276 494 232 422 b 258 -46 232 213 258 60 b 151 -150 258 -121 221 -150 l 94 -150 l 94 -260 l 175 -260 b 382 -54 297 -260 382 -190 b 354 324 382 64 354 215 "},"~":{"ha":721,"x_min":0,"x_max":0,"o":"m 51 344 b 247 547 76 483 146 547 b 482 456 353 547 403 456 b 575 546 529 456 567 489 l 669 546 b 472 343 646 406 575 343 b 239 435 368 343 321 435 b 144 344 190 435 153 400 l 51 344 "}," ":{"ha":371,"x_min":0,"x_max":0,"o":""},"¡":{"ha":414,"x_min":0,"x_max":0,"o":"m 135 -193 l 271 -193 l 256 501 l 150 501 m 292 697 b 208 783 292 746 254 783 b 122 697 160 783 122 746 b 208 611 122 649 160 611 b 292 697 254 611 292 649 "},"¢":{"ha":924,"x_min":0,"x_max":0,"o":"m 772 256 b 482 7 756 121 646 19 l 482 -124 l 407 -124 l 407 7 b 90 364 201 24 90 172 b 407 721 90 556 201 704 l 407 849 l 482 849 l 482 721 b 772 474 646 708 756 607 l 654 474 b 447 618 633 561 563 618 b 210 364 310 618 210 528 b 447 111 210 200 310 111 b 654 256 563 111 633 167 l 772 256 "},"£":{"ha":861,"x_min":0,"x_max":0,"o":"m 150 706 b 453 999 150 885 274 999 b 753 710 653 999 746 865 l 636 710 b 453 892 633 814 575 892 b 271 700 354 892 271 836 b 310 517 271 632 290 574 l 579 517 l 579 428 l 338 428 b 350 342 344 400 350 371 b 251 103 350 250 317 174 l 757 103 l 757 -3 l 138 -3 l 115 69 b 231 342 185 146 231 215 b 218 428 231 372 225 400 l 61 428 l 61 517 l 188 517 b 150 706 168 569 150 628 "},"¤":{"ha":746,"x_min":0,"x_max":0,"o":"m 513 524 b 371 689 513 631 446 689 b 233 524 296 689 233 631 b 371 360 233 417 294 360 b 513 524 443 360 513 417 m 517 319 b 371 278 475 293 425 278 b 228 318 315 278 267 292 l 146 236 l 88 294 l 169 376 b 128 524 143 417 128 465 b 172 672 128 582 144 633 l 88 756 l 146 814 l 231 729 b 372 769 269 756 318 769 b 515 729 426 769 475 756 l 600 814 l 657 756 l 574 672 b 619 524 603 633 619 582 b 575 376 619 467 603 417 l 657 294 l 600 236 "},"¥":{"ha":826,"x_min":0,"x_max":0,"o":"m 313 438 l 74 440 l 74 532 l 264 532 l 35 968 l 176 968 l 414 479 l 651 968 l 793 968 l 565 532 l 756 532 l 756 440 l 515 438 l 478 365 l 478 311 l 756 311 l 756 218 l 478 218 l 478 0 l 351 0 l 351 218 l 74 218 l 74 311 l 351 311 l 351 365 "},"¦":{"ha":404,"x_min":0,"x_max":0,"o":"m 265 379 l 265 -147 l 139 -147 l 139 379 m 139 579 l 139 1104 l 265 1104 l 265 579 "},"§":{"ha":799,"x_min":0,"x_max":0,"o":"m 106 771 b 390 989 106 890 211 989 b 682 758 557 989 678 906 l 556 758 b 390 899 550 833 501 899 b 232 782 293 899 232 860 b 456 618 232 711 282 675 b 735 358 628 563 735 496 b 543 132 735 257 671 172 b 693 -54 628 93 693 40 b 410 -272 693 -174 588 -272 b 117 -43 243 -272 121 -190 l 243 -43 b 410 -183 250 -121 299 -183 b 567 -64 507 -183 567 -144 b 343 97 567 6 517 40 b 64 358 171 154 64 219 b 256 583 64 460 129 547 b 106 771 172 624 106 676 m 606 358 b 397 517 606 449 526 517 b 193 358 267 517 193 443 b 403 199 193 269 272 199 b 606 358 532 199 606 274 "},"¨":{"ha":436,"x_min":0,"x_max":0,"o":"m 106 864 b 32 936 64 864 32 896 b 106 1010 32 976 64 1010 b 178 936 144 1010 178 976 b 106 864 178 896 144 864 m 331 864 b 258 936 289 864 258 896 b 331 1010 258 976 289 1010 b 404 936 371 1010 404 976 b 331 864 404 896 371 864 "},"©":{"ha":1100,"x_min":0,"x_max":0,"o":"m 68 485 b 551 978 68 774 265 978 b 1032 485 836 978 1032 774 b 551 -8 1032 196 836 -8 b 68 485 265 -8 68 196 m 972 485 b 551 922 972 746 810 922 b 128 485 290 922 128 746 b 551 46 128 225 290 46 b 972 485 810 46 972 225 m 833 600 b 549 807 797 732 689 807 b 247 486 382 807 247 686 b 549 164 247 286 382 164 b 833 371 689 164 797 246 l 717 371 b 549 256 690 297 635 256 b 360 485 443 256 360 333 b 549 715 360 638 443 715 b 717 600 628 715 693 675 l 833 600 "},"ª":{"ha":625,"x_min":0,"x_max":0,"o":"m 281 482 b 46 736 147 482 46 588 b 278 985 46 883 147 985 b 460 892 369 985 431 943 l 460 976 l 560 976 l 560 490 l 460 490 l 460 574 b 281 482 432 522 369 482 m 304 906 b 150 735 221 906 150 844 b 304 561 150 625 221 561 b 460 733 389 561 460 624 b 304 906 460 843 389 906 "},"«":{"ha":640,"x_min":0,"x_max":0,"o":"m 319 167 l 196 167 l 63 410 l 196 653 l 319 653 l 182 410 m 571 167 l 446 167 l 314 410 l 446 653 l 571 653 l 433 410 "},"¬":{"ha":903,"x_min":0,"x_max":0,"o":"m 57 600 l 842 600 l 842 306 l 715 306 l 715 500 l 57 500 "},"­":{"ha":765,"x_min":0,"x_max":0,"o":"m 81 563 l 635 563 l 635 456 l 81 456 "},"®":{"ha":707,"x_min":0,"x_max":0,"o":"m 354 926 b 132 697 218 926 132 832 b 354 468 132 563 218 468 b 578 697 489 468 578 563 b 354 926 578 832 489 926 m 354 413 b 72 697 189 413 72 533 b 354 981 72 861 189 981 b 635 697 518 981 635 861 b 354 413 635 533 518 413 m 479 756 b 414 667 479 711 454 679 l 492 551 l 404 550 l 338 661 l 314 661 l 314 550 l 242 550 l 242 849 l 375 849 b 479 756 438 849 479 813 m 314 783 l 314 721 l 371 721 b 407 753 390 721 407 731 b 371 783 407 775 390 783 "},"¯":{"ha":538,"x_min":0,"x_max":0,"o":"m 24 985 l 513 985 l 513 890 l 24 890 "},"°":{"ha":569,"x_min":0,"x_max":0,"o":"m 39 728 b 285 971 39 876 143 971 b 529 728 426 971 529 876 b 282 482 529 579 425 482 b 39 728 139 482 39 579 m 428 728 b 283 897 428 838 363 897 b 140 728 206 897 140 838 b 282 558 140 615 203 558 b 428 728 360 558 428 615 "},"±":{"ha":953,"x_min":0,"x_max":0,"o":"m 536 867 l 536 631 l 829 631 l 829 524 l 536 524 l 536 271 l 829 271 l 829 164 l 122 164 l 122 271 l 418 271 l 418 524 l 122 524 l 122 631 l 418 631 l 418 867 "},"²":{"ha":458,"x_min":0,"x_max":0,"o":"m 42 838 b 221 986 46 922 108 986 b 396 833 329 986 396 917 b 267 649 396 760 353 711 l 157 571 l 401 571 l 401 489 l 44 489 l 44 561 l 196 683 b 290 829 250 728 290 771 b 218 908 290 881 258 908 b 143 838 174 908 149 882 l 42 838 "},"³":{"ha":461,"x_min":0,"x_max":0,"o":"m 38 849 b 226 986 46 929 117 986 b 410 843 329 986 410 924 b 324 735 410 786 374 749 l 324 732 b 414 617 372 715 414 676 b 222 482 414 543 338 482 b 32 631 111 482 39 536 l 132 631 b 221 557 139 579 174 557 b 306 629 272 557 306 585 b 218 701 306 675 269 701 l 158 701 l 158 768 l 215 768 b 303 838 267 768 303 792 b 219 910 303 881 271 910 b 133 849 169 910 142 885 l 38 849 "},"´":{"ha":343,"x_min":0,"x_max":0,"o":"m 319 1086 l 319 976 l 24 818 l 24 913 "},"µ":{"ha":896,"x_min":0,"x_max":0,"o":"m 789 0 l 663 0 l 663 139 b 410 -12 614 38 519 -12 b 232 75 340 -12 272 11 l 232 -361 l 107 -361 l 107 761 l 232 761 l 232 344 b 449 96 232 179 321 96 b 663 340 576 96 663 178 l 663 761 l 789 761 "},"¶":{"ha":828,"x_min":0,"x_max":0,"o":"m 719 961 l 719 0 l 607 0 l 607 863 l 500 863 l 500 0 l 388 0 l 388 397 l 372 397 b 43 678 146 397 43 521 b 372 961 43 836 147 961 "},"·":{"ha":294,"x_min":0,"x_max":0,"o":"m 235 474 b 151 388 235 425 197 388 b 65 474 103 388 65 425 b 151 560 65 522 103 560 b 235 474 197 560 235 522 "},"¸":{"ha":378,"x_min":0,"x_max":0,"o":"m 174 -81 b 353 -218 281 -79 353 -126 b 183 -361 353 -306 282 -361 l 24 -361 l 24 -279 l 158 -279 b 247 -218 218 -279 247 -262 b 158 -158 247 -175 218 -158 l 89 -158 l 89 10 l 174 10 "},"¹":{"ha":272,"x_min":0,"x_max":0,"o":"m 110 900 l 35 900 l 35 978 l 210 978 l 210 489 l 110 489 "},"º":{"ha":606,"x_min":0,"x_max":0,"o":"m 46 733 b 303 985 46 886 157 985 b 560 733 450 985 560 886 b 301 481 560 582 447 481 b 46 733 154 481 46 582 m 457 732 b 303 906 457 846 383 906 b 150 732 221 906 150 846 b 301 561 150 621 218 561 b 457 732 382 561 457 621 "},"»":{"ha":640,"x_min":0,"x_max":0,"o":"m 321 167 l 457 410 l 321 653 l 444 653 l 578 410 l 444 167 m 69 167 l 207 410 l 69 653 l 193 653 l 326 410 l 193 167 "},"¼":{"ha":889,"x_min":0,"x_max":0,"o":"m 606 969 l 725 969 l 206 0 l 86 0 m 839 161 l 839 96 l 772 96 l 772 0 l 672 0 l 672 96 l 418 96 l 418 154 l 638 490 l 772 490 l 772 161 m 675 161 l 675 404 l 521 161 m 128 900 l 53 900 l 53 978 l 228 978 l 228 489 l 128 489 "},"½":{"ha":938,"x_min":0,"x_max":0,"o":"m 588 969 l 707 969 l 200 0 l 79 0 m 125 900 l 50 900 l 50 978 l 225 978 l 225 489 l 125 489 m 511 347 b 690 496 515 432 578 496 b 865 343 799 496 865 426 b 736 158 865 269 822 221 l 626 81 l 871 81 l 871 -1 l 514 -1 l 514 71 l 665 193 b 760 339 719 238 760 281 b 688 418 760 390 728 418 b 613 347 643 418 618 392 l 511 347 "},"¾":{"ha":985,"x_min":0,"x_max":0,"o":"m 738 969 l 857 969 l 317 0 l 199 0 m 947 161 l 947 96 l 882 96 l 882 0 l 782 0 l 782 96 l 528 96 l 528 154 l 747 490 l 882 490 l 882 161 m 783 161 l 783 404 l 629 161 m 54 849 b 243 986 63 929 133 986 b 426 843 346 986 426 924 b 340 735 426 786 390 749 l 340 732 b 431 617 389 715 431 676 b 239 482 431 543 354 482 b 49 631 128 482 56 536 l 149 631 b 238 557 156 579 190 557 b 322 629 289 557 322 585 b 235 701 322 675 286 701 l 175 701 l 175 768 l 232 768 b 319 838 283 768 319 792 b 236 910 319 881 288 910 b 150 849 186 910 158 885 l 54 849 "},"¿":{"ha":721,"x_min":0,"x_max":0,"o":"m 674 63 b 371 -217 675 -106 553 -217 b 64 69 189 -217 64 -107 b 399 356 64 272 204 356 l 403 488 l 513 488 l 518 268 l 478 268 b 185 69 319 268 185 238 b 369 -111 185 -42 257 -111 b 554 63 483 -111 554 -46 l 674 63 m 375 686 b 458 772 375 735 413 772 b 544 686 507 772 544 735 b 458 600 544 638 507 600 b 375 686 413 600 375 638 "},"À":{"ha":936,"x_min":0,"x_max":0,"o":"m 679 215 l 257 215 l 179 0 l 46 0 l 396 963 l 542 963 l 890 0 l 757 0 m 308 1288 l 604 1114 l 604 1019 l 308 1178 m 468 807 l 293 318 l 643 318 "},"Á":{"ha":936,"x_min":0,"x_max":0,"o":"m 679 215 l 257 215 l 179 0 l 46 0 l 396 963 l 542 963 l 890 0 l 757 0 m 604 1288 l 604 1178 l 308 1019 l 308 1114 m 468 807 l 293 318 l 643 318 "},"Â":{"ha":936,"x_min":0,"x_max":0,"o":"m 679 215 l 257 215 l 179 0 l 46 0 l 396 963 l 542 963 l 890 0 l 757 0 m 661 1031 l 469 1149 l 276 1031 l 276 1131 l 469 1246 l 661 1131 m 468 807 l 293 318 l 643 318 "},"Ã":{"ha":936,"x_min":0,"x_max":0,"o":"m 679 215 l 257 215 l 179 0 l 46 0 l 396 963 l 542 963 l 890 0 l 757 0 m 264 1044 b 403 1190 278 1140 331 1190 b 561 1126 476 1190 504 1126 b 622 1186 592 1126 617 1146 l 694 1186 b 556 1042 683 1092 628 1042 b 397 1106 481 1042 453 1106 b 338 1044 367 1106 343 1086 l 264 1044 m 468 807 l 293 318 l 643 318 "},"Ä":{"ha":936,"x_min":0,"x_max":0,"o":"m 679 215 l 257 215 l 179 0 l 46 0 l 396 963 l 542 963 l 890 0 l 757 0 m 357 1065 b 283 1138 315 1065 283 1097 b 357 1211 283 1178 315 1211 b 429 1138 396 1211 429 1178 b 357 1065 429 1097 396 1065 m 582 1065 b 510 1138 540 1065 510 1097 b 582 1211 510 1178 540 1211 b 656 1138 622 1211 656 1178 b 582 1065 656 1097 622 1065 m 468 807 l 293 318 l 643 318 "},"Å":{"ha":936,"x_min":0,"x_max":0,"o":"m 679 215 l 257 215 l 179 0 l 46 0 l 396 963 l 542 963 l 890 0 l 757 0 m 469 1113 b 544 1192 511 1113 544 1144 b 469 1269 544 1239 511 1269 b 394 1192 428 1269 394 1239 b 469 1113 394 1144 428 1113 m 469 1336 b 618 1190 551 1336 618 1281 b 469 1044 618 1100 551 1044 b 321 1190 389 1044 321 1100 b 469 1336 321 1281 389 1336 m 468 807 l 293 318 l 643 318 "},"Æ":{"ha":1250,"x_min":0,"x_max":0,"o":"m 331 314 l 646 314 l 646 874 m 772 869 l 772 538 l 1122 538 l 1122 440 l 772 440 l 772 100 l 1164 100 l 1164 0 l 646 0 l 646 215 l 275 215 l 154 0 l 17 0 l 565 969 l 1164 969 l 1164 869 "},"Ç":{"ha":1072,"x_min":0,"x_max":0,"o":"m 60 485 b 543 981 60 775 272 981 b 992 688 753 981 919 875 l 840 688 b 543 869 788 804 685 869 b 189 485 340 869 189 722 b 543 101 189 249 340 101 b 840 282 685 101 788 167 l 992 282 b 592 -7 925 111 778 8 l 592 -81 b 771 -218 699 -79 771 -126 b 601 -361 771 -306 700 -361 l 442 -361 l 442 -279 l 576 -279 b 665 -218 636 -279 665 -262 b 576 -158 665 -175 636 -158 l 507 -158 l 507 -7 b 60 485 254 10 60 207 "},"È":{"ha":713,"x_min":0,"x_max":0,"o":"m 628 865 l 233 865 l 233 542 l 586 542 l 586 438 l 233 438 l 233 104 l 628 104 l 628 0 l 107 0 l 107 969 l 628 969 m 193 1288 l 489 1114 l 489 1019 l 193 1178 "},"É":{"ha":713,"x_min":0,"x_max":0,"o":"m 628 865 l 233 865 l 233 542 l 586 542 l 586 438 l 233 438 l 233 104 l 628 104 l 628 0 l 107 0 l 107 969 l 628 969 m 489 1288 l 489 1178 l 193 1019 l 193 1114 "},"Ê":{"ha":713,"x_min":0,"x_max":0,"o":"m 628 865 l 233 865 l 233 542 l 586 542 l 586 438 l 233 438 l 233 104 l 628 104 l 628 0 l 107 0 l 107 969 l 628 969 m 546 1031 l 354 1149 l 161 1031 l 161 1131 l 354 1246 l 546 1131 "},"Ë":{"ha":713,"x_min":0,"x_max":0,"o":"m 628 865 l 233 865 l 233 542 l 586 542 l 586 438 l 233 438 l 233 104 l 628 104 l 628 0 l 107 0 l 107 969 l 628 969 m 242 1065 b 168 1138 200 1065 168 1097 b 242 1211 168 1178 200 1211 b 314 1138 281 1211 314 1178 b 242 1065 314 1097 281 1065 m 467 1065 b 394 1138 425 1065 394 1097 b 467 1211 394 1178 425 1211 b 540 1138 507 1211 540 1178 b 467 1065 540 1097 507 1065 "},"Ì":{"ha":342,"x_min":0,"x_max":0,"o":"m 107 968 l 233 968 l 233 0 l 107 0 m 10 1288 l 306 1114 l 306 1019 l 10 1178 "},"Í":{"ha":342,"x_min":0,"x_max":0,"o":"m 107 968 l 233 968 l 233 0 l 107 0 m 306 1288 l 306 1178 l 10 1019 l 10 1114 "},"Î":{"ha":342,"x_min":0,"x_max":0,"o":"m 107 968 l 233 968 l 233 0 l 107 0 m 363 1031 l 171 1149 l -22 1031 l -22 1131 l 171 1246 l 363 1131 "},"Ï":{"ha":342,"x_min":0,"x_max":0,"o":"m 107 968 l 233 968 l 233 0 l 107 0 m 58 1065 b -15 1138 17 1065 -15 1097 b 58 1211 -15 1178 17 1211 b 131 1138 97 1211 131 1178 b 58 1065 131 1097 97 1065 m 283 1065 b 211 1138 242 1065 211 1097 b 283 1211 211 1178 242 1211 b 357 1138 324 1211 357 1178 b 283 1065 357 1097 324 1065 "},"Ð":{"ha":1007,"x_min":0,"x_max":0,"o":"m 435 968 b 947 482 751 968 947 782 b 435 0 947 182 751 0 l 133 0 l 133 424 l 13 424 l 13 540 l 133 540 l 133 968 l 435 968 m 435 97 b 818 482 686 97 818 246 b 435 865 818 718 686 865 l 260 865 l 260 540 l 526 540 l 526 424 l 260 424 l 260 97 "},"Ñ":{"ha":976,"x_min":0,"x_max":0,"o":"m 868 969 l 868 0 l 742 0 l 233 771 l 233 0 l 107 0 l 107 969 l 233 969 l 742 200 l 742 969 m 285 1044 b 424 1190 299 1140 351 1190 b 582 1126 497 1190 525 1126 b 643 1186 613 1126 638 1146 l 715 1186 b 576 1042 704 1092 649 1042 b 418 1106 501 1042 474 1106 b 358 1044 388 1106 364 1086 l 285 1044 "},"Ò":{"ha":1092,"x_min":0,"x_max":0,"o":"m 1032 485 b 546 -10 1032 194 819 -10 b 60 485 274 -10 60 194 b 546 979 60 775 274 979 b 1032 485 819 979 1032 775 m 189 485 b 546 100 189 249 342 100 b 903 485 750 100 903 249 b 546 869 903 722 750 869 b 189 485 342 869 189 722 m 389 1288 l 685 1114 l 685 1019 l 389 1178 "},"Ó":{"ha":1092,"x_min":0,"x_max":0,"o":"m 1032 485 b 546 -10 1032 194 819 -10 b 60 485 274 -10 60 194 b 546 979 60 775 274 979 b 1032 485 819 979 1032 775 m 189 485 b 546 100 189 249 342 100 b 903 485 750 100 903 249 b 546 869 903 722 750 869 b 189 485 342 869 189 722 m 685 1288 l 685 1178 l 389 1019 l 389 1114 "},"Ô":{"ha":1092,"x_min":0,"x_max":0,"o":"m 1032 485 b 546 -10 1032 194 819 -10 b 60 485 274 -10 60 194 b 546 979 60 775 274 979 b 1032 485 819 979 1032 775 m 189 485 b 546 100 189 249 342 100 b 903 485 750 100 903 249 b 546 869 903 722 750 869 b 189 485 342 869 189 722 m 742 1031 l 550 1149 l 357 1031 l 357 1131 l 550 1246 l 742 1131 "},"Õ":{"ha":1092,"x_min":0,"x_max":0,"o":"m 1032 485 b 546 -10 1032 194 819 -10 b 60 485 274 -10 60 194 b 546 979 60 775 274 979 b 1032 485 819 979 1032 775 m 189 485 b 546 100 189 249 342 100 b 903 485 750 100 903 249 b 546 869 903 722 750 869 b 189 485 342 869 189 722 m 346 1044 b 485 1190 360 1140 413 1190 b 643 1126 558 1190 586 1126 b 704 1186 674 1126 699 1146 l 776 1186 b 638 1042 765 1092 710 1042 b 479 1106 563 1042 535 1106 b 419 1044 449 1106 425 1086 l 346 1044 "},"Ö":{"ha":1092,"x_min":0,"x_max":0,"o":"m 1032 485 b 546 -10 1032 194 819 -10 b 60 485 274 -10 60 194 b 546 979 60 775 274 979 b 1032 485 819 979 1032 775 m 189 485 b 546 100 189 249 342 100 b 903 485 750 100 903 249 b 546 869 903 722 750 869 b 189 485 342 869 189 722 m 438 1065 b 364 1138 396 1065 364 1097 b 438 1211 364 1178 396 1211 b 510 1138 476 1211 510 1178 b 438 1065 510 1097 476 1065 m 663 1065 b 590 1138 621 1065 590 1097 b 663 1211 590 1178 621 1211 b 736 1138 703 1211 736 1178 b 663 1065 736 1097 703 1065 "},"×":{"ha":893,"x_min":0,"x_max":0,"o":"m 143 292 l 364 513 l 147 729 l 228 811 l 446 593 l 664 811 l 747 728 l 529 510 l 749 289 l 668 208 l 447 429 l 226 208 "},"Ø":{"ha":1092,"x_min":0,"x_max":0,"o":"m 1032 485 b 546 -10 1032 194 819 -10 b 239 94 428 -10 322 28 l 151 0 l 49 0 l 183 147 b 60 485 107 233 60 350 b 546 979 60 775 274 979 b 853 875 664 979 771 942 l 940 969 l 1043 969 l 908 824 b 1032 485 986 738 1032 621 m 189 485 b 265 235 189 383 217 299 l 775 790 b 546 869 714 842 635 869 b 189 485 342 869 189 722 m 546 100 b 903 485 750 100 903 249 b 828 735 903 586 875 671 l 317 179 b 546 100 378 128 457 100 "},"Ù":{"ha":938,"x_min":0,"x_max":0,"o":"m 104 968 l 231 968 l 231 356 b 469 101 231 178 326 101 b 707 356 613 101 707 178 l 707 968 l 833 968 l 833 357 b 468 -10 833 106 668 -10 b 104 357 268 -10 104 106 m 308 1288 l 604 1114 l 604 1019 l 308 1178 "},"Ú":{"ha":938,"x_min":0,"x_max":0,"o":"m 104 968 l 231 968 l 231 356 b 469 101 231 178 326 101 b 707 356 613 101 707 178 l 707 968 l 833 968 l 833 357 b 468 -10 833 106 668 -10 b 104 357 268 -10 104 106 m 604 1288 l 604 1178 l 308 1019 l 308 1114 "},"Û":{"ha":938,"x_min":0,"x_max":0,"o":"m 104 968 l 231 968 l 231 356 b 469 101 231 178 326 101 b 707 356 613 101 707 178 l 707 968 l 833 968 l 833 357 b 468 -10 833 106 668 -10 b 104 357 268 -10 104 106 m 661 1031 l 469 1149 l 276 1031 l 276 1131 l 469 1246 l 661 1131 "},"Ü":{"ha":938,"x_min":0,"x_max":0,"o":"m 104 968 l 231 968 l 231 356 b 469 101 231 178 326 101 b 707 356 613 101 707 178 l 707 968 l 833 968 l 833 357 b 468 -10 833 106 668 -10 b 104 357 268 -10 104 106 m 357 1065 b 283 1138 315 1065 283 1097 b 357 1211 283 1178 315 1211 b 429 1138 396 1211 429 1178 b 357 1065 429 1097 396 1065 m 582 1065 b 510 1138 540 1065 510 1097 b 582 1211 510 1178 540 1211 b 656 1138 622 1211 656 1178 b 582 1065 656 1097 622 1065 "},"Ý":{"ha":811,"x_min":0,"x_max":0,"o":"m 26 968 l 167 968 l 406 478 l 644 968 l 785 968 l 469 365 l 469 0 l 343 0 l 343 365 m 542 1288 l 542 1178 l 246 1019 l 246 1114 "},"Þ":{"ha":804,"x_min":0,"x_max":0,"o":"m 419 304 b 625 485 564 304 625 376 b 419 668 625 596 564 668 l 233 668 l 233 304 m 754 485 b 419 203 754 336 660 203 l 233 203 l 233 0 l 107 0 l 107 969 l 233 969 l 233 768 l 419 768 b 754 485 647 768 754 643 "},"ß":{"ha":946,"x_min":0,"x_max":0,"o":"m 83 779 b 410 1071 83 942 186 1071 b 714 840 610 1071 714 960 b 518 538 714 668 518 619 b 672 432 518 499 549 474 b 865 210 810 388 865 317 b 601 -14 865 78 768 -14 b 318 236 442 -14 332 79 l 446 236 b 601 88 451 147 507 88 b 736 200 688 88 736 128 b 599 336 736 267 701 303 b 390 521 453 385 390 433 b 588 831 390 663 588 708 b 408 964 588 914 518 964 b 210 764 267 964 210 889 l 210 0 l 83 0 "},"à":{"ha":939,"x_min":0,"x_max":0,"o":"m 60 383 b 421 774 60 621 217 774 b 704 622 563 774 660 701 l 704 761 l 832 761 l 832 0 l 704 0 l 704 142 b 419 -12 658 60 560 -12 b 60 383 217 -12 60 147 m 704 382 b 446 664 704 558 585 664 b 189 383 307 664 189 563 b 446 99 189 204 307 99 b 704 382 585 99 704 203 m 310 1086 l 606 913 l 606 818 l 310 976 "},"á":{"ha":939,"x_min":0,"x_max":0,"o":"m 60 383 b 421 774 60 621 217 774 b 704 622 563 774 660 701 l 704 761 l 832 761 l 832 0 l 704 0 l 704 142 b 419 -12 658 60 560 -12 b 60 383 217 -12 60 147 m 704 382 b 446 664 704 558 585 664 b 189 383 307 664 189 563 b 446 99 189 204 307 99 b 704 382 585 99 704 203 m 606 1086 l 606 976 l 310 818 l 310 913 "},"â":{"ha":939,"x_min":0,"x_max":0,"o":"m 60 383 b 421 774 60 621 217 774 b 704 622 563 774 660 701 l 704 761 l 832 761 l 832 0 l 704 0 l 704 142 b 419 -12 658 60 560 -12 b 60 383 217 -12 60 147 m 704 382 b 446 664 704 558 585 664 b 189 383 307 664 189 563 b 446 99 189 204 307 99 b 704 382 585 99 704 203 m 663 829 l 471 947 l 278 829 l 278 929 l 471 1044 l 663 929 "},"ã":{"ha":939,"x_min":0,"x_max":0,"o":"m 60 383 b 421 774 60 621 217 774 b 704 622 563 774 660 701 l 704 761 l 832 761 l 832 0 l 704 0 l 704 142 b 419 -12 658 60 560 -12 b 60 383 217 -12 60 147 m 704 382 b 446 664 704 558 585 664 b 189 383 307 664 189 563 b 446 99 189 204 307 99 b 704 382 585 99 704 203 m 267 843 b 406 989 281 939 333 989 b 564 925 479 989 507 925 b 625 985 594 925 619 944 l 697 985 b 558 840 686 890 631 840 b 400 904 483 840 456 904 b 340 843 369 904 346 885 l 267 843 "},"ä":{"ha":939,"x_min":0,"x_max":0,"o":"m 60 383 b 421 774 60 621 217 774 b 704 622 563 774 660 701 l 704 761 l 832 761 l 832 0 l 704 0 l 704 142 b 419 -12 658 60 560 -12 b 60 383 217 -12 60 147 m 704 382 b 446 664 704 558 585 664 b 189 383 307 664 189 563 b 446 99 189 204 307 99 b 704 382 585 99 704 203 m 358 864 b 285 936 317 864 285 896 b 358 1010 285 976 317 1010 b 431 936 397 1010 431 976 b 358 864 431 896 397 864 m 583 864 b 511 936 542 864 511 896 b 583 1010 511 976 542 1010 b 657 936 624 1010 657 976 b 583 864 657 896 624 864 "},"å":{"ha":939,"x_min":0,"x_max":0,"o":"m 60 383 b 421 774 60 621 217 774 b 704 622 563 774 660 701 l 704 761 l 832 761 l 832 0 l 704 0 l 704 142 b 419 -12 658 60 560 -12 b 60 383 217 -12 60 147 m 704 382 b 446 664 704 558 585 664 b 189 383 307 664 189 563 b 446 99 189 204 307 99 b 704 382 585 99 704 203 m 471 1135 b 619 989 553 1135 619 1079 b 471 843 619 899 553 843 b 322 989 390 843 322 899 b 471 1135 322 1079 390 1135 m 471 911 b 546 990 513 911 546 943 b 471 1068 546 1038 513 1068 b 396 990 429 1068 396 1038 b 471 911 396 943 429 911 "},"æ":{"ha":1524,"x_min":0,"x_max":0,"o":"m 1089 667 b 833 429 960 667 847 579 l 1335 429 b 1089 667 1336 581 1224 667 m 1449 235 b 1108 -12 1410 96 1290 -12 b 818 147 983 -12 872 50 l 818 0 l 708 0 l 708 146 b 421 -12 656 57 554 -12 b 60 383 217 -12 60 147 b 428 774 60 621 217 774 b 713 621 554 774 651 718 l 713 761 l 818 761 l 818 621 b 1108 774 888 728 988 774 b 1465 413 1325 774 1465 614 b 1460 338 1465 386 1464 364 l 833 338 b 1088 94 847 175 969 94 b 1313 235 1208 94 1288 151 l 1449 235 m 189 383 b 446 99 189 204 307 99 b 704 382 585 99 704 203 b 446 664 704 558 585 664 b 189 383 307 664 189 563 "},"ç":{"ha":843,"x_min":0,"x_max":0,"o":"m 60 382 b 431 774 60 621 214 774 b 782 517 619 774 743 676 l 646 517 b 431 667 619 608 543 667 b 189 382 292 667 189 568 b 431 94 189 193 292 94 b 646 244 543 94 618 149 l 782 244 b 469 -11 746 104 636 3 l 469 -81 b 649 -218 576 -79 649 -126 b 479 -361 649 -306 578 -361 l 319 -361 l 319 -279 l 454 -279 b 543 -218 514 -279 543 -262 b 454 -158 543 -175 514 -158 l 385 -158 l 385 -10 b 60 382 193 10 60 158 "},"è":{"ha":861,"x_min":0,"x_max":0,"o":"m 431 667 b 190 436 307 667 204 585 l 671 436 b 431 667 672 585 561 667 m 786 235 b 436 -12 747 96 625 -12 b 60 382 219 -12 60 140 b 436 774 60 622 214 774 b 801 410 657 774 801 618 b 797 333 801 382 800 360 l 189 333 b 436 94 199 179 307 94 b 650 235 550 94 622 153 l 786 235 m 271 1086 l 567 913 l 567 818 l 271 976 "},"é":{"ha":861,"x_min":0,"x_max":0,"o":"m 431 667 b 190 436 307 667 204 585 l 671 436 b 431 667 672 585 561 667 m 786 235 b 436 -12 747 96 625 -12 b 60 382 219 -12 60 140 b 436 774 60 622 214 774 b 801 410 657 774 801 618 b 797 333 801 382 800 360 l 189 333 b 436 94 199 179 307 94 b 650 235 550 94 622 153 l 786 235 m 567 1086 l 567 976 l 271 818 l 271 913 "},"ê":{"ha":861,"x_min":0,"x_max":0,"o":"m 431 667 b 190 436 307 667 204 585 l 671 436 b 431 667 672 585 561 667 m 786 235 b 436 -12 747 96 625 -12 b 60 382 219 -12 60 140 b 436 774 60 622 214 774 b 801 410 657 774 801 618 b 797 333 801 382 800 360 l 189 333 b 436 94 199 179 307 94 b 650 235 550 94 622 153 l 786 235 m 624 829 l 432 947 l 239 829 l 239 929 l 432 1044 l 624 929 "},"ë":{"ha":861,"x_min":0,"x_max":0,"o":"m 431 667 b 190 436 307 667 204 585 l 671 436 b 431 667 672 585 561 667 m 786 235 b 436 -12 747 96 625 -12 b 60 382 219 -12 60 140 b 436 774 60 622 214 774 b 801 410 657 774 801 618 b 797 333 801 382 800 360 l 189 333 b 436 94 199 179 307 94 b 650 235 550 94 622 153 l 786 235 m 318 864 b 244 936 276 864 244 896 b 318 1010 244 976 276 1010 b 390 936 357 1010 390 976 b 318 864 390 896 357 864 m 543 864 b 471 936 501 864 471 896 b 543 1010 471 976 501 1010 b 617 936 583 1010 617 976 b 543 864 617 896 583 864 "},"ì":{"ha":342,"x_min":0,"x_max":0,"o":"m 107 761 l 233 761 l 233 0 l 107 0 m 10 1086 l 306 913 l 306 818 l 10 976 "},"í":{"ha":342,"x_min":0,"x_max":0,"o":"m 107 761 l 233 761 l 233 0 l 107 0 m 306 1086 l 306 976 l 10 818 l 10 913 "},"î":{"ha":342,"x_min":0,"x_max":0,"o":"m 107 761 l 233 761 l 233 0 l 107 0 m 363 829 l 171 947 l -22 829 l -22 929 l 171 1044 l 363 929 "},"ï":{"ha":342,"x_min":0,"x_max":0,"o":"m 107 761 l 233 761 l 233 0 l 107 0 m 58 864 b -15 936 17 864 -15 896 b 58 1010 -15 976 17 1010 b 131 936 97 1010 131 976 b 58 864 131 896 97 864 m 283 864 b 211 936 242 864 211 896 b 283 1010 211 976 242 1010 b 357 936 324 1010 357 976 b 283 864 357 896 324 864 "},"ð":{"ha":886,"x_min":0,"x_max":0,"o":"m 493 939 b 392 1028 463 968 429 997 l 521 1028 b 585 971 543 1008 565 990 l 767 1032 l 767 961 l 636 917 b 828 438 763 776 828 619 b 439 -12 828 139 661 -12 b 60 386 217 -12 60 146 b 432 775 60 622 221 775 b 683 647 540 775 625 733 b 543 886 654 733 611 810 l 363 825 l 363 894 m 189 386 b 439 94 189 196 301 94 b 697 382 575 94 697 194 b 442 668 697 571 576 668 b 189 386 306 668 189 572 "},"ñ":{"ha":889,"x_min":0,"x_max":0,"o":"m 233 0 l 107 0 l 107 761 l 233 761 l 233 653 b 478 775 283 732 375 775 b 789 449 654 775 789 667 l 789 0 l 664 0 l 664 431 b 451 665 664 586 579 665 b 233 421 322 665 233 585 m 243 843 b 382 989 257 939 310 989 b 540 925 456 989 483 925 b 601 985 571 925 596 944 l 674 985 b 535 840 663 890 607 840 b 376 904 460 840 432 904 b 317 843 346 904 322 885 l 243 843 "},"ò":{"ha":889,"x_min":0,"x_max":0,"o":"m 829 382 b 439 -12 829 140 656 -12 b 60 382 224 -12 60 140 b 444 774 60 622 229 774 b 829 382 661 774 829 622 m 189 382 b 439 99 189 189 307 99 b 700 382 571 99 700 189 b 443 664 700 574 574 664 b 189 382 310 664 189 574 m 285 1096 l 581 922 l 581 828 l 285 986 "},"ó":{"ha":889,"x_min":0,"x_max":0,"o":"m 829 382 b 439 -12 829 140 656 -12 b 60 382 224 -12 60 140 b 444 774 60 622 229 774 b 829 382 661 774 829 622 m 189 382 b 439 99 189 189 307 99 b 700 382 571 99 700 189 b 443 664 700 574 574 664 b 189 382 310 664 189 574 m 581 1096 l 581 986 l 285 828 l 285 922 "},"ô":{"ha":889,"x_min":0,"x_max":0,"o":"m 829 382 b 439 -12 829 140 656 -12 b 60 382 224 -12 60 140 b 444 774 60 622 229 774 b 829 382 661 774 829 622 m 189 382 b 439 99 189 189 307 99 b 700 382 571 99 700 189 b 443 664 700 574 574 664 b 189 382 310 664 189 574 m 638 839 l 446 957 l 253 839 l 253 939 l 446 1054 l 638 939 "},"õ":{"ha":889,"x_min":0,"x_max":0,"o":"m 829 382 b 439 -12 829 140 656 -12 b 60 382 224 -12 60 140 b 444 774 60 622 229 774 b 829 382 661 774 829 622 m 189 382 b 439 99 189 189 307 99 b 700 382 571 99 700 189 b 443 664 700 574 574 664 b 189 382 310 664 189 574 m 242 853 b 381 999 256 949 308 999 b 539 935 454 999 482 935 b 600 994 569 935 594 954 l 672 994 b 533 850 661 900 606 850 b 375 914 458 850 431 914 b 315 853 344 914 321 894 l 242 853 "},"ö":{"ha":889,"x_min":0,"x_max":0,"o":"m 829 382 b 439 -12 829 140 656 -12 b 60 382 224 -12 60 140 b 444 774 60 622 229 774 b 829 382 661 774 829 622 m 189 382 b 439 99 189 189 307 99 b 700 382 571 99 700 189 b 443 664 700 574 574 664 b 189 382 310 664 189 574 m 333 874 b 260 946 292 874 260 906 b 333 1019 260 986 292 1019 b 406 946 372 1019 406 986 b 333 874 406 906 372 874 m 558 874 b 486 946 517 874 486 906 b 558 1019 486 986 517 1019 b 632 946 599 1019 632 986 b 558 874 632 906 599 874 "},"÷":{"ha":913,"x_min":0,"x_max":0,"o":"m 108 563 l 817 563 l 817 456 l 108 456 m 549 213 b 465 126 549 164 511 126 b 379 213 417 126 379 164 b 465 299 379 261 417 299 b 549 213 511 299 549 261 m 549 808 b 465 722 549 760 511 722 b 379 808 417 722 379 760 b 465 894 379 857 417 894 b 549 808 511 894 549 857 "},"ø":{"ha":889,"x_min":0,"x_max":0,"o":"m 829 382 b 439 -12 829 140 656 -12 b 201 64 347 -12 267 15 l 143 0 l 53 0 l 153 110 b 60 382 94 178 60 271 b 444 774 60 622 229 774 b 688 694 538 774 621 746 l 747 761 l 838 761 l 736 650 b 829 382 794 583 829 492 m 189 382 b 238 201 189 307 207 247 l 607 607 b 443 664 561 646 503 664 b 189 382 310 664 189 574 m 439 99 b 700 382 571 99 700 189 b 651 557 700 456 682 514 l 282 151 b 439 99 325 117 381 99 "},"ù":{"ha":889,"x_min":0,"x_max":0,"o":"m 782 0 l 656 0 l 656 113 b 413 -11 607 33 514 -11 b 100 315 238 -11 100 97 l 100 761 l 225 761 l 225 332 b 438 99 225 178 310 99 b 656 343 568 99 656 179 l 656 761 l 782 761 m 285 1086 l 581 913 l 581 818 l 285 976 "},"ú":{"ha":889,"x_min":0,"x_max":0,"o":"m 782 0 l 656 0 l 656 113 b 413 -11 607 33 514 -11 b 100 315 238 -11 100 97 l 100 761 l 225 761 l 225 332 b 438 99 225 178 310 99 b 656 343 568 99 656 179 l 656 761 l 782 761 m 581 1086 l 581 976 l 285 818 l 285 913 "},"û":{"ha":889,"x_min":0,"x_max":0,"o":"m 782 0 l 656 0 l 656 113 b 413 -11 607 33 514 -11 b 100 315 238 -11 100 97 l 100 761 l 225 761 l 225 332 b 438 99 225 178 310 99 b 656 343 568 99 656 179 l 656 761 l 782 761 m 638 829 l 446 947 l 253 829 l 253 929 l 446 1044 l 638 929 "},"ü":{"ha":889,"x_min":0,"x_max":0,"o":"m 782 0 l 656 0 l 656 113 b 413 -11 607 33 514 -11 b 100 315 238 -11 100 97 l 100 761 l 225 761 l 225 332 b 438 99 225 178 310 99 b 656 343 568 99 656 179 l 656 761 l 782 761 m 333 864 b 260 936 292 864 260 896 b 333 1010 260 976 292 1010 b 406 936 372 1010 406 976 b 333 864 406 896 372 864 m 558 864 b 486 936 517 864 486 896 b 558 1010 486 976 517 1010 b 632 936 599 1010 632 976 b 558 864 632 896 599 864 "},"ý":{"ha":782,"x_min":0,"x_max":0,"o":"m 632 761 l 763 761 l 304 -358 l 174 -358 l 324 8 l 17 761 l 157 761 l 396 144 m 526 1086 l 526 976 l 231 818 l 231 913 "},"þ":{"ha":939,"x_min":0,"x_max":0,"o":"m 233 600 b 518 774 279 699 379 774 b 879 383 722 774 879 621 b 518 -12 879 147 722 -12 b 233 167 379 -12 281 64 l 233 -361 l 107 -361 l 107 1028 l 233 1028 l 233 600 m 750 383 b 492 664 750 563 632 664 b 233 382 354 664 233 558 b 492 99 233 203 354 99 b 750 383 632 99 750 204 "},"ÿ":{"ha":782,"x_min":0,"x_max":0,"o":"m 632 761 l 763 761 l 304 -358 l 174 -358 l 324 8 l 17 761 l 157 761 l 396 144 m 279 864 b 206 936 238 864 206 896 b 279 1010 206 976 238 1010 b 351 936 318 1010 351 976 b 279 864 351 896 318 864 m 504 864 b 432 936 463 864 432 896 b 504 1010 432 976 463 1010 b 578 936 544 1010 578 976 b 504 864 578 896 544 864 "},"Ā":{"ha":936,"x_min":0,"x_max":0,"o":"m 679 215 l 257 215 l 179 0 l 46 0 l 396 963 l 542 963 l 890 0 l 757 0 m 224 1186 l 713 1186 l 713 1092 l 224 1092 m 468 807 l 293 318 l 643 318 "},"ā":{"ha":939,"x_min":0,"x_max":0,"o":"m 60 383 b 421 774 60 621 217 774 b 704 622 563 774 660 701 l 704 761 l 832 761 l 832 0 l 704 0 l 704 142 b 419 -12 658 60 560 -12 b 60 383 217 -12 60 147 m 704 382 b 446 664 704 558 585 664 b 189 383 307 664 189 563 b 446 99 189 204 307 99 b 704 382 585 99 704 203 m 226 985 l 715 985 l 715 890 l 226 890 "},"Ă":{"ha":936,"x_min":0,"x_max":0,"o":"m 679 215 l 257 215 l 179 0 l 46 0 l 396 963 l 542 963 l 890 0 l 757 0 m 667 1218 b 469 1038 667 1115 597 1038 b 271 1219 342 1038 271 1115 l 271 1243 l 346 1243 b 469 1136 346 1176 379 1136 b 592 1243 558 1136 592 1176 l 667 1243 l 667 1218 m 468 807 l 293 318 l 643 318 "},"ă":{"ha":939,"x_min":0,"x_max":0,"o":"m 60 383 b 421 774 60 621 217 774 b 704 622 563 774 660 701 l 704 761 l 832 761 l 832 0 l 704 0 l 704 142 b 419 -12 658 60 560 -12 b 60 383 217 -12 60 147 m 704 382 b 446 664 704 558 585 664 b 189 383 307 664 189 563 b 446 99 189 204 307 99 b 704 382 585 99 704 203 m 668 1017 b 471 836 668 914 599 836 b 272 1018 343 836 272 914 l 272 1042 l 347 1042 b 471 935 347 975 381 935 b 593 1042 560 935 593 975 l 668 1042 l 668 1017 "},"Ą":{"ha":936,"x_min":0,"x_max":0,"o":"m 542 963 l 890 0 l 815 -37 b 731 -135 751 -68 731 -100 b 813 -201 731 -178 764 -201 b 903 -183 839 -201 872 -194 l 903 -267 b 797 -286 872 -278 833 -286 b 626 -147 714 -286 626 -249 b 751 17 626 -87 660 -33 l 679 215 l 257 215 l 179 0 l 46 0 l 396 963 m 468 807 l 293 318 l 643 318 "},"ą":{"ha":939,"x_min":0,"x_max":0,"o":"m 60 383 b 421 774 60 621 217 774 b 704 622 563 774 660 701 l 704 761 l 832 761 l 832 0 l 756 -37 b 672 -135 693 -68 672 -100 b 754 -201 672 -178 704 -201 b 844 -183 781 -201 813 -194 l 844 -267 b 738 -286 813 -278 775 -286 b 568 -147 654 -286 568 -249 b 704 24 568 -86 604 -29 l 704 142 b 419 -12 658 60 560 -12 b 60 383 217 -12 60 147 m 704 382 b 446 664 704 558 585 664 b 189 383 307 664 189 563 b 446 99 189 204 307 99 b 704 382 585 99 704 203 "},"Ć":{"ha":1072,"x_min":0,"x_max":0,"o":"m 60 485 b 543 981 60 775 272 981 b 992 688 753 981 919 875 l 840 688 b 543 869 788 804 685 869 b 189 485 340 869 189 722 b 543 101 189 249 340 101 b 840 282 685 101 788 167 l 992 282 b 543 -8 919 96 753 -8 b 60 485 272 -8 60 194 m 686 1296 l 686 1186 l 390 1028 l 390 1122 "},"ć":{"ha":843,"x_min":0,"x_max":0,"o":"m 60 382 b 431 774 60 621 214 774 b 782 517 619 774 743 676 l 646 517 b 431 667 619 608 543 667 b 189 382 292 667 189 568 b 431 94 189 193 292 94 b 646 244 543 94 618 149 l 782 244 b 431 -12 743 93 619 -12 b 60 382 214 -12 60 140 m 558 1086 l 558 976 l 263 818 l 263 913 "},"Ċ":{"ha":1072,"x_min":0,"x_max":0,"o":"m 60 485 b 543 981 60 775 272 981 b 992 688 753 981 919 875 l 840 688 b 543 869 788 804 685 869 b 189 485 340 869 189 722 b 543 101 189 249 340 101 b 840 282 685 101 788 167 l 992 282 b 543 -8 919 96 753 -8 b 60 485 272 -8 60 194 m 551 1065 b 478 1138 510 1065 478 1097 b 551 1211 478 1178 510 1211 b 624 1138 592 1211 624 1178 b 551 1065 624 1097 592 1065 "},"ċ":{"ha":843,"x_min":0,"x_max":0,"o":"m 60 382 b 431 774 60 621 214 774 b 782 517 619 774 743 676 l 646 517 b 431 667 619 608 543 667 b 189 382 292 667 189 568 b 431 94 189 193 292 94 b 646 244 543 94 618 149 l 782 244 b 431 -12 743 93 619 -12 b 60 382 214 -12 60 140 m 422 857 b 349 929 381 857 349 889 b 422 1003 349 969 381 1003 b 494 929 463 1003 494 969 b 422 857 494 889 463 857 "},"Č":{"ha":1072,"x_min":0,"x_max":0,"o":"m 60 485 b 543 981 60 775 272 981 b 992 688 753 981 919 875 l 840 688 b 543 869 788 804 685 869 b 189 485 340 869 189 722 b 543 101 189 249 340 101 b 840 282 685 101 788 167 l 992 282 b 543 -8 919 96 753 -8 b 60 485 272 -8 60 194 m 743 1253 l 743 1153 l 551 1039 l 358 1153 l 358 1253 l 551 1135 "},"č":{"ha":843,"x_min":0,"x_max":0,"o":"m 60 382 b 431 774 60 621 214 774 b 782 517 619 774 743 676 l 646 517 b 431 667 619 608 543 667 b 189 382 292 667 189 568 b 431 94 189 193 292 94 b 646 244 543 94 618 149 l 782 244 b 431 -12 743 93 619 -12 b 60 382 214 -12 60 140 m 614 1043 l 614 943 l 422 829 l 229 943 l 229 1043 l 422 925 "},"Ď":{"ha":982,"x_min":0,"x_max":0,"o":"m 408 968 b 922 482 726 968 922 782 b 408 0 922 182 726 0 l 107 0 l 107 968 l 408 968 m 408 104 b 793 482 661 104 793 246 b 408 865 793 718 661 865 l 233 865 l 233 104 m 681 1244 l 681 1144 l 489 1031 l 296 1144 l 296 1244 l 489 1126 "},"ď":{"ha":1047,"x_min":0,"x_max":0,"o":"m 1032 1028 b 1047 900 1042 979 1047 938 b 906 743 1047 792 999 743 l 906 803 b 972 876 954 803 972 828 l 972 908 l 904 908 l 904 1028 m 60 383 b 422 774 60 621 217 774 b 704 625 542 774 651 713 l 704 1028 l 832 1028 l 832 0 l 704 0 l 704 143 b 421 -12 658 58 560 -12 b 60 383 217 -12 60 147 m 704 382 b 446 664 704 558 585 664 b 189 383 307 664 189 563 b 446 99 189 204 307 99 b 704 382 585 99 704 203 "},"Đ":{"ha":1007,"x_min":0,"x_max":0,"o":"m 435 968 b 947 482 751 968 947 782 b 435 0 947 182 751 0 l 133 0 l 133 424 l 13 424 l 13 540 l 133 540 l 133 968 l 435 968 m 435 97 b 818 482 686 97 818 246 b 435 865 818 718 686 865 l 260 865 l 260 540 l 526 540 l 526 424 l 260 424 l 260 97 "},"đ":{"ha":938,"x_min":0,"x_max":0,"o":"m 60 383 b 422 774 60 621 217 774 b 704 625 542 774 651 713 l 704 840 l 549 840 l 549 915 l 704 915 l 704 1028 l 832 1028 l 832 915 l 917 915 l 917 840 l 832 840 l 832 0 l 704 0 l 704 143 b 421 -12 658 58 560 -12 b 60 383 217 -12 60 147 m 704 382 b 446 664 704 558 585 664 b 189 383 307 664 189 563 b 446 99 189 204 307 99 b 704 382 585 99 704 203 "},"Ē":{"ha":713,"x_min":0,"x_max":0,"o":"m 628 865 l 233 865 l 233 542 l 586 542 l 586 438 l 233 438 l 233 104 l 628 104 l 628 0 l 107 0 l 107 969 l 628 969 m 108 1186 l 597 1186 l 597 1092 l 108 1092 "},"ē":{"ha":861,"x_min":0,"x_max":0,"o":"m 431 667 b 190 436 307 667 204 585 l 671 436 b 431 667 672 585 561 667 m 786 235 b 436 -12 747 96 625 -12 b 60 382 219 -12 60 140 b 436 774 60 622 214 774 b 801 410 657 774 801 618 b 797 333 801 382 800 360 l 189 333 b 436 94 199 179 307 94 b 650 235 550 94 622 153 l 786 235 m 186 985 l 675 985 l 675 890 l 186 890 "},"Ĕ":{"ha":713,"x_min":0,"x_max":0,"o":"m 628 865 l 233 865 l 233 542 l 586 542 l 586 438 l 233 438 l 233 104 l 628 104 l 628 0 l 107 0 l 107 969 l 628 969 m 551 1218 b 354 1038 551 1115 482 1038 b 156 1219 226 1038 156 1115 l 156 1243 l 231 1243 b 354 1136 231 1176 264 1136 b 476 1243 443 1136 476 1176 l 551 1243 l 551 1218 "},"ĕ":{"ha":861,"x_min":0,"x_max":0,"o":"m 431 667 b 190 436 307 667 204 585 l 671 436 b 431 667 672 585 561 667 m 786 235 b 436 -12 747 96 625 -12 b 60 382 219 -12 60 140 b 436 774 60 622 214 774 b 801 410 657 774 801 618 b 797 333 801 382 800 360 l 189 333 b 436 94 199 179 307 94 b 650 235 550 94 622 153 l 786 235 m 629 1017 b 432 836 629 914 560 836 b 233 1018 304 836 233 914 l 233 1042 l 308 1042 b 432 935 308 975 342 935 b 554 1042 521 935 554 975 l 629 1042 l 629 1017 "},"Ė":{"ha":713,"x_min":0,"x_max":0,"o":"m 628 865 l 233 865 l 233 542 l 586 542 l 586 438 l 233 438 l 233 104 l 628 104 l 628 0 l 107 0 l 107 969 l 628 969 m 354 1057 b 281 1129 313 1057 281 1089 b 354 1203 281 1169 313 1203 b 426 1129 394 1203 426 1169 b 354 1057 426 1089 394 1057 "},"ė":{"ha":861,"x_min":0,"x_max":0,"o":"m 431 667 b 190 436 307 667 204 585 l 671 436 b 431 667 672 585 561 667 m 786 235 b 436 -12 747 96 625 -12 b 60 382 219 -12 60 140 b 436 774 60 622 214 774 b 801 410 657 774 801 618 b 797 333 801 382 800 360 l 189 333 b 436 94 199 179 307 94 b 650 235 550 94 622 153 l 786 235 m 432 857 b 358 929 390 857 358 889 b 432 1003 358 969 390 1003 b 504 929 472 1003 504 969 b 432 857 504 889 472 857 "},"Ę":{"ha":713,"x_min":0,"x_max":0,"o":"m 628 865 l 233 865 l 233 542 l 586 542 l 586 438 l 233 438 l 233 104 l 628 104 l 628 0 l 551 -37 b 468 -135 489 -68 468 -100 b 550 -201 468 -178 500 -201 b 640 -183 576 -201 608 -194 l 640 -267 b 533 -286 608 -278 571 -286 b 364 -147 450 -286 364 -249 b 460 0 364 -94 390 -46 l 107 0 l 107 969 l 628 969 "},"ę":{"ha":861,"x_min":0,"x_max":0,"o":"m 431 667 b 190 436 307 667 204 585 l 671 436 b 431 667 672 585 561 667 m 596 -247 b 489 -267 564 -258 526 -267 b 319 -128 406 -267 319 -229 b 379 -8 319 -86 336 -46 b 60 382 192 15 60 163 b 436 774 60 622 214 774 b 801 410 657 774 801 618 b 797 333 801 382 800 360 l 189 333 b 436 94 199 179 307 94 b 650 235 550 94 622 153 l 786 235 b 546 1 756 125 672 35 l 507 -18 b 424 -115 444 -49 424 -81 b 506 -182 424 -158 456 -182 b 596 -164 532 -182 564 -175 l 596 -247 "},"Ě":{"ha":713,"x_min":0,"x_max":0,"o":"m 628 865 l 233 865 l 233 542 l 586 542 l 586 438 l 233 438 l 233 104 l 628 104 l 628 0 l 107 0 l 107 969 l 628 969 m 546 1244 l 546 1144 l 354 1031 l 161 1144 l 161 1244 l 354 1126 "},"ě":{"ha":861,"x_min":0,"x_max":0,"o":"m 431 667 b 190 436 307 667 204 585 l 671 436 b 431 667 672 585 561 667 m 786 235 b 436 -12 747 96 625 -12 b 60 382 219 -12 60 140 b 436 774 60 622 214 774 b 801 410 657 774 801 618 b 797 333 801 382 800 360 l 189 333 b 436 94 199 179 307 94 b 650 235 550 94 622 153 l 786 235 m 624 1043 l 624 943 l 432 829 l 239 943 l 239 1043 l 432 925 "},"Ğ":{"ha":1081,"x_min":0,"x_max":0,"o":"m 546 979 b 992 688 750 979 919 874 l 840 688 b 546 865 788 800 682 865 b 189 485 342 865 189 718 b 546 106 189 253 342 106 b 886 419 736 106 867 228 l 500 419 l 500 522 l 1021 522 l 1021 425 b 546 -8 999 185 808 -8 b 60 485 274 -8 60 194 b 546 979 60 775 274 979 m 743 1218 b 546 1038 743 1115 674 1038 b 347 1219 418 1038 347 1115 l 347 1243 l 422 1243 b 546 1136 422 1176 456 1136 b 668 1243 635 1136 668 1176 l 743 1243 l 743 1218 "},"ğ":{"ha":939,"x_min":0,"x_max":0,"o":"m 60 383 b 421 774 60 621 217 774 b 704 622 560 774 660 704 l 704 761 l 832 761 l 832 -17 b 468 -375 832 -226 692 -375 b 100 -111 268 -375 125 -274 l 225 -111 b 468 -265 253 -203 343 -265 b 704 -17 603 -265 704 -179 l 704 143 b 421 -12 658 61 560 -12 b 60 383 217 -12 60 147 m 704 382 b 446 664 704 558 585 664 b 189 383 307 664 189 563 b 446 99 189 204 307 99 b 704 382 585 99 704 203 m 668 1017 b 471 836 668 914 599 836 b 272 1018 343 836 272 914 l 272 1042 l 347 1042 b 471 935 347 975 381 935 b 593 1042 560 935 593 975 l 668 1042 l 668 1017 "},"Ġ":{"ha":1081,"x_min":0,"x_max":0,"o":"m 546 979 b 992 688 750 979 919 874 l 840 688 b 546 865 788 800 682 865 b 189 485 342 865 189 718 b 546 106 189 253 342 106 b 886 419 736 106 867 228 l 500 419 l 500 522 l 1021 522 l 1021 425 b 546 -8 999 185 808 -8 b 60 485 274 -8 60 194 b 546 979 60 775 274 979 m 544 1057 b 471 1129 503 1057 471 1089 b 544 1203 471 1169 503 1203 b 617 1129 585 1203 617 1169 b 544 1057 617 1089 585 1057 "},"ġ":{"ha":939,"x_min":0,"x_max":0,"o":"m 60 383 b 421 774 60 621 217 774 b 704 622 560 774 660 704 l 704 761 l 832 761 l 832 -17 b 468 -375 832 -226 692 -375 b 100 -111 268 -375 125 -274 l 225 -111 b 468 -265 253 -203 343 -265 b 704 -17 603 -265 704 -179 l 704 143 b 421 -12 658 61 560 -12 b 60 383 217 -12 60 147 m 704 382 b 446 664 704 558 585 664 b 189 383 307 664 189 563 b 446 99 189 204 307 99 b 704 382 585 99 704 203 m 471 857 b 397 929 429 857 397 889 b 471 1003 397 969 429 1003 b 543 929 511 1003 543 969 b 471 857 543 889 511 857 "},"Ģ":{"ha":1081,"x_min":0,"x_max":0,"o":"m 601 -68 b 617 -183 611 -110 617 -149 b 476 -343 617 -294 567 -343 l 476 -285 b 543 -207 524 -285 543 -257 l 543 -182 l 476 -182 l 476 -68 m 546 979 b 992 688 750 979 919 874 l 840 688 b 546 865 788 800 682 865 b 189 485 342 865 189 718 b 546 106 189 253 342 106 b 886 419 736 106 867 228 l 500 419 l 500 522 l 1021 522 l 1021 425 b 546 -8 999 185 808 -8 b 60 485 274 -8 60 194 b 546 979 60 775 274 979 "},"ģ":{"ha":939,"x_min":0,"x_max":0,"o":"m 404 828 b 389 956 393 876 389 918 b 529 1113 389 1064 438 1113 l 529 1054 b 464 979 483 1054 464 1028 l 464 947 l 531 947 l 531 828 m 60 383 b 421 774 60 621 217 774 b 704 622 560 774 660 704 l 704 761 l 832 761 l 832 -17 b 468 -375 832 -226 692 -375 b 100 -111 268 -375 125 -274 l 225 -111 b 468 -265 253 -203 343 -265 b 704 -17 603 -265 704 -179 l 704 143 b 421 -12 658 61 560 -12 b 60 383 217 -12 60 147 m 704 382 b 446 664 704 558 585 664 b 189 383 307 664 189 563 b 446 99 189 204 307 99 b 704 382 585 99 704 203 "},"Ĩ":{"ha":342,"x_min":0,"x_max":0,"o":"m 107 968 l 233 968 l 233 0 l 107 0 m -33 1044 b 106 1190 -19 1140 33 1190 b 264 1126 179 1190 207 1126 b 325 1186 294 1126 319 1146 l 397 1186 b 258 1042 386 1092 331 1042 b 100 1106 183 1042 156 1106 b 40 1044 69 1106 46 1086 l -33 1044 "},"ĩ":{"ha":342,"x_min":0,"x_max":0,"o":"m 107 761 l 233 761 l 233 0 l 107 0 m -33 843 b 106 989 -19 939 33 989 b 264 925 179 989 207 925 b 325 985 294 925 319 944 l 397 985 b 258 840 386 890 331 840 b 100 904 183 840 156 904 b 40 843 69 904 46 885 l -33 843 "},"Ī":{"ha":342,"x_min":0,"x_max":0,"o":"m 107 968 l 233 968 l 233 0 l 107 0 m -75 1186 l 414 1186 l 414 1092 l -75 1092 "},"ī":{"ha":342,"x_min":0,"x_max":0,"o":"m 107 761 l 233 761 l 233 0 l 107 0 m -75 985 l 414 985 l 414 890 l -75 890 "},"Ĭ":{"ha":342,"x_min":0,"x_max":0,"o":"m 107 968 l 233 968 l 233 0 l 107 0 m 368 1218 b 171 1038 368 1115 299 1038 b -28 1219 43 1038 -28 1115 l -28 1243 l 47 1243 b 171 1136 47 1176 81 1136 b 293 1243 260 1136 293 1176 l 368 1243 l 368 1218 "},"ĭ":{"ha":342,"x_min":0,"x_max":0,"o":"m 107 761 l 233 761 l 233 0 l 107 0 m 368 1017 b 171 836 368 914 299 836 b -28 1018 43 836 -28 914 l -28 1042 l 47 1042 b 171 935 47 975 81 935 b 293 1042 260 935 293 975 l 368 1042 l 368 1017 "},"Į":{"ha":342,"x_min":0,"x_max":0,"o":"m 246 -265 b 139 -285 214 -276 176 -285 b -31 -146 56 -285 -31 -247 b 107 25 -31 -85 7 -26 l 107 968 l 233 968 l 233 0 l 231 0 l 157 -36 b 74 -133 94 -67 74 -99 b 156 -200 74 -176 106 -200 b 246 -182 182 -200 214 -193 l 246 -265 "},"į":{"ha":342,"x_min":0,"x_max":0,"o":"m 246 -265 b 139 -285 214 -276 176 -285 b -31 -146 56 -285 -31 -247 b 107 25 -31 -85 7 -26 l 107 761 l 233 761 l 233 0 l 231 0 l 157 -36 b 74 -133 94 -67 74 -99 b 156 -200 74 -176 106 -200 b 246 -182 182 -200 214 -193 l 246 -265 m 172 885 b 86 971 124 885 86 922 b 172 1057 86 1019 124 1057 b 256 971 218 1057 256 1019 b 172 885 256 922 218 885 "},"İ":{"ha":342,"x_min":0,"x_max":0,"o":"m 107 968 l 233 968 l 233 0 l 107 0 m 171 1057 b 97 1129 129 1057 97 1089 b 171 1203 97 1169 129 1203 b 243 1129 211 1203 243 1169 b 171 1057 243 1089 211 1057 "},"ı":{"ha":342,"x_min":0,"x_max":0,"o":"m 107 761 l 233 761 l 233 0 l 107 0 "},"Ķ":{"ha":832,"x_min":0,"x_max":0,"o":"m 474 -68 b 489 -183 485 -110 489 -149 b 350 -343 489 -294 440 -343 l 350 -285 b 415 -207 396 -285 415 -257 l 415 -182 l 349 -182 l 349 -68 m 233 442 l 233 0 l 107 0 l 107 968 l 233 968 l 233 519 l 633 968 l 793 968 l 354 483 l 797 0 l 632 0 "},"ķ":{"ha":715,"x_min":0,"x_max":0,"o":"m 419 -68 b 433 -183 429 -110 433 -149 b 294 -343 433 -294 385 -343 l 294 -285 b 360 -207 340 -285 360 -257 l 360 -182 l 294 -182 l 294 -68 m 107 1028 l 233 1028 l 233 424 l 526 761 l 703 761 l 344 382 l 704 0 l 532 0 l 233 336 l 233 0 l 107 0 "},"Ĺ":{"ha":600,"x_min":0,"x_max":0,"o":"m 233 968 l 233 103 l 572 103 l 572 0 l 107 0 l 107 968 m 436 1288 l 436 1178 l 140 1019 l 140 1114 "},"ĺ":{"ha":342,"x_min":0,"x_max":0,"o":"m 107 1028 l 233 1028 l 233 0 l 107 0 m 306 1353 l 306 1243 l 10 1085 l 10 1179 "},"Ļ":{"ha":600,"x_min":0,"x_max":0,"o":"m 399 -68 b 414 -183 410 -110 414 -149 b 274 -343 414 -294 364 -343 l 274 -285 b 339 -207 319 -285 339 -257 l 339 -182 l 272 -182 l 272 -68 m 233 968 l 233 103 l 572 103 l 572 0 l 107 0 l 107 968 "},"ļ":{"ha":342,"x_min":0,"x_max":0,"o":"m 231 -68 b 246 -183 240 -110 246 -149 b 104 -343 246 -294 194 -343 l 104 -285 b 171 -207 151 -285 171 -257 l 171 -182 l 104 -182 l 104 -68 m 107 1028 l 233 1028 l 233 0 l 107 0 "},"Ľ":{"ha":619,"x_min":0,"x_max":0,"o":"m 518 968 b 533 842 529 919 533 878 b 393 683 533 732 485 683 l 393 743 b 458 818 440 743 458 768 l 458 850 l 390 850 l 390 968 m 233 968 l 233 103 l 572 103 l 572 0 l 107 0 l 107 968 "},"ľ":{"ha":513,"x_min":0,"x_max":0,"o":"m 463 1028 b 478 900 474 979 478 938 b 338 743 478 792 429 743 l 338 803 b 404 876 385 803 404 828 l 404 908 l 335 908 l 335 1028 m 107 1028 l 233 1028 l 233 0 l 107 0 "},"Ŀ":{"ha":600,"x_min":0,"x_max":0,"o":"m 233 968 l 233 103 l 572 103 l 572 0 l 107 0 l 107 968 m 301 1057 b 228 1129 260 1057 228 1089 b 301 1203 228 1169 260 1203 b 374 1129 342 1203 374 1169 b 301 1057 374 1089 342 1057 "},"ŀ":{"ha":342,"x_min":0,"x_max":0,"o":"m 171 1076 b 97 1149 129 1076 97 1108 b 171 1222 97 1189 129 1222 b 244 1149 211 1222 244 1189 b 171 1076 244 1108 211 1076 m 107 1028 l 233 1028 l 233 0 l 107 0 "},"Ł":{"ha":607,"x_min":0,"x_max":0,"o":"m 253 968 l 253 571 l 404 625 l 404 528 l 253 474 l 253 97 l 590 97 l 590 0 l 126 0 l 126 428 l 13 388 l 13 483 l 126 525 l 126 968 "},"ł":{"ha":349,"x_min":0,"x_max":0,"o":"m 111 468 l 13 429 l 13 529 l 111 567 l 111 1028 l 238 1028 l 238 617 l 336 654 l 336 556 l 238 517 l 238 0 l 111 0 "},"Ń":{"ha":976,"x_min":0,"x_max":0,"o":"m 868 969 l 868 0 l 742 0 l 233 771 l 233 0 l 107 0 l 107 969 l 233 969 l 742 200 l 742 969 m 624 1288 l 624 1178 l 328 1019 l 328 1114 "},"ń":{"ha":889,"x_min":0,"x_max":0,"o":"m 582 1086 l 582 976 l 286 818 l 286 913 m 664 431 b 451 665 664 586 579 665 b 233 421 322 665 233 585 l 233 0 l 107 0 l 107 761 l 233 761 l 233 653 b 478 775 283 732 375 775 b 789 449 654 775 789 667 l 789 0 l 664 0 "},"Ņ":{"ha":976,"x_min":0,"x_max":0,"o":"m 547 -68 b 563 -183 558 -110 563 -149 b 424 -343 563 -294 513 -343 l 424 -285 b 488 -207 468 -285 488 -257 l 488 -182 l 422 -182 l 422 -68 m 868 969 l 868 0 l 742 0 l 233 771 l 233 0 l 107 0 l 107 969 l 233 969 l 742 200 l 742 969 "},"ņ":{"ha":889,"x_min":0,"x_max":0,"o":"m 506 -68 b 522 -183 517 -110 522 -149 b 382 -343 522 -294 472 -343 l 382 -285 b 447 -207 428 -285 447 -257 l 447 -182 l 381 -182 l 381 -68 m 664 431 b 451 665 664 586 579 665 b 233 421 322 665 233 585 l 233 0 l 107 0 l 107 761 l 233 761 l 233 653 b 478 775 283 732 375 775 b 789 449 654 775 789 667 l 789 0 l 664 0 "},"Ň":{"ha":976,"x_min":0,"x_max":0,"o":"m 868 969 l 868 0 l 742 0 l 233 771 l 233 0 l 107 0 l 107 969 l 233 969 l 742 200 l 742 969 m 681 1244 l 681 1144 l 489 1031 l 296 1144 l 296 1244 l 489 1126 "},"ň":{"ha":889,"x_min":0,"x_max":0,"o":"m 664 431 b 451 665 664 586 579 665 b 233 421 322 665 233 585 l 233 0 l 107 0 l 107 761 l 233 761 l 233 653 b 478 775 283 732 375 775 b 789 449 654 775 789 667 l 789 0 l 664 0 m 639 1043 l 639 943 l 447 829 l 254 943 l 254 1043 l 447 925 "},"Ō":{"ha":1092,"x_min":0,"x_max":0,"o":"m 1032 485 b 546 -10 1032 194 819 -10 b 60 485 274 -10 60 194 b 546 979 60 775 274 979 b 1032 485 819 979 1032 775 m 189 485 b 546 100 189 249 342 100 b 903 485 750 100 903 249 b 546 869 903 722 750 869 b 189 485 342 869 189 722 m 304 1186 l 793 1186 l 793 1092 l 304 1092 "},"ō":{"ha":889,"x_min":0,"x_max":0,"o":"m 829 382 b 439 -12 829 140 656 -12 b 60 382 224 -12 60 140 b 444 774 60 622 229 774 b 829 382 661 774 829 622 m 189 382 b 439 99 189 189 307 99 b 700 382 571 99 700 189 b 443 664 700 574 574 664 b 189 382 310 664 189 574 m 200 994 l 689 994 l 689 900 l 200 900 "},"Ŏ":{"ha":1092,"x_min":0,"x_max":0,"o":"m 1032 485 b 546 -10 1032 194 819 -10 b 60 485 274 -10 60 194 b 546 979 60 775 274 979 b 1032 485 819 979 1032 775 m 189 485 b 546 100 189 249 342 100 b 903 485 750 100 903 249 b 546 869 903 722 750 869 b 189 485 342 869 189 722 m 747 1218 b 550 1038 747 1115 678 1038 b 351 1219 422 1038 351 1115 l 351 1243 l 426 1243 b 550 1136 426 1176 460 1136 b 672 1243 639 1136 672 1176 l 747 1243 l 747 1218 "},"ŏ":{"ha":889,"x_min":0,"x_max":0,"o":"m 829 382 b 439 -12 829 140 656 -12 b 60 382 224 -12 60 140 b 444 774 60 622 229 774 b 829 382 661 774 829 622 m 189 382 b 439 99 189 189 307 99 b 700 382 571 99 700 189 b 443 664 700 574 574 664 b 189 382 310 664 189 574 m 643 1026 b 446 846 643 924 574 846 b 247 1028 318 846 247 924 l 247 1051 l 322 1051 b 446 944 322 985 356 944 b 568 1051 535 944 568 985 l 643 1051 l 643 1026 "},"Ő":{"ha":1092,"x_min":0,"x_max":0,"o":"m 1032 485 b 546 -10 1032 194 819 -10 b 60 485 274 -10 60 194 b 546 979 60 775 274 979 b 1032 485 819 979 1032 775 m 189 485 b 546 100 189 249 342 100 b 903 485 750 100 903 249 b 546 869 903 722 750 869 b 189 485 342 869 189 722 m 596 1250 l 475 1036 l 390 1036 l 483 1250 m 808 1250 l 681 1036 l 597 1036 l 697 1250 "},"ő":{"ha":889,"x_min":0,"x_max":0,"o":"m 829 382 b 439 -12 829 140 656 -12 b 60 382 224 -12 60 140 b 444 774 60 622 229 774 b 829 382 661 774 829 622 m 189 382 b 439 99 189 189 307 99 b 700 382 571 99 700 189 b 443 664 700 574 574 664 b 189 382 310 664 189 574 m 492 1058 l 371 844 l 286 844 l 379 1058 m 704 1058 l 576 844 l 493 844 l 593 1058 "},"Œ":{"ha":1508,"x_min":0,"x_max":0,"o":"m 1029 869 l 1029 538 l 1381 538 l 1381 439 l 1029 439 l 1029 100 l 1422 100 l 1422 0 l 903 0 l 903 199 b 536 -10 831 64 699 -10 b 60 485 274 -10 60 194 b 535 979 60 778 275 979 b 903 775 699 979 831 906 l 903 968 l 1422 968 l 1422 869 m 546 865 b 189 485 342 865 189 718 b 546 104 189 253 342 104 b 903 485 750 104 903 253 b 546 865 903 718 750 865 "},"œ":{"ha":1500,"x_min":0,"x_max":0,"o":"m 699 382 b 442 667 699 574 574 667 b 189 382 310 667 189 574 b 439 94 189 189 307 94 b 699 382 571 94 699 189 m 1069 667 b 829 425 943 667 839 581 l 1310 425 b 1069 667 1311 581 1200 667 m 60 382 b 444 774 60 622 229 774 b 761 589 582 774 700 706 b 1075 774 819 706 933 774 b 1440 413 1296 774 1440 618 b 1435 338 1440 386 1439 364 l 829 338 b 1069 94 836 181 939 94 b 1285 235 1185 94 1257 153 l 1421 235 b 1069 -12 1382 96 1260 -12 b 761 175 932 -12 819 56 b 439 -12 697 56 578 -12 b 60 382 222 -12 60 140 "},"Ŕ":{"ha":844,"x_min":0,"x_max":0,"o":"m 625 683 b 419 864 625 793 564 864 l 233 864 l 233 497 l 419 497 b 625 683 563 497 625 575 m 419 968 b 756 683 647 968 756 842 b 525 406 756 560 688 442 l 768 0 l 617 0 l 386 396 l 233 396 l 233 0 l 107 0 l 107 968 m 567 1288 l 567 1178 l 271 1019 l 271 1114 "},"ŕ":{"ha":518,"x_min":0,"x_max":0,"o":"m 233 0 l 107 0 l 107 761 l 233 761 l 233 638 b 479 775 276 722 358 775 l 479 644 l 446 644 b 233 414 325 644 233 590 m 456 1086 l 456 976 l 160 818 l 160 913 "},"Ŗ":{"ha":844,"x_min":0,"x_max":0,"o":"m 481 -68 b 494 -183 490 -110 494 -149 b 356 -343 494 -294 446 -343 l 356 -285 b 421 -207 401 -285 421 -257 l 421 -182 l 356 -182 l 356 -68 m 107 0 l 107 968 l 419 968 b 756 683 647 968 756 842 b 525 406 756 560 688 442 l 768 0 l 617 0 l 386 396 l 233 396 l 233 0 m 625 683 b 419 864 625 793 564 864 l 233 864 l 233 497 l 419 497 b 625 683 563 497 625 575 "},"ŗ":{"ha":518,"x_min":0,"x_max":0,"o":"m 229 -68 b 244 -183 240 -110 244 -149 b 104 -343 244 -294 194 -343 l 104 -285 b 169 -207 150 -285 169 -257 l 169 -182 l 104 -182 l 104 -68 m 233 0 l 107 0 l 107 761 l 233 761 l 233 638 b 479 775 276 722 358 775 l 479 644 l 446 644 b 233 414 325 644 233 590 "},"Ř":{"ha":844,"x_min":0,"x_max":0,"o":"m 625 683 b 419 864 625 793 564 864 l 233 864 l 233 497 l 419 497 b 625 683 563 497 625 575 m 419 968 b 756 683 647 968 756 842 b 525 406 756 560 688 442 l 768 0 l 617 0 l 386 396 l 233 396 l 233 0 l 107 0 l 107 968 m 624 1244 l 624 1144 l 432 1031 l 239 1144 l 239 1244 l 432 1126 "},"ř":{"ha":518,"x_min":0,"x_max":0,"o":"m 233 0 l 107 0 l 107 761 l 233 761 l 233 638 b 479 775 276 722 358 775 l 479 644 l 446 644 b 233 414 325 644 233 590 m 513 1043 l 513 943 l 321 829 l 128 943 l 128 1043 l 321 925 "},"Ś":{"ha":815,"x_min":0,"x_max":0,"o":"m 736 264 b 414 -10 736 126 624 -10 b 79 258 219 -10 82 99 l 214 258 b 414 97 222 178 279 97 b 608 258 536 97 608 167 b 85 713 608 519 85 353 b 406 981 85 872 214 981 b 726 732 590 981 711 879 l 588 732 b 400 872 579 797 518 871 b 214 717 296 875 214 821 b 736 264 214 467 736 622 m 540 1296 l 540 1186 l 244 1028 l 244 1122 "},"ś":{"ha":725,"x_min":0,"x_max":0,"o":"m 654 207 b 376 -12 654 82 544 -12 b 65 224 199 -12 74 85 l 196 224 b 375 94 203 150 268 94 b 531 207 475 94 531 144 b 81 561 531 376 81 278 b 360 774 81 678 190 774 b 647 535 528 774 639 683 l 521 535 b 356 667 515 611 457 667 b 207 561 263 667 207 622 b 654 207 207 381 649 479 m 497 1096 l 497 986 l 201 828 l 201 922 "},"Ş":{"ha":815,"x_min":0,"x_max":0,"o":"m 736 264 b 457 -8 736 136 639 10 l 457 -87 b 636 -225 564 -86 636 -133 b 467 -368 636 -312 565 -368 l 307 -368 l 307 -286 l 442 -286 b 531 -225 501 -286 531 -269 b 442 -165 531 -182 501 -165 l 372 -165 l 372 -8 b 79 258 200 7 82 110 l 214 258 b 414 97 222 178 279 97 b 608 258 536 97 608 167 b 85 713 608 519 85 353 b 406 981 85 872 214 981 b 726 732 590 981 711 879 l 588 732 b 400 872 579 797 518 871 b 214 717 296 875 214 821 b 736 264 214 467 736 622 "},"ş":{"ha":725,"x_min":0,"x_max":0,"o":"m 654 207 b 410 -11 654 90 558 0 l 410 -81 b 589 -218 517 -79 589 -126 b 419 -361 589 -306 518 -361 l 260 -361 l 260 -279 l 394 -279 b 483 -218 454 -279 483 -262 b 394 -158 483 -175 454 -158 l 325 -158 l 325 -10 b 65 224 175 7 72 99 l 196 224 b 375 94 203 150 268 94 b 531 207 475 94 531 144 b 81 561 531 376 81 278 b 360 774 81 678 190 774 b 647 535 528 774 639 683 l 521 535 b 356 667 515 611 457 667 b 207 561 263 667 207 622 b 654 207 207 381 649 479 "},"Š":{"ha":815,"x_min":0,"x_max":0,"o":"m 736 264 b 414 -10 736 126 624 -10 b 79 258 219 -10 82 99 l 214 258 b 414 97 222 178 279 97 b 608 258 536 97 608 167 b 85 713 608 519 85 353 b 406 981 85 872 214 981 b 726 732 590 981 711 879 l 588 732 b 400 872 579 797 518 871 b 214 717 296 875 214 821 b 736 264 214 467 736 622 m 596 1253 l 596 1153 l 404 1039 l 211 1153 l 211 1253 l 404 1135 "},"š":{"ha":725,"x_min":0,"x_max":0,"o":"m 654 207 b 376 -12 654 82 544 -12 b 65 224 199 -12 74 85 l 196 224 b 375 94 203 150 268 94 b 531 207 475 94 531 144 b 81 561 531 376 81 278 b 360 774 81 678 190 774 b 647 535 528 774 639 683 l 521 535 b 356 667 515 611 457 667 b 207 561 263 667 207 622 b 654 207 207 381 649 479 m 554 1053 l 554 953 l 363 839 l 169 953 l 169 1053 l 363 935 "},"Ţ":{"ha":751,"x_min":0,"x_max":0,"o":"m 47 968 l 703 968 l 703 865 l 439 865 l 439 0 l 419 0 l 419 -81 b 599 -218 526 -79 599 -126 b 429 -361 599 -306 528 -361 l 269 -361 l 269 -279 l 404 -279 b 493 -218 464 -279 493 -262 b 404 -158 493 -175 464 -158 l 335 -158 l 335 0 l 313 0 l 313 865 l 47 865 "},"ţ":{"ha":506,"x_min":0,"x_max":0,"o":"m 135 657 l 36 657 l 36 761 l 135 761 l 135 953 l 261 953 l 261 761 l 460 761 l 460 657 l 261 657 l 261 208 b 367 107 261 133 289 107 l 460 107 l 460 0 l 346 0 b 315 1 335 0 325 0 l 315 -81 b 494 -218 421 -79 494 -126 b 325 -361 494 -306 424 -361 l 165 -361 l 165 -279 l 300 -279 b 389 -218 360 -279 389 -262 b 300 -158 389 -175 360 -158 l 229 -158 l 229 21 b 135 208 168 49 135 107 "},"Ť":{"ha":751,"x_min":0,"x_max":0,"o":"m 47 968 l 703 968 l 703 865 l 439 865 l 439 0 l 313 0 l 313 865 l 47 865 m 568 1244 l 568 1144 l 376 1031 l 183 1144 l 183 1244 l 376 1126 "},"ť":{"ha":510,"x_min":0,"x_max":0,"o":"m 490 1074 b 507 956 501 1025 507 993 b 365 821 507 860 457 821 l 365 879 b 432 929 411 879 432 894 l 432 954 l 364 954 l 364 1074 m 135 657 l 36 657 l 36 761 l 135 761 l 135 953 l 261 953 l 261 761 l 460 761 l 460 657 l 261 657 l 261 208 b 367 107 261 133 289 107 l 460 107 l 460 0 l 346 0 b 135 208 211 0 135 56 "},"Ũ":{"ha":938,"x_min":0,"x_max":0,"o":"m 104 968 l 231 968 l 231 356 b 469 101 231 178 326 101 b 707 356 613 101 707 178 l 707 968 l 833 968 l 833 357 b 468 -10 833 106 668 -10 b 104 357 268 -10 104 106 m 264 1044 b 403 1190 278 1140 331 1190 b 561 1126 476 1190 504 1126 b 622 1186 592 1126 617 1146 l 694 1186 b 556 1042 683 1092 628 1042 b 397 1106 481 1042 453 1106 b 338 1044 367 1106 343 1086 l 264 1044 "},"ũ":{"ha":889,"x_min":0,"x_max":0,"o":"m 656 113 b 413 -11 607 33 514 -11 b 100 315 238 -11 100 97 l 100 761 l 225 761 l 225 332 b 438 99 225 178 310 99 b 656 343 568 99 656 179 l 656 761 l 782 761 l 782 0 l 656 0 m 242 843 b 381 989 256 939 308 989 b 539 925 454 989 482 925 b 600 985 569 925 594 944 l 672 985 b 533 840 661 890 606 840 b 375 904 458 840 431 904 b 315 843 344 904 321 885 l 242 843 "},"Ū":{"ha":938,"x_min":0,"x_max":0,"o":"m 104 968 l 231 968 l 231 356 b 469 101 231 178 326 101 b 707 356 613 101 707 178 l 707 968 l 833 968 l 833 357 b 468 -10 833 106 668 -10 b 104 357 268 -10 104 106 m 224 1186 l 713 1186 l 713 1092 l 224 1092 "},"ū":{"ha":889,"x_min":0,"x_max":0,"o":"m 782 0 l 656 0 l 656 113 b 413 -11 607 33 514 -11 b 100 315 238 -11 100 97 l 100 761 l 225 761 l 225 332 b 438 99 225 178 310 99 b 656 343 568 99 656 179 l 656 761 l 782 761 m 200 985 l 689 985 l 689 890 l 200 890 "},"Ŭ":{"ha":938,"x_min":0,"x_max":0,"o":"m 104 968 l 231 968 l 231 356 b 469 101 231 178 326 101 b 707 356 613 101 707 178 l 707 968 l 833 968 l 833 357 b 468 -10 833 106 668 -10 b 104 357 268 -10 104 106 m 667 1218 b 469 1038 667 1115 597 1038 b 271 1219 342 1038 271 1115 l 271 1243 l 346 1243 b 469 1136 346 1176 379 1136 b 592 1243 558 1136 592 1176 l 667 1243 l 667 1218 "},"ŭ":{"ha":889,"x_min":0,"x_max":0,"o":"m 782 0 l 656 0 l 656 113 b 413 -11 607 33 514 -11 b 100 315 238 -11 100 97 l 100 761 l 225 761 l 225 332 b 438 99 225 178 310 99 b 656 343 568 99 656 179 l 656 761 l 782 761 m 643 1017 b 446 836 643 914 574 836 b 247 1018 318 836 247 914 l 247 1042 l 322 1042 b 446 935 322 975 356 935 b 568 1042 535 935 568 975 l 643 1042 l 643 1017 "},"Ů":{"ha":938,"x_min":0,"x_max":0,"o":"m 104 968 l 231 968 l 231 356 b 469 101 231 178 326 101 b 707 356 613 101 707 178 l 707 968 l 833 968 l 833 357 b 468 -10 833 106 668 -10 b 104 357 268 -10 104 106 m 469 1336 b 618 1190 551 1336 618 1281 b 469 1044 618 1100 551 1044 b 321 1190 389 1044 321 1100 b 469 1336 321 1281 389 1336 m 469 1113 b 544 1192 511 1113 544 1144 b 469 1269 544 1239 511 1269 b 394 1192 428 1269 394 1239 b 469 1113 394 1144 428 1113 "},"ů":{"ha":889,"x_min":0,"x_max":0,"o":"m 782 0 l 656 0 l 656 113 b 413 -11 607 33 514 -11 b 100 315 238 -11 100 97 l 100 761 l 225 761 l 225 332 b 438 99 225 178 310 99 b 656 343 568 99 656 179 l 656 761 l 782 761 m 446 911 b 521 990 488 911 521 943 b 446 1068 521 1038 488 1068 b 371 990 404 1068 371 1038 b 446 911 371 943 404 911 m 446 1135 b 594 989 528 1135 594 1079 b 446 843 594 899 528 843 b 297 989 365 843 297 899 b 446 1135 297 1079 365 1135 "},"Ű":{"ha":938,"x_min":0,"x_max":0,"o":"m 104 968 l 231 968 l 231 356 b 469 101 231 178 326 101 b 707 356 613 101 707 178 l 707 968 l 833 968 l 833 357 b 468 -10 833 106 668 -10 b 104 357 268 -10 104 106 m 515 1250 l 394 1036 l 310 1036 l 403 1250 m 728 1250 l 600 1036 l 517 1036 l 617 1250 "},"ű":{"ha":889,"x_min":0,"x_max":0,"o":"m 782 0 l 656 0 l 656 113 b 413 -11 607 33 514 -11 b 100 315 238 -11 100 97 l 100 761 l 225 761 l 225 332 b 438 99 225 178 310 99 b 656 343 568 99 656 179 l 656 761 l 782 761 m 492 1049 l 371 835 l 286 835 l 379 1049 m 704 1049 l 576 835 l 493 835 l 593 1049 "},"Ų":{"ha":938,"x_min":0,"x_max":0,"o":"m 104 968 l 231 968 l 231 356 b 469 101 231 178 326 101 b 707 356 613 101 707 178 l 707 968 l 833 968 l 833 357 b 567 0 833 149 719 33 l 567 0 l 490 -37 b 407 -135 428 -68 407 -100 b 489 -201 407 -178 439 -201 b 579 -183 515 -201 547 -194 l 579 -267 b 472 -286 547 -278 510 -286 b 303 -147 389 -286 303 -249 b 393 -4 303 -96 328 -49 b 104 357 229 22 104 138 "},"ų":{"ha":889,"x_min":0,"x_max":0,"o":"m 782 0 l 781 0 l 782 -1 l 706 -39 b 622 -136 643 -69 622 -101 b 704 -203 622 -179 654 -203 b 794 -185 731 -203 763 -196 l 794 -268 b 688 -287 763 -279 725 -287 b 518 -149 604 -287 518 -250 b 656 22 518 -87 556 -29 l 656 113 b 413 -11 607 33 514 -11 b 100 315 238 -11 100 97 l 100 761 l 225 761 l 225 332 b 438 99 225 178 310 99 b 656 343 568 99 656 179 l 656 761 l 782 761 "},"Ŵ":{"ha":1356,"x_min":0,"x_max":0,"o":"m 32 968 l 167 968 l 378 147 l 611 968 l 753 968 l 975 150 l 1188 968 l 1324 968 l 1043 0 l 901 0 l 676 779 l 443 0 l 303 -1 m 865 1042 l 674 1160 l 481 1042 l 481 1142 l 674 1257 l 865 1142 "},"ŵ":{"ha":1139,"x_min":0,"x_max":0,"o":"m 17 761 l 146 761 l 321 122 l 510 761 l 639 761 l 824 121 l 996 761 l 1121 761 l 883 0 l 753 0 l 569 604 l 386 0 l 256 0 m 763 829 l 571 947 l 378 829 l 378 929 l 571 1044 l 763 929 "},"Ŷ":{"ha":811,"x_min":0,"x_max":0,"o":"m 26 968 l 167 968 l 406 478 l 644 968 l 785 968 l 469 365 l 469 0 l 343 0 l 343 365 m 599 1031 l 407 1149 l 214 1031 l 214 1131 l 407 1246 l 599 1131 "},"ŷ":{"ha":782,"x_min":0,"x_max":0,"o":"m 632 761 l 763 761 l 304 -358 l 174 -358 l 324 8 l 17 761 l 157 761 l 396 144 m 583 829 l 392 947 l 199 829 l 199 929 l 392 1044 l 583 929 "},"Ÿ":{"ha":811,"x_min":0,"x_max":0,"o":"m 26 968 l 167 968 l 406 478 l 644 968 l 785 968 l 469 365 l 469 0 l 343 0 l 343 365 m 294 1065 b 221 1138 253 1065 221 1097 b 294 1211 221 1178 253 1211 b 367 1138 333 1211 367 1178 b 294 1065 367 1097 333 1065 m 519 1065 b 447 1138 478 1065 447 1097 b 519 1211 447 1178 478 1211 b 593 1138 560 1211 593 1178 b 519 1065 593 1097 560 1065 "},"Ź":{"ha":751,"x_min":0,"x_max":0,"o":"m 683 868 l 214 110 l 686 110 l 686 0 l 64 0 l 64 100 l 533 858 l 69 858 l 69 968 l 683 968 m 511 1288 l 511 1178 l 215 1019 l 215 1114 "},"ź":{"ha":632,"x_min":0,"x_max":0,"o":"m 572 658 l 201 104 l 575 104 l 575 0 l 57 0 l 57 104 l 426 658 l 60 658 l 60 761 l 572 761 m 453 1086 l 453 976 l 157 818 l 157 913 "},"Ż":{"ha":751,"x_min":0,"x_max":0,"o":"m 683 868 l 214 110 l 686 110 l 686 0 l 64 0 l 64 100 l 533 858 l 69 858 l 69 968 l 683 968 m 376 1057 b 303 1129 335 1057 303 1089 b 376 1203 303 1169 335 1203 b 449 1129 417 1203 449 1169 b 376 1057 449 1089 417 1057 "},"ż":{"ha":632,"x_min":0,"x_max":0,"o":"m 572 658 l 201 104 l 575 104 l 575 0 l 57 0 l 57 104 l 426 658 l 60 658 l 60 761 l 572 761 m 318 857 b 244 929 276 857 244 889 b 318 1003 244 969 276 1003 b 390 929 358 1003 390 969 b 318 857 390 889 358 857 "},"Ž":{"ha":751,"x_min":0,"x_max":0,"o":"m 683 868 l 214 110 l 686 110 l 686 0 l 64 0 l 64 100 l 533 858 l 69 858 l 69 968 l 683 968 m 568 1244 l 568 1144 l 376 1031 l 183 1144 l 183 1244 l 376 1126 "},"ž":{"ha":632,"x_min":0,"x_max":0,"o":"m 572 658 l 201 104 l 575 104 l 575 0 l 57 0 l 57 104 l 426 658 l 60 658 l 60 761 l 572 761 m 510 1043 l 510 943 l 318 829 l 125 943 l 125 1043 l 318 925 "},"Ə":{"ha":1092,"x_min":0,"x_max":0,"o":"m 547 104 b 874 414 725 104 863 218 l 226 414 b 547 104 226 228 356 104 m 547 -10 b 94 446 281 -10 94 156 b 99 532 94 472 96 501 l 874 532 b 549 865 864 733 731 865 b 249 667 404 865 292 790 l 103 667 b 549 979 164 858 329 979 b 1011 485 822 979 1011 778 b 547 -10 1011 192 826 -10 "},"ƒ":{"ha":461,"x_min":0,"x_max":0,"o":"m 150 826 b 450 1065 168 994 264 1065 l 440 960 b 276 826 333 960 286 922 l 269 761 l 429 761 l 419 658 l 258 658 l 181 -79 b -33 -274 167 -218 96 -274 l -67 -274 l -57 -169 l -31 -169 b 54 -79 21 -169 47 -147 l 132 658 l 35 658 l 44 761 l 143 761 l 150 826 "},"Ǽ":{"ha":1250,"x_min":0,"x_max":0,"o":"m 913 1296 l 913 1186 l 617 1028 l 617 1122 m 331 314 l 646 314 l 646 874 m 772 869 l 772 538 l 1122 538 l 1122 440 l 772 440 l 772 100 l 1164 100 l 1164 0 l 646 0 l 646 215 l 275 215 l 154 0 l 17 0 l 565 969 l 1164 969 l 1164 869 "},"ǽ":{"ha":1528,"x_min":0,"x_max":0,"o":"m 1089 667 b 833 429 960 667 847 579 l 1335 429 b 1089 667 1336 581 1224 667 m 1449 235 b 1108 -12 1410 96 1290 -12 b 818 147 983 -12 872 50 l 818 0 l 708 0 l 708 146 b 421 -12 656 57 554 -12 b 60 383 217 -12 60 147 b 428 774 60 621 217 774 b 713 621 554 774 651 718 l 713 761 l 818 761 l 818 621 b 1108 774 888 728 988 774 b 1465 413 1325 774 1465 614 b 1460 338 1465 386 1464 364 l 833 338 b 1088 94 847 175 969 94 b 1313 235 1208 94 1288 151 l 1449 235 m 189 383 b 446 99 189 204 307 99 b 704 382 585 99 704 203 b 446 664 704 558 585 664 b 189 383 307 664 189 563 m 1001 1086 l 1001 976 l 706 818 l 706 913 "},"Ș":{"ha":815,"x_min":0,"x_max":0,"o":"m 476 -68 b 492 -183 488 -110 492 -149 b 351 -343 492 -294 442 -343 l 351 -285 b 417 -207 397 -285 417 -257 l 417 -182 l 351 -182 l 351 -68 m 736 264 b 414 -10 736 126 624 -10 b 79 258 219 -10 82 99 l 214 258 b 414 97 222 178 279 97 b 608 258 536 97 608 167 b 85 713 608 519 85 353 b 406 981 85 872 214 981 b 726 732 590 981 711 879 l 588 732 b 400 872 579 797 518 871 b 214 717 296 875 214 821 b 736 264 214 467 736 622 "},"ș":{"ha":725,"x_min":0,"x_max":0,"o":"m 429 -68 b 444 -183 439 -110 444 -149 b 304 -343 444 -294 394 -343 l 304 -285 b 369 -207 350 -285 369 -257 l 369 -182 l 304 -182 l 304 -68 m 654 207 b 376 -12 654 82 544 -12 b 65 224 199 -12 74 85 l 196 224 b 375 94 203 150 268 94 b 531 207 475 94 531 144 b 81 561 531 376 81 278 b 360 774 81 678 190 774 b 647 535 528 774 639 683 l 521 535 b 356 667 515 611 457 667 b 207 561 263 667 207 622 b 654 207 207 381 649 479 "},"Ț":{"ha":751,"x_min":0,"x_max":0,"o":"m 435 -68 b 449 -183 444 -110 449 -149 b 310 -343 449 -294 400 -343 l 310 -285 b 375 -207 356 -285 375 -257 l 375 -182 l 310 -182 l 310 -68 m 47 968 l 703 968 l 703 865 l 439 865 l 439 0 l 313 0 l 313 865 l 47 865 "},"ț":{"ha":506,"x_min":0,"x_max":0,"o":"m 324 -68 b 339 -183 335 -110 339 -149 b 199 -343 339 -294 290 -343 l 199 -285 b 265 -207 246 -285 265 -257 l 265 -182 l 199 -182 l 199 -68 m 135 657 l 36 657 l 36 761 l 135 761 l 135 953 l 261 953 l 261 761 l 460 761 l 460 657 l 261 657 l 261 208 b 367 107 261 133 289 107 l 460 107 l 460 0 l 346 0 b 135 208 211 0 135 56 "},"ə":{"ha":861,"x_min":0,"x_max":0,"o":"m 431 94 b 671 325 554 94 657 176 l 190 325 b 431 94 189 176 300 94 m 425 -12 b 60 351 204 -12 60 143 b 64 428 60 379 61 401 l 672 428 b 425 667 663 582 554 667 b 211 526 311 667 239 608 l 75 526 b 425 774 114 665 236 774 b 801 379 642 774 801 621 b 425 -12 801 139 647 -12 "},"ʼ":{"ha":304,"x_min":0,"x_max":0,"o":"m 44 653 l 126 968 l 267 968 l 133 653 "},"ˆ":{"ha":432,"x_min":0,"x_max":0,"o":"m 408 829 l 217 947 l 24 829 l 24 929 l 217 1044 l 408 929 "},"ˇ":{"ha":432,"x_min":0,"x_max":0,"o":"m 408 1043 l 408 943 l 217 829 l 24 943 l 24 1043 l 217 925 "},"ˉ":{"ha":538,"x_min":0,"x_max":0,"o":"m 24 985 l 513 985 l 513 890 l 24 890 "},"˘":{"ha":444,"x_min":0,"x_max":0,"o":"m 419 1017 b 222 836 419 914 350 836 b 24 1018 94 836 24 914 l 24 1042 l 99 1042 b 222 935 99 975 132 935 b 344 1042 311 935 344 975 l 419 1042 l 419 1017 "},"˙":{"ha":199,"x_min":0,"x_max":0,"o":"m 100 864 b 26 936 58 864 26 896 b 100 1010 26 976 58 1010 b 172 936 140 1010 172 976 b 100 864 172 896 140 864 "},"˚":{"ha":338,"x_min":0,"x_max":0,"o":"m 169 1135 b 318 989 251 1135 318 1079 b 169 843 318 899 251 843 b 21 989 89 843 21 899 b 169 1135 21 1079 89 1135 m 169 911 b 244 990 211 911 244 943 b 169 1068 244 1038 211 1068 b 94 990 128 1068 94 1038 b 169 911 94 943 128 911 "},"˛":{"ha":335,"x_min":0,"x_max":0,"o":"m 258 65 l 292 0 l 215 -37 b 132 -135 153 -68 132 -100 b 214 -201 132 -178 164 -201 b 304 -183 240 -201 272 -194 l 304 -267 b 197 -286 272 -278 235 -286 b 28 -147 114 -286 28 -249 b 190 36 28 -81 71 -19 "},"˜":{"ha":479,"x_min":0,"x_max":0,"o":"m 24 843 b 163 989 38 939 90 989 b 321 925 236 989 264 925 b 382 985 351 925 376 944 l 454 985 b 315 840 443 890 388 840 b 157 904 240 840 213 904 b 97 843 126 904 103 885 l 24 843 "},"˝":{"ha":478,"x_min":0,"x_max":0,"o":"m 229 1049 l 108 835 l 24 835 l 117 1049 m 442 1049 l 314 835 l 231 835 l 331 1049 "},"π":{"ha":986,"x_min":0,"x_max":0,"o":"m 54 761 l 926 761 l 926 663 l 815 663 l 815 0 l 690 0 l 690 663 l 290 663 l 290 0 l 164 0 l 164 663 l 54 663 "},"Ẁ":{"ha":1356,"x_min":0,"x_max":0,"o":"m 32 968 l 167 968 l 378 147 l 611 968 l 753 968 l 975 150 l 1188 968 l 1324 968 l 1043 0 l 901 0 l 676 779 l 443 0 l 303 -1 m 454 1294 l 750 1121 l 750 1026 l 454 1185 "},"ẁ":{"ha":1139,"x_min":0,"x_max":0,"o":"m 17 761 l 146 761 l 321 122 l 510 761 l 639 761 l 824 121 l 996 761 l 1121 761 l 883 0 l 753 0 l 569 604 l 386 0 l 256 0 m 336 1086 l 632 913 l 632 818 l 336 976 "},"Ẃ":{"ha":1356,"x_min":0,"x_max":0,"o":"m 32 968 l 167 968 l 378 147 l 611 968 l 753 968 l 975 150 l 1188 968 l 1324 968 l 1043 0 l 901 0 l 676 779 l 443 0 l 303 -1 m 910 1299 l 910 1189 l 614 1031 l 614 1125 "},"ẃ":{"ha":1139,"x_min":0,"x_max":0,"o":"m 17 761 l 146 761 l 321 122 l 510 761 l 639 761 l 824 121 l 996 761 l 1121 761 l 883 0 l 753 0 l 569 604 l 386 0 l 256 0 m 804 1086 l 804 976 l 508 818 l 508 913 "},"Ẅ":{"ha":1356,"x_min":0,"x_max":0,"o":"m 32 968 l 167 968 l 378 147 l 611 968 l 753 968 l 975 150 l 1188 968 l 1324 968 l 1043 0 l 901 0 l 676 779 l 443 0 l 303 -1 m 561 1074 b 488 1146 519 1074 488 1106 b 561 1219 488 1186 519 1219 b 633 1146 600 1219 633 1186 b 561 1074 633 1106 600 1074 m 786 1074 b 714 1146 744 1074 714 1106 b 786 1219 714 1186 744 1219 b 860 1146 826 1219 860 1186 b 786 1074 860 1106 826 1074 "},"ẅ":{"ha":1139,"x_min":0,"x_max":0,"o":"m 17 761 l 146 761 l 321 122 l 510 761 l 639 761 l 824 121 l 996 761 l 1121 761 l 883 0 l 753 0 l 569 604 l 386 0 l 256 0 m 457 864 b 383 936 415 864 383 896 b 457 1010 383 976 415 1010 b 529 936 496 1010 529 976 b 457 864 529 896 496 864 m 682 864 b 610 936 640 864 610 896 b 682 1010 610 976 640 1010 b 756 936 722 1010 756 976 b 682 864 756 896 722 864 "},"Ẽ":{"ha":713,"x_min":0,"x_max":0,"o":"m 628 865 l 233 865 l 233 542 l 586 542 l 586 438 l 233 438 l 233 104 l 628 104 l 628 0 l 107 0 l 107 969 l 628 969 m 150 1044 b 289 1190 164 1140 217 1190 b 447 1126 363 1190 390 1126 b 508 1186 478 1126 503 1146 l 581 1186 b 442 1042 569 1092 514 1042 b 283 1106 367 1042 339 1106 b 224 1044 253 1106 229 1086 l 150 1044 "},"ẽ":{"ha":861,"x_min":0,"x_max":0,"o":"m 431 667 b 190 436 307 667 204 585 l 671 436 b 431 667 672 585 561 667 m 786 235 b 436 -12 747 96 625 -12 b 60 382 219 -12 60 140 b 436 774 60 622 214 774 b 801 410 657 774 801 618 b 797 333 801 382 800 360 l 189 333 b 436 94 199 179 307 94 b 650 235 550 94 622 153 l 786 235 m 226 843 b 365 989 240 939 293 989 b 524 925 439 989 467 925 b 585 985 554 925 579 944 l 657 985 b 518 840 646 890 590 840 b 360 904 443 840 415 904 b 300 843 329 904 306 885 l 226 843 "},"Ỳ":{"ha":811,"x_min":0,"x_max":0,"o":"m 26 968 l 167 968 l 406 478 l 644 968 l 785 968 l 469 365 l 469 0 l 343 0 l 343 365 m 246 1288 l 542 1114 l 542 1019 l 246 1178 "},"ỳ":{"ha":782,"x_min":0,"x_max":0,"o":"m 632 761 l 763 761 l 304 -358 l 174 -358 l 324 8 l 17 761 l 157 761 l 396 144 m 231 1086 l 526 913 l 526 818 l 231 976 "},"Ỹ":{"ha":811,"x_min":0,"x_max":0,"o":"m 26 968 l 167 968 l 406 478 l 644 968 l 785 968 l 469 365 l 469 0 l 343 0 l 343 365 m 203 1044 b 342 1190 217 1140 269 1190 b 500 1126 415 1190 443 1126 b 561 1186 531 1126 556 1146 l 633 1186 b 494 1042 622 1092 567 1042 b 336 1106 419 1042 392 1106 b 276 1044 306 1106 282 1086 l 203 1044 "},"ỹ":{"ha":782,"x_min":0,"x_max":0,"o":"m 632 761 l 763 761 l 304 -358 l 174 -358 l 324 8 l 17 761 l 157 761 l 396 144 m 188 843 b 326 989 201 939 254 989 b 485 925 400 989 428 925 b 546 985 515 925 540 944 l 618 985 b 479 840 607 890 551 840 b 321 904 404 840 376 904 b 261 843 290 904 267 885 l 188 843 "},"–":{"ha":940,"x_min":0,"x_max":0,"o":"m 106 563 l 836 563 l 836 456 l 106 456 "},"—":{"ha":1229,"x_min":0,"x_max":0,"o":"m 106 563 l 1124 563 l 1124 456 l 106 456 "},"‘":{"ha":304,"x_min":0,"x_max":0,"o":"m 260 969 l 178 654 l 38 654 l 171 969 "},"’":{"ha":304,"x_min":0,"x_max":0,"o":"m 44 653 l 126 968 l 267 968 l 133 653 "},"‚":{"ha":258,"x_min":0,"x_max":0,"o":"m 99 175 l 238 175 l 82 -199 l -3 -199 "},"“":{"ha":536,"x_min":0,"x_max":0,"o":"m 260 969 l 178 654 l 38 654 l 171 969 m 486 969 l 404 654 l 264 654 l 397 969 "},"”":{"ha":543,"x_min":0,"x_max":0,"o":"m 283 653 l 365 968 l 506 968 l 372 653 m 57 653 l 139 968 l 279 968 l 146 653 "},"„":{"ha":549,"x_min":0,"x_max":0,"o":"m 99 175 l 238 175 l 82 -199 l -3 -199 m 374 175 l 513 175 l 357 -199 l 272 -199 "},"†":{"ha":758,"x_min":0,"x_max":0,"o":"m 697 761 l 697 661 l 429 672 l 442 -361 l 317 -361 l 329 672 l 61 661 l 61 761 l 329 750 l 317 1085 l 442 1085 l 429 750 "},"‡":{"ha":760,"x_min":0,"x_max":0,"o":"m 697 661 l 429 672 l 429 51 l 697 64 l 697 -37 l 429 -26 l 442 -361 l 317 -361 l 329 -26 l 63 -37 l 63 64 l 329 51 l 329 672 l 63 661 l 63 761 l 329 750 l 317 1085 l 442 1085 l 429 750 l 697 761 "},"•":{"ha":572,"x_min":0,"x_max":0,"o":"m 285 293 b 115 463 190 293 115 368 b 285 633 115 558 190 633 b 457 463 381 633 457 558 b 285 293 457 368 381 293 "},"…":{"ha":807,"x_min":0,"x_max":0,"o":"m 490 78 b 407 -8 490 29 453 -8 b 321 78 358 -8 321 29 b 407 164 321 126 358 164 b 490 78 453 164 490 126 m 751 78 b 668 -8 751 29 714 -8 b 582 78 619 -8 582 29 b 668 164 582 126 619 164 b 751 78 714 164 751 126 m 231 78 b 147 -8 231 29 193 -8 b 61 78 99 -8 61 29 b 147 164 61 126 99 164 b 231 78 193 164 231 126 "},"‰":{"ha":1396,"x_min":0,"x_max":0,"o":"m 57 778 b 260 982 57 904 143 982 b 463 778 375 982 463 904 b 260 572 463 651 375 572 b 57 778 143 572 57 651 m 260 904 b 157 778 197 904 157 861 b 260 651 157 694 197 651 b 361 778 321 651 361 694 b 260 904 361 861 321 904 m 686 969 l 811 969 l 250 0 l 125 0 m 476 192 b 679 397 476 319 563 397 b 881 192 794 397 881 319 b 679 -14 881 65 794 -14 b 476 192 563 -14 476 65 m 678 318 b 575 192 617 318 575 276 b 678 67 575 108 617 67 b 781 192 739 67 781 108 b 678 318 781 276 739 318 m 933 192 b 1136 397 933 319 1022 397 b 1339 192 1253 397 1339 319 b 1136 -14 1339 65 1253 -14 b 933 192 1022 -14 933 65 m 1136 318 b 1035 192 1074 318 1035 276 b 1136 67 1035 108 1074 67 b 1239 192 1197 67 1239 108 b 1136 318 1239 276 1197 318 "},"‹":{"ha":389,"x_min":0,"x_max":0,"o":"m 319 167 l 196 167 l 63 410 l 196 653 l 319 653 l 182 410 "},"›":{"ha":389,"x_min":0,"x_max":0,"o":"m 69 167 l 207 410 l 69 653 l 193 653 l 326 410 l 193 167 "},"⁄":{"ha":686,"x_min":0,"x_max":0,"o":"m 575 969 l 701 969 l 139 0 l 13 0 "},"€":{"ha":1126,"x_min":0,"x_max":0,"o":"m 146 485 b 150 553 146 508 147 531 l 35 553 l 35 640 l 168 640 b 631 981 229 846 410 981 b 1076 688 839 981 1006 875 l 926 688 b 631 865 874 800 772 865 b 303 640 476 865 353 782 l 631 640 l 631 553 l 281 553 b 276 485 278 531 276 508 b 282 413 276 460 278 436 l 631 413 l 631 324 l 304 324 b 631 106 358 186 481 106 b 926 282 772 106 874 171 l 1076 282 b 631 -8 1006 96 839 -8 b 169 324 413 -8 232 122 l 35 324 l 35 413 l 150 413 b 146 485 147 436 146 460 "},"₺":{"ha":1153,"x_min":0,"x_max":0,"o":"m 390 692 l 636 753 l 636 661 l 390 601 l 390 463 l 631 521 l 631 429 l 390 371 l 390 104 b 497 94 428 96 463 94 b 874 579 768 94 874 269 l 1003 579 b 497 -25 1003 179 854 -25 b 260 6 425 -25 346 -14 l 260 339 l 38 285 l 38 376 l 260 431 l 260 569 l 33 515 l 33 603 l 260 660 l 260 975 l 390 975 "},"₽":{"ha":867,"x_min":0,"x_max":0,"o":"m 296 504 l 482 504 b 688 685 626 504 688 576 b 482 868 688 797 626 868 l 296 868 m 50 504 l 169 504 l 169 968 l 482 968 b 817 685 710 968 817 843 b 482 404 817 538 722 404 l 296 404 l 296 271 l 599 271 l 599 169 l 296 169 l 296 0 l 169 0 l 169 169 l 50 169 l 50 271 l 169 271 l 169 404 l 50 404 "},"ℓ":{"ha":342,"x_min":0,"x_max":0,"o":"m 107 1028 l 233 1028 l 233 0 l 107 0 "},"™":{"ha":1085,"x_min":0,"x_max":0,"o":"m 35 978 l 371 978 l 371 900 l 253 900 l 253 489 l 153 489 l 154 900 l 35 900 m 449 978 l 578 978 l 729 607 l 885 978 l 1007 978 l 1007 489 l 914 489 l 913 843 l 761 489 l 690 489 l 540 849 l 540 489 l 449 489 "},"Ω":{"ha":1093,"x_min":0,"x_max":0,"o":"m 57 486 b 546 981 57 776 274 981 b 1036 486 819 981 1036 776 b 833 100 1036 324 967 179 l 1018 100 l 1018 0 l 638 0 l 638 104 b 908 478 794 144 908 281 b 546 865 908 715 753 865 b 185 478 338 865 185 713 b 456 104 185 281 299 144 l 456 0 l 74 0 l 74 100 l 258 100 b 57 486 126 179 57 324 "},"℮":{"ha":1057,"x_min":0,"x_max":0,"o":"m 951 190 b 540 -10 838 67 701 -10 b 65 460 269 -10 65 158 b 528 972 65 746 231 972 b 992 522 826 972 992 754 l 992 438 l 253 438 l 253 204 b 540 75 324 119 410 75 b 896 251 682 75 785 140 l 951 190 m 792 526 l 792 771 b 528 889 733 846 642 889 b 253 756 414 889 317 847 l 253 526 "},"∂":{"ha":794,"x_min":0,"x_max":0,"o":"m 596 450 b 433 668 596 596 532 668 b 183 310 288 668 183 511 b 340 94 183 161 250 94 b 596 450 489 94 596 261 m 54 310 b 429 775 54 554 213 775 b 608 650 511 775 575 743 b 396 951 603 822 544 951 b 285 935 361 951 325 946 l 285 1008 b 414 1028 331 1022 371 1028 b 739 572 621 1028 739 858 b 326 -14 739 211 556 -14 b 54 310 176 -14 54 89 "},"∆":{"ha":944,"x_min":0,"x_max":0,"o":"m 419 963 l 525 963 l 917 99 l 917 0 l 28 0 l 28 99 m 472 818 l 157 99 l 788 99 "},"∏":{"ha":1026,"x_min":0,"x_max":0,"o":"m 54 969 l 971 969 l 971 869 l 861 869 l 861 0 l 736 0 l 736 869 l 290 869 l 290 0 l 164 0 l 164 869 l 54 869 "},"∑":{"ha":635,"x_min":0,"x_max":0,"o":"m 56 963 l 596 963 l 596 864 l 163 864 l 532 490 l 532 392 l 161 11 l 596 11 l 596 -87 l 56 -87 l 56 60 l 417 438 l 56 817 "},"−":{"ha":765,"x_min":0,"x_max":0,"o":"m 106 563 l 660 563 l 660 456 l 106 456 "},"∕":{"ha":661,"x_min":0,"x_max":0,"o":"m 453 1308 l 579 1308 l 199 -236 l 74 -236 "},"∙":{"ha":294,"x_min":0,"x_max":0,"o":"m 235 474 b 151 388 235 425 197 388 b 65 474 103 388 65 425 b 151 560 65 522 103 560 b 235 474 197 560 235 522 "},"√":{"ha":1094,"x_min":0,"x_max":0,"o":"m 329 -61 l 156 244 l 65 192 l 26 257 l 225 374 l 383 93 l 982 1207 l 1075 1207 l 392 -61 "},"∞":{"ha":967,"x_min":0,"x_max":0,"o":"m 701 368 b 815 483 769 368 815 411 b 703 596 815 556 771 596 b 538 483 638 596 575 550 b 701 368 586 421 633 368 m 264 369 b 426 478 328 369 388 413 b 265 597 376 542 329 597 b 151 482 197 597 151 554 b 264 369 151 410 196 369 m 46 482 b 260 689 46 613 142 689 b 486 550 363 689 429 622 b 713 689 531 628 610 690 b 922 483 829 688 922 614 b 707 276 922 353 825 276 b 479 411 606 276 538 340 b 254 276 433 335 356 275 b 46 482 135 278 46 351 "},"∫":{"ha":363,"x_min":0,"x_max":0,"o":"m 188 1082 b 397 1275 203 1221 274 1275 l 428 1275 l 417 1169 l 393 1169 b 314 1082 346 1169 321 1147 l 186 -79 b -22 -274 172 -218 104 -274 l -54 -274 l -44 -169 l -17 -169 b 60 -79 32 -169 53 -146 "},"≈":{"ha":721,"x_min":0,"x_max":0,"o":"m 51 279 b 247 482 76 418 146 482 b 482 390 353 482 403 390 b 575 481 529 390 567 424 l 669 481 b 472 278 646 340 575 278 b 239 369 368 278 321 369 b 144 279 190 369 153 335 l 51 279 m 51 572 b 247 775 76 711 146 775 b 482 683 353 775 403 683 b 575 774 529 683 567 717 l 669 774 b 472 571 646 633 575 571 b 239 663 368 571 321 663 b 144 572 190 663 153 628 l 51 572 "},"≠":{"ha":981,"x_min":0,"x_max":0,"o":"m 281 306 l 140 306 l 140 413 l 372 413 l 535 604 l 140 604 l 140 711 l 626 711 l 743 847 l 840 847 l 724 711 l 863 711 l 863 604 l 632 604 l 468 413 l 863 413 l 863 306 l 376 306 l 260 169 l 164 169 "},"≤":{"ha":710,"x_min":0,"x_max":0,"o":"m 110 215 l 603 215 l 603 119 l 110 119 m 439 294 l 103 560 l 439 826 l 606 826 l 272 561 l 606 294 "},"≥":{"ha":710,"x_min":0,"x_max":0,"o":"m 104 294 l 436 561 l 104 826 l 271 826 l 607 560 l 271 294 m 600 215 l 600 119 l 107 119 l 107 215 "},"◊":{"ha":769,"x_min":0,"x_max":0,"o":"m 386 821 l 719 486 l 385 150 l 50 486 m 386 685 l 188 486 l 385 286 l 583 486 "},"ﬁ":{"ha":793,"x_min":0,"x_max":0,"o":"m 131 657 l 33 657 l 33 761 l 131 761 l 131 815 b 408 1061 131 985 214 1061 l 408 956 b 257 815 294 956 257 914 l 257 761 l 689 761 l 689 0 l 563 0 l 563 657 l 257 657 l 257 0 l 131 0 m 626 885 b 542 971 579 885 542 922 b 626 1057 542 1019 579 1057 b 711 971 674 1057 711 1019 b 626 885 711 922 674 885 "},"ﬂ":{"ha":797,"x_min":0,"x_max":0,"o":"m 131 657 l 32 657 l 32 761 l 131 761 l 131 815 b 408 1061 131 985 214 1061 l 408 956 b 257 815 294 956 257 914 l 257 761 l 417 761 l 417 657 l 257 657 l 257 0 l 131 0 m 564 1028 l 690 1028 l 690 0 l 564 0 "}}}
